<?xml version="1.0" standalone="no"?>
<!DOCTYPE svg PUBLIC "-//W3C//DTD SVG 1.1//EN" "http://www.w3.org/Graphics/SVG/1.1/DTD/svg11.dtd" >
<svg xmlns="http://www.w3.org/2000/svg" xmlns:xlink="http://www.w3.org/1999/xlink" version="1.1">
<metadata>
Created by FontForge 20170731 at Thu May 19 12:29:16 2016
 By Aleksey,,,
Copyright (c) 2016 by Letters from Sweden, Go:ran So:derstro:m. All rights reserved.
</metadata>
<defs>
<font id="Mikro-Light" horiz-adv-x="644" >
  <font-face 
    font-family="Mikro Light"
    font-weight="300"
    font-stretch="normal"
    units-per-em="1000"
    panose-1="0 0 4 0 0 0 0 0 0 0"
    ascent="750"
    descent="-250"
    x-height="520"
    cap-height="706"
    bbox="-408 -249 1254 925"
    underline-thickness="52"
    underline-position="-244"
    unicode-range="U+0020-FB01"
  />
<missing-glyph horiz-adv-x="574" 
d="M103 -100v906h368v-906h-368z" />
    <glyph glyph-name="fi" unicode="fi" horiz-adv-x="625" 
d="M540 520v-520h-64v464h-275v-464h-64v464h-111v56h111v127q20 45 63 71.5t101 26.5q27 0 53 -6v-55h-39q-48 0 -74 -15.5t-40 -46.5v-102h339zM503 730q37 0 50 -27v-44q-13 -27 -50 -27t-50 27v44q13 27 50 27z" />
    <glyph glyph-name="f_f.liga" unicode="ff" horiz-adv-x="731" 
d="M660 684q-48 0 -74.5 -15t-40.5 -47v-102h156v-56h-156v-464h-64v464h-280v-464h-64v464h-111v56h111v127q44 98 169 98q35 0 61 -7v-54h-51q-48 0 -74.5 -15t-40.5 -47v-102h280v127q44 98 169 98q35 0 61 -7v-54h-51z" />
    <glyph glyph-name="f_f_i.liga" unicode="ffi" horiz-adv-x="969" 
d="M884 520v-520h-64v464h-275v-464h-64v464h-280v-464h-64v464h-111v56h111v127q44 98 169 98q35 0 61 -7v-54h-51q-48 0 -74.5 -15t-40.5 -47v-102h280v127q20 45 63 71.5t101 26.5q27 0 53 -6v-55h-39q-48 0 -74 -15.5t-40 -46.5v-102h339zM847 730q37 0 50 -27v-44
q-13 -27 -50 -27t-50 27v44q13 27 50 27z" />
    <glyph glyph-name="f_f_j.liga" unicode="ffj" horiz-adv-x="969" 
d="M884 520v-535q-15 -57 -60 -102t-111 -59v66q38 10 67.5 41.5t39.5 69.5v463h-275v-464h-64v464h-280v-464h-64v464h-111v56h111v127q44 98 169 98q35 0 61 -7v-54h-51q-48 0 -74.5 -15t-40.5 -47v-102h280v127q20 45 63 71.5t101 26.5q27 0 53 -6v-55h-39
q-48 0 -74 -15.5t-40 -46.5v-102h339zM847 730q37 0 50 -27v-44q-13 -27 -50 -27t-50 27v44q13 27 50 27z" />
    <glyph glyph-name="f_j.liga" unicode="fj" horiz-adv-x="625" 
d="M540 520v-535q-15 -57 -60 -102t-111 -59v66q38 10 67.5 41.5t39.5 69.5v463h-275v-464h-64v464h-111v56h111v127q20 45 63 71.5t101 26.5q27 0 53 -6v-55h-39q-48 0 -74 -15.5t-40 -46.5v-102h339zM503 730q37 0 50 -27v-44q-13 -27 -50 -27t-50 27v44q13 27 50 27z" />
    <glyph glyph-name=".notdef" horiz-adv-x="574" 
d="M103 -100v906h368v-906h-368z" />
    <glyph glyph-name=".null" horiz-adv-x="0" 
 />
    <glyph glyph-name="nonmarkingreturn" horiz-adv-x="333" 
 />
    <glyph glyph-name="space" unicode=" " horiz-adv-x="260" 
 />
    <glyph glyph-name="exclam" unicode="!" horiz-adv-x="287" 
d="M122 165l-12 158v383h68v-383l-12 -158h-44zM144 -8q-38 0 -50 30v38q12 30 50 30q36 0 49 -28v-42q-13 -28 -49 -28z" />
    <glyph glyph-name="quotedbl" unicode="&#x22;" horiz-adv-x="376" 
d="M69 496l-9 133v77h66v-77l-9 -133h-48zM259 496l-9 133v77h66v-77l-9 -133h-48z" />
    <glyph glyph-name="numbersign" unicode="#" horiz-adv-x="730" 
d="M665 451h-138l-34 -196h130v-53h-140l-35 -202h-56v10l34 192h-180l-35 -202h-56v10l34 192h-124v53h133l34 196h-125v53h135l35 202h56v-10l-34 -192h180l35 202h56v-10l-34 -192h129v-53zM435 255l34 196h-179l-34 -196h179z" />
    <glyph glyph-name="dollar" unicode="$" 
d="M436 367q108 -36 139 -125v-114q-22 -57 -82 -96t-140 -46v-86h-54v86q-82 7 -147.5 49.5t-87.5 105.5l62 32q22 -52 67.5 -84.5t105.5 -39.5v282q-42 5 -83 19q-106 36 -137 125v103q22 58 81.5 97t138.5 45v86h54v-86q80 -7 141 -49.5t84 -104.5l-62 -31q-20 50 -63 82
t-100 39v-270q42 -5 83 -19zM243 408q26 -9 56 -14v263q-56 -5 -96.5 -32t-57.5 -68v-64q25 -60 98 -85zM509 149v75q-25 60 -100 85q-26 9 -56 14v-274q56 6 97.5 33t58.5 67z" />
    <glyph glyph-name="percent" unicode="%" horiz-adv-x="910" 
d="M232 389q-58 0 -104.5 29.5t-61.5 72.5v126q16 43 62 72.5t104 29.5t104 -29.5t62 -72.5v-126q-15 -43 -61.5 -72.5t-104.5 -29.5zM752 698l-532 -698h-61v8l532 698h61v-8zM232 443q39 0 67 17.5t41 45.5v96q-13 28 -41 45t-67 17t-67 -17t-41 -45v-96q13 -28 41 -45.5
t67 -17.5zM678 -11q-58 0 -104.5 29.5t-61.5 72.5v126q16 43 62 72.5t104 29.5t104 -29.5t62 -72.5v-126q-15 -43 -61.5 -72.5t-104.5 -29.5zM678 43q39 0 67 17.5t41 45.5v96q-13 28 -41 45t-67 17t-67 -17t-41 -45v-96q13 -28 41 -45.5t67 -17.5z" />
    <glyph glyph-name="ampersand" unicode="&#x26;" horiz-adv-x="693" 
d="M589 119l94 -99v-20h-69l-66 70q-85 -85 -225 -85q-96 0 -167.5 46.5t-95.5 118.5v119q16 52 56.5 93t97.5 62l-66 70v114q16 48 68 80.5t117 32.5q68 0 122 -32.5t73 -84.5l-58 -29q-38 83 -138 83q-44 0 -76.5 -19t-43.5 -49v-72l332 -351q37 62 51 158l61 -17
q-17 -113 -67 -189zM324 48q114 0 181 67l-247 263q-50 -15 -86.5 -48.5t-46.5 -77.5v-82q15 -56 69 -89t130 -33z" />
    <glyph glyph-name="quotesingle" unicode="'" horiz-adv-x="186" 
d="M69 496l-9 133v77h66v-77l-9 -133h-48z" />
    <glyph glyph-name="parenleft" unicode="(" horiz-adv-x="357" 
d="M267 -140q-59 49 -105.5 144t-61.5 219v144q15 124 61.5 219t105.5 144h60q-137 -139 -162 -388v-94q24 -244 162 -388h-60z" />
    <glyph glyph-name="parenright" unicode=")" horiz-adv-x="357" 
d="M90 -140h-60q138 144 162 388v94q-25 249 -162 388h60q59 -49 105.5 -144t61.5 -219v-144q-15 -124 -61.5 -219t-105.5 -144z" />
    <glyph glyph-name="asterisk" unicode="*" horiz-adv-x="522" 
d="M462 658l-161 -82l161 -82l-29 -51l-151 98l8 -180h-58l8 180l-151 -98l-29 51l160 82l-160 82l29 51l151 -98l-8 180h58l-8 -180l151 98z" />
    <glyph glyph-name="plus" unicode="+" 
d="M590 382v-59h-240v-240h-59v240h-241v59h241v240h59v-240h240z" />
    <glyph glyph-name="comma" unicode="," horiz-adv-x="223" 
d="M112 90q38 0 51 -28v-46l-60 -143h-43v10l45 110q-35 2 -45 29v38q12 30 52 30z" />
    <glyph glyph-name="hyphen" unicode="-" horiz-adv-x="464" 
d="M60 282v61h344v-61h-344z" />
    <glyph glyph-name="period" unicode="." horiz-adv-x="219" 
d="M110 -8q-38 0 -50 30v38q12 30 50 30q36 0 49 -28v-42q-13 -28 -49 -28z" />
    <glyph glyph-name="slash" unicode="/" horiz-adv-x="393" 
d="M355 721l-270 -821h-57v9l270 821h57v-9z" />
    <glyph glyph-name="zero" unicode="0" horiz-adv-x="660" 
d="M330 -15q-87 0 -155.5 41.5t-90.5 104.5v444q22 63 90.5 104.5t155.5 41.5t155.5 -41.5t90.5 -104.5v-444q-22 -63 -90.5 -104.5t-155.5 -41.5zM330 47q62 0 113 29.5t67 75.5v402q-16 46 -67 75.5t-113 29.5t-113 -29.5t-67 -75.5v-402q16 -46 67 -75.5t113 -29.5z" />
    <glyph glyph-name="one" unicode="1" horiz-adv-x="439" 
d="M217 706h54v-706h-66v537h-154v51q84 1 124 29.5t42 88.5z" />
    <glyph glyph-name="two" unicode="2" horiz-adv-x="624" 
d="M61 0v114q14 40 51.5 76t103.5 76l153 93q91 54 108 111v86q-16 46 -64.5 74.5t-108.5 28.5q-65 0 -115.5 -33t-71.5 -92l-62 30q25 69 94 113t155 44q84 0 151.5 -41.5t87.5 -101.5v-129q-12 -43 -48.5 -76.5t-93.5 -68.5l-153 -92q-105 -63 -121 -116v-34h426v-62h-492
z" />
    <glyph glyph-name="three" unicode="3" horiz-adv-x="618" 
d="M407 363q49 -19 84.5 -51.5t49.5 -71.5v-112q-23 -61 -91.5 -102t-155.5 -41q-88 0 -160.5 45t-96.5 112l62 30q22 -58 74.5 -91.5t120.5 -33.5q63 0 113.5 28t67.5 73v80q-16 46 -66.5 75t-113.5 29h-65v62h65q59 0 106 27.5t64 71.5v67q-17 43 -64.5 71t-105.5 28
q-62 0 -112.5 -33t-71.5 -88l-61 31q24 65 92.5 108.5t152.5 43.5q83 0 148.5 -40t87.5 -100v-102q-14 -37 -46.5 -67.5t-77.5 -48.5z" />
    <glyph glyph-name="four" unicode="4" horiz-adv-x="638" 
d="M481 225h108v-62h-108v-163h-66v163h-366v73l338 470h94v-481zM112 225h303v421z" />
    <glyph glyph-name="five" unicode="5" horiz-adv-x="623" 
d="M316 452q86 0 153.5 -41t87.5 -104v-179q-22 -60 -91 -101.5t-155 -41.5q-88 0 -160 45t-96 112l62 30q22 -59 74.5 -92t119.5 -33q62 0 113 28.5t67 72.5v138q-16 46 -66.5 75t-113.5 29q-111 0 -172 -64l-55 18l45 362h398v-63h-346l-30 -241q61 50 165 50z" />
    <glyph glyph-name="six" unicode="6" horiz-adv-x="631" 
d="M324 456q85 0 151.5 -40.5t89.5 -101.5v-186q-23 -61 -91 -102t-155 -41t-155 41t-91 102v186q8 26 33 64l225 328h64v-22l-178 -255q44 27 107 27zM499 149v144q-18 45 -68 73.5t-112 28.5t-112 -28.5t-68 -73.5v-144q18 -45 68 -73.5t112 -28.5t112 28.5t68 73.5z" />
    <glyph glyph-name="seven" unicode="7" horiz-adv-x="552" 
d="M117 0v20l258 463q59 106 68 136v25h-410v62h473v-103q-4 -15 -12 -32t-15 -30t-23 -41t-26 -46l-251 -454h-62z" />
    <glyph glyph-name="eight" unicode="8" horiz-adv-x="638" 
d="M449 368q88 -39 116 -109v-139q-23 -58 -91 -96.5t-155 -38.5t-155 38.5t-91 96.5v139q28 70 116 109q-75 37 -102 105v113q22 58 86 96.5t146 38.5t146 -38.5t86 -96.5v-113q-27 -68 -102 -105zM152 485q17 -40 63.5 -65t103.5 -25t103.5 25t63.5 65v83q-17 41 -63 66
t-104 25t-104 -25t-63 -66v-83zM499 143v104q-18 40 -68 65t-112 25t-112 -25t-68 -65v-104q18 -43 68 -69.5t112 -26.5t112 26.5t68 69.5z" />
    <glyph glyph-name="nine" unicode="9" horiz-adv-x="631" 
d="M312 721q87 0 155 -41t91 -102v-186q-8 -26 -33 -64l-225 -328h-61v22l179 257q-44 -29 -110 -29q-85 0 -152 41t-90 101v186q23 61 91 102t155 41zM492 413v144q-18 45 -68 73.5t-112 28.5t-112 -28.5t-68 -73.5v-144q18 -45 68 -73.5t112 -28.5t112 28.5t68 73.5z" />
    <glyph glyph-name="colon" unicode=":" horiz-adv-x="255" 
d="M128 426q-38 0 -50 30v38q12 30 50 30q36 0 49 -28v-42q-13 -28 -49 -28zM128 -8q-38 0 -50 30v38q12 30 50 30q36 0 49 -28v-42q-13 -28 -49 -28z" />
    <glyph glyph-name="semicolon" unicode=";" horiz-adv-x="259" 
d="M128 426q-38 0 -50 30v38q12 30 50 30q36 0 49 -28v-42q-13 -28 -49 -28zM130 90q38 0 51 -28v-46l-60 -143h-43v10l45 110q-35 2 -45 29v38q12 30 52 30z" />
    <glyph glyph-name="less" unicode="&#x3c;" 
d="M592 572v-64l-460 -155l460 -156v-64l-540 190v59z" />
    <glyph glyph-name="equal" unicode="=" 
d="M52 433v59h540v-59h-540zM52 213v59h540v-59h-540z" />
    <glyph glyph-name="greater" unicode="&#x3e;" 
d="M52 572l540 -190v-59l-540 -190v64l460 156l-460 155v64z" />
    <glyph glyph-name="question" unicode="?" horiz-adv-x="522" 
d="M207 160v67q10 32 50 71l69 66q73 69 90 116v75q-15 42 -58.5 68.5t-99.5 26.5q-62 0 -109.5 -31t-68.5 -88l-60 30q24 68 89.5 111t148.5 43q80 0 142 -40t82 -98v-116q-12 -47 -113 -143l-62 -60q-31 -31 -37 -49v-49h-63zM240 -8q-38 0 -50 30v38q12 30 50 30
q36 0 49 -28v-42q-13 -28 -49 -28z" />
    <glyph glyph-name="at" unicode="@" horiz-adv-x="1056" 
d="M528 721q154 0 280 -79t163 -200v-292q-13 -46 -55 -75.5t-97 -29.5q-44 0 -82 19t-56 49q-57 -77 -170 -77q-75 0 -133 39.5t-78 100.5v175q20 61 78 100.5t133 39.5q102 0 159 -64v51h63v-329q7 -22 30 -36.5t56 -14.5q35 0 59 16.5t33 41.5v267q-28 104 -140 172.5
t-243 68.5q-85 0 -166 -30.5t-139 -86t-76 -124.5v-310q27 -104 138.5 -172.5t242.5 -68.5q168 0 274 78l29 -53q-118 -82 -303 -82q-154 0 -280 79t-163 200v348q37 121 163 200t280 79zM516 99q53 0 94.5 24t57.5 62v157q-16 39 -57 62.5t-95 23.5q-55 0 -96.5 -28
t-54.5 -71v-131q13 -43 54 -71t97 -28z" />
    <glyph glyph-name="A" unicode="A" horiz-adv-x="717" 
d="M402 706l282 -685v-21h-64l-78 193h-368l-78 -193h-63v20l282 686h87zM200 256h316l-158 390z" />
    <glyph glyph-name="B" unicode="B" horiz-adv-x="679" 
d="M489 370q42 -16 73 -44.5t43 -63.5v-128q-18 -57 -75 -95.5t-129 -38.5h-298v706h279q72 0 129 -38.5t75 -95.5v-106q-22 -61 -97 -96zM380 644h-209v-250h209q47 0 86 24.5t52 64.5v71q-14 40 -52 65t-86 25zM537 152v92q-13 40 -52 64.5t-86 24.5h-228v-271h228
q48 0 86 25t52 65z" />
    <glyph glyph-name="C" unicode="C" horiz-adv-x="767" 
d="M403 48q91 0 160 46t97 117l63 -29q-37 -92 -123.5 -144.5t-196.5 -52.5q-118 0 -211 64.5t-122 164.5v278q29 100 122 164.5t211 64.5q110 0 196.5 -52.5t123.5 -144.5l-63 -29q-28 71 -97 117t-160 46q-92 0 -168.5 -53.5t-96.5 -134.5v-234q20 -81 96.5 -134.5
t168.5 -53.5z" />
    <glyph glyph-name="D" unicode="D" horiz-adv-x="761" 
d="M348 706q120 0 216.5 -66.5t126.5 -167.5v-238q-30 -101 -126.5 -167.5t-216.5 -66.5h-245v706h245zM623 254v198q-21 81 -100.5 136t-174.5 55h-177v-580h177q95 0 174.5 55t100.5 136z" />
    <glyph glyph-name="E" unicode="E" horiz-adv-x="642" 
d="M566 643h-395v-254h360v-63h-360v-263h395v-63h-463v706h463v-63z" />
    <glyph glyph-name="F" unicode="F" horiz-adv-x="609" 
d="M542 643h-371v-267h352v-63h-352v-313h-68v706h439v-63z" />
    <glyph glyph-name="G" unicode="G" horiz-adv-x="808" 
d="M380 362h362v-176q-36 -86 -125.5 -143.5t-205.5 -57.5q-120 0 -215.5 64.5t-125.5 164.5v278q30 100 125.5 164.5t215.5 64.5q110 0 200.5 -54.5t128.5 -143.5l-64 -29q-29 72 -103.5 118t-161.5 46q-95 0 -173.5 -53.5t-99.5 -134.5v-234q21 -81 99.5 -134.5
t173.5 -53.5q90 0 164 47t99 112v92h-294v63z" />
    <glyph glyph-name="H" unicode="H" horiz-adv-x="768" 
d="M597 706h68v-706h-68v326h-426v-326h-68v706h68v-317h426v317z" />
    <glyph glyph-name="I" unicode="I" horiz-adv-x="280" 
d="M106 0v706h68v-706h-68z" />
    <glyph glyph-name="J" unicode="J" horiz-adv-x="543" 
d="M234 -15q-78 0 -136.5 36.5t-82.5 93.5l59 32q20 -43 61 -71t99 -28q57 0 93.5 26t50.5 66v566h68v-587q-25 -62 -79 -98t-133 -36z" />
    <glyph glyph-name="K" unicode="K" horiz-adv-x="691" 
d="M376 425l288 -405v-20h-67l-269 379l-157 -148v-231h-68v706h68v-393l408 393h69v-20z" />
    <glyph glyph-name="L" unicode="L" horiz-adv-x="601" 
d="M171 63h394v-63h-462v706h68v-643z" />
    <glyph glyph-name="M" unicode="M" horiz-adv-x="940" 
d="M734 706h103v-706h-66v640l-274 -532h-54l-274 532v-640h-66v706h103l264 -517z" />
    <glyph glyph-name="N" unicode="N" horiz-adv-x="764" 
d="M595 706h66v-706h-67l-425 619v-619h-66v706h84l408 -592v592z" />
    <glyph glyph-name="O" unicode="O" horiz-adv-x="826" 
d="M413 -15q-121 0 -217 64.5t-126 164.5v278q30 100 126 164.5t217 64.5t217 -64.5t126 -164.5v-278q-30 -100 -126 -164.5t-217 -64.5zM413 48q95 0 174.5 53.5t100.5 134.5v234q-21 81 -100.5 134.5t-174.5 53.5t-174.5 -53.5t-100.5 -134.5v-234q21 -81 100.5 -134.5
t174.5 -53.5z" />
    <glyph glyph-name="P" unicode="P" horiz-adv-x="651" 
d="M377 706q77 0 139 -39.5t82 -98.5v-155q-20 -59 -82 -98.5t-139 -39.5h-206v-275h-68v706h274zM530 432v117q-16 41 -59.5 67.5t-95.5 26.5h-204v-305h204q52 0 95.5 26.5t59.5 67.5z" />
    <glyph glyph-name="Q" unicode="Q" horiz-adv-x="826" 
d="M756 214q-28 -95 -120 -161l59 -81v-20h-62l-51 70q-79 -37 -169 -37q-121 0 -217 64.5t-126 164.5v278q30 100 126 164.5t217 64.5t217 -64.5t126 -164.5v-278zM542 76l-101 139v20h62l93 -128q73 53 92 129v234q-21 81 -100.5 134.5t-174.5 53.5t-174.5 -53.5
t-100.5 -134.5v-234q21 -81 100.5 -134.5t174.5 -53.5q68 0 129 28z" />
    <glyph glyph-name="R" unicode="R" horiz-adv-x="689" 
d="M442 300l190 -280v-20h-64l-197 292h-200v-292h-68v706h275q77 0 139 -39.5t82 -98.5v-138q-15 -46 -57.5 -81t-99.5 -49zM171 643v-288h205q52 0 95.5 26.5t59.5 67.5v100q-16 41 -59.5 67.5t-95.5 26.5h-205z" />
    <glyph glyph-name="S" unicode="S" horiz-adv-x="640" 
d="M322 -15q-93 0 -166 44.5t-99 112.5l62 32q25 -58 78.5 -92.5t124.5 -34.5q65 0 114.5 28t68.5 73v75q-25 60 -100 85q-36 12 -94 20.5t-99 22.5q-109 37 -139 124v103q25 64 93 103.5t153 39.5q88 0 158.5 -42.5t96.5 -112.5l-62 -31q-23 57 -74.5 90.5t-119.5 33.5
q-62 0 -110 -27t-67 -73v-66q23 -57 98 -82q36 -12 94 -20.5t99 -22.5q110 -37 141 -126v-114q-24 -63 -93.5 -103t-157.5 -40z" />
    <glyph glyph-name="T" unicode="T" horiz-adv-x="659" 
d="M624 706v-63h-260v-643h-68v643h-261v63h589z" />
    <glyph glyph-name="U" unicode="U" horiz-adv-x="734" 
d="M367 -15q-97 0 -170 40.5t-100 100.5v580h68v-558q19 -43 74.5 -71.5t127.5 -28.5t127.5 28.5t74.5 71.5v558h68v-580q-27 -60 -100 -100.5t-170 -40.5z" />
    <glyph glyph-name="V" unicode="V" horiz-adv-x="714" 
d="M618 706h63v-20l-283 -686h-82l-283 685v21h64l261 -637z" />
    <glyph glyph-name="W" unicode="W" horiz-adv-x="1065" 
d="M962 706h62v-20l-212 -686h-84l-196 627l-195 -627h-84l-212 685v21h64l191 -635l197 635h81l196 -635z" />
    <glyph glyph-name="X" unicode="X" horiz-adv-x="647" 
d="M39 0v20l239 333l-239 333v20h65l220 -308l219 308h65v-20l-239 -333l239 -333v-20h-65l-219 308l-221 -308h-64z" />
    <glyph glyph-name="Y" unicode="Y" horiz-adv-x="647" 
d="M614 706v-20l-256 -400v-286h-68v285l-257 401v20h65l226 -355l224 355h66z" />
    <glyph glyph-name="Z" unicode="Z" horiz-adv-x="689" 
d="M623 706v-61l-473 -582h473v-63h-557v61l473 582h-465v63h549z" />
    <glyph glyph-name="bracketleft" unicode="[" horiz-adv-x="401" 
d="M103 -138v868h253v-54h-188v-760h188v-54h-253z" />
    <glyph glyph-name="backslash" unicode="\" horiz-adv-x="393" 
d="M38 721v9h57l270 -821v-9h-57z" />
    <glyph glyph-name="bracketright" unicode="]" horiz-adv-x="401" 
d="M298 -138h-253v54h188v760h-188v54h253v-868z" />
    <glyph glyph-name="asciicircum" unicode="^" 
d="M65 305v45l237 356h57l236 -356v-45h-43l-222 331l-222 -331h-43z" />
    <glyph glyph-name="underscore" unicode="_" horiz-adv-x="605" 
d="M-5 -166v52h615v-52h-615z" />
    <glyph glyph-name="grave" unicode="`" horiz-adv-x="250" 
d="M142 610l-92 117v18h79l66 -126v-9h-53z" />
    <glyph glyph-name="a" unicode="a" horiz-adv-x="590" 
d="M287 535q77 0 136.5 -37.5t82.5 -93.5v-404h-62v59q-65 -73 -174 -73q-69 0 -122.5 27t-76.5 70v110q38 85 206 106q82 11 119 19.5t46 22.5v43q-16 38 -57 63.5t-98 25.5t-104.5 -30.5t-66.5 -78.5l-57 29q26 61 89 101.5t139 40.5zM442 128v157q-24 -24 -153 -42
q-127 -17 -155 -72v-65q41 -60 142 -60q56 0 100 22.5t66 59.5z" />
    <glyph glyph-name="b" unicode="b" 
d="M337 535q87 0 154 -48t89 -123v-207q-22 -75 -89.5 -123.5t-153.5 -48.5q-117 0 -187 83v-68h-62v730h64v-276q69 81 185 81zM516 176v168q-14 55 -65.5 92t-118.5 37q-60 0 -108.5 -28t-71.5 -73v-224q23 -45 71.5 -73t108.5 -28q67 0 118.5 37t65.5 92z" />
    <glyph glyph-name="c" unicode="c" horiz-adv-x="583" 
d="M312 -15q-90 0 -158 48.5t-90 123.5v207q22 75 90 123t158 48q81 0 145 -40.5t91 -106.5l-60 -26q-20 49 -67.5 80t-108.5 31q-68 0 -119 -37t-65 -92v-168q14 -55 65.5 -92t118.5 -37q61 0 108.5 31.5t67.5 80.5l60 -27q-27 -66 -91 -106.5t-145 -40.5z" />
    <glyph glyph-name="d" unicode="d" 
d="M492 730h64v-730h-62v68q-70 -83 -187 -83q-86 0 -153.5 48.5t-89.5 123.5v207q22 75 89 123t154 48q116 0 185 -81v276zM492 148v224q-23 45 -71.5 73t-108.5 28q-67 0 -118.5 -37t-65.5 -92v-168q14 -55 65.5 -92t118.5 -37q60 0 108.5 28t71.5 73z" />
    <glyph glyph-name="e" unicode="e" horiz-adv-x="611" 
d="M491 163l61 -28q-30 -69 -94 -109.5t-147 -40.5q-87 0 -156 49t-91 123v207q21 75 88.5 123t154.5 48q86 0 153 -48t89 -123v-117h-421v-71q14 -55 65.5 -92t117.5 -37t112 31t68 85zM307 474q-65 0 -116 -37t-63 -92v-42h357v42q-13 55 -63 92t-115 37z" />
    <glyph glyph-name="f" unicode="f" horiz-adv-x="387" 
d="M316 684q-48 0 -74.5 -15t-40.5 -47v-102h156v-56h-156v-464h-64v464h-111v56h111v127q44 98 169 98q35 0 61 -7v-54h-51z" />
    <glyph glyph-name="g" unicode="g" horiz-adv-x="642" 
d="M494 520h62v-538q-23 -73 -90 -119t-156 -46q-87 0 -152.5 39.5t-92.5 107.5l62 27q20 -52 67 -82t116 -30q68 0 118 34t64 88v110q-69 -80 -185 -80q-86 0 -152.5 47t-88.5 120v171q22 73 88.5 119.5t152.5 46.5q119 0 187 -81v66zM314 93q60 0 109 30.5t69 77.5v165
q-20 47 -69 77t-109 30q-67 0 -118 -35.5t-66 -88.5v-131q15 -54 66 -89.5t118 -35.5z" />
    <glyph glyph-name="h" unicode="h" horiz-adv-x="616" 
d="M319 535q75 0 132.5 -36t80.5 -93v-406h-64v384q-18 41 -59 65t-100 24q-58 0 -102 -27t-55 -66v-380h-64v730h64v-264q62 69 167 69z" />
    <glyph glyph-name="i" unicode="i" horiz-adv-x="244" 
d="M122 632q-36 0 -50 27v44q14 27 50 27t50 -27v-44q-14 -27 -50 -27zM90 0v520h64v-520h-64z" />
    <glyph glyph-name="j" unicode="j" horiz-adv-x="244" 
d="M122 632q-36 0 -50 27v44q14 27 50 27t50 -27v-44q-14 -27 -50 -27zM-17 -176v66q38 10 67.5 41.5t39.5 69.5v519h64v-535q-15 -57 -60 -102t-111 -59z" />
    <glyph glyph-name="k" unicode="k" horiz-adv-x="559" 
d="M318 312l217 -292v-20h-61l-201 270l-121 -112v-158h-64v730h64v-498l304 288h65v-19z" />
    <glyph glyph-name="l" unicode="l" horiz-adv-x="240" 
d="M88 0v730h64v-730h-64z" />
    <glyph glyph-name="m" unicode="m" horiz-adv-x="942" 
d="M658 535q69 0 124 -35t76 -86v-414h-64v392q-16 36 -54.5 58.5t-90.5 22.5q-53 0 -93.5 -25.5t-50.5 -59.5v-388h-64v392q-16 36 -54.5 58.5t-90.5 22.5q-53 0 -93 -25.5t-51 -59.5v-388h-64v520h62v-56q57 71 155 71q56 0 102.5 -22.5t75.5 -60.5q62 83 175 83z" />
    <glyph glyph-name="n" unicode="n" horiz-adv-x="616" 
d="M319 535q75 0 132.5 -36t80.5 -93v-406h-64v384q-18 41 -59 65t-100 24q-58 0 -102 -27t-55 -66v-380h-64v520h62v-56q63 71 169 71z" />
    <glyph glyph-name="o" unicode="o" horiz-adv-x="634" 
d="M317 -15q-90 0 -160 48.5t-93 123.5v207q23 74 93 122.5t160 48.5t160 -48.5t93 -122.5v-207q-23 -75 -93 -123.5t-160 -48.5zM317 47q67 0 121 37t68 92v168q-14 55 -68 92t-121 37t-121 -37t-68 -92v-168q14 -55 68 -92t121 -37z" />
    <glyph glyph-name="p" unicode="p" 
d="M337 535q87 0 154 -48t89 -123v-207q-22 -75 -89.5 -123.5t-153.5 -48.5q-116 0 -185 82v-237h-64v690h62v-68q68 83 187 83zM516 176v168q-14 55 -65.5 92t-118.5 37q-60 0 -109 -28t-71 -73v-224q22 -45 71 -73t109 -28q67 0 118.5 37t65.5 92z" />
    <glyph glyph-name="q" unicode="q" horiz-adv-x="643" 
d="M494 520h62v-690h-64v237q-69 -82 -185 -82q-86 0 -153.5 48.5t-89.5 123.5v207q22 75 89 123t154 48q119 0 187 -83v68zM312 47q60 0 109 28t71 73v224q-22 45 -71 73t-109 28q-67 0 -118.5 -37t-65.5 -92v-168q14 -55 65.5 -92t118.5 -37z" />
    <glyph glyph-name="r" unicode="r" horiz-adv-x="362" 
d="M297 525q26 0 41 -5v-61h-33q-63 0 -103 -30t-50 -68v-361h-64v520h62v-79q20 37 58.5 60.5t88.5 23.5z" />
    <glyph glyph-name="s" unicode="s" horiz-adv-x="508" 
d="M256 -15q-71 0 -129 34t-78 86l56 29q18 -40 58.5 -64t92.5 -24q48 0 83 18.5t48 49.5v50q-14 36 -73 56q-26 9 -70.5 15.5t-73.5 15.5q-86 27 -109 93v81q17 48 70.5 79t121.5 31q70 0 125 -33t75 -85l-57 -28q-42 85 -145 85q-47 0 -81.5 -18t-45.5 -48v-46
q13 -36 71 -56q26 -9 71.5 -15.5t74.5 -15.5q85 -26 109 -94v-86q-18 -48 -72 -79t-122 -31z" />
    <glyph glyph-name="t" unicode="t" horiz-adv-x="401" 
d="M309 -7q-124 0 -172 98v373h-111v56h71q33 0 40 21v144h64v-165h161v-56h-161v-347q14 -32 40.5 -47t75.5 -15h49v-55q-23 -7 -57 -7z" />
    <glyph glyph-name="u" unicode="u" horiz-adv-x="613" 
d="M461 520h64v-520h-62v58q-60 -73 -168 -73q-75 0 -132 37t-79 95v403h64v-382q17 -42 57.5 -66.5t99.5 -24.5q57 0 101 28t55 67v378z" />
    <glyph glyph-name="v" unicode="v" horiz-adv-x="540" 
d="M450 520h60v-18l-203 -502h-75l-202 502v18h61l180 -453z" />
    <glyph glyph-name="w" unicode="w" horiz-adv-x="856" 
d="M755 520h61v-18l-168 -502h-73l-147 429l-148 -429h-73l-167 502v18h61l145 -445l152 445h59l154 -446z" />
    <glyph glyph-name="x" unicode="x" horiz-adv-x="512" 
d="M36 0v20l177 241l-177 239v20h61l160 -217l158 217h61v-20l-177 -239l177 -241v-20h-61l-158 217l-160 -217h-61z" />
    <glyph glyph-name="y" unicode="y" horiz-adv-x="536" 
d="M446 520h60v-18l-300 -672h-59v20l84 188l-201 464v18h62l173 -406z" />
    <glyph glyph-name="z" unicode="z" horiz-adv-x="524" 
d="M471 520v-56l-337 -404h337v-60h-418v56l337 404h-333v60h414z" />
    <glyph glyph-name="braceleft" unicode="{" horiz-adv-x="400" 
d="M355 -138q-160 0 -212 140v202q0 33 -21.5 50t-51.5 17v50q30 0 51.5 17t21.5 50v202q52 140 212 140v-46q-54 0 -92.5 -28.5t-54.5 -71.5v-204q-17 -67 -73 -84q56 -17 73 -84v-204q16 -43 54.5 -71.5t92.5 -28.5v-46z" />
    <glyph glyph-name="bar" unicode="|" horiz-adv-x="473" 
d="M206 -100v906h61v-906h-61z" />
    <glyph glyph-name="braceright" unicode="}" horiz-adv-x="375" 
d="M45 -138v46q54 0 92.5 28.5t54.5 71.5v204q17 67 73 84q-56 17 -73 84v204q-16 43 -54.5 71.5t-92.5 28.5v46q160 0 212 -140v-202q0 -33 21.5 -50t51.5 -17v-50q-30 0 -51.5 -17t-21.5 -50v-202q-52 -140 -212 -140z" />
    <glyph glyph-name="asciitilde" unicode="~" 
d="M61 312v62q6 5 17 12.5t47 20.5t74 13q50 0 137.5 -25.5t130.5 -25.5q29 0 57 11t42 22l13 11v-67q-42 -34 -111 -34q-53 0 -139 25.5t-132 25.5q-35 0 -69 -12.5t-50 -25.5z" />
    <glyph glyph-name="uni00A0" unicode="&#xa0;" horiz-adv-x="260" 
 />
    <glyph glyph-name="exclamdown" unicode="&#xa1;" horiz-adv-x="287" 
d="M143 543q38 0 50 -30v-38q-12 -30 -50 -30q-36 0 -49 28v42q13 28 49 28zM165 370l12 -158v-383h-68v383l12 158h44z" />
    <glyph glyph-name="cent" unicode="&#xa2;" 
d="M359 48q54 6 95 36t59 75l60 -27q-26 -61 -83.5 -101t-130.5 -45v-86h-54v87q-79 8 -137.5 55t-78.5 115v207q20 68 78.5 114.5t137.5 54.5v103h54v-102q73 -5 130.5 -45t83.5 -101l-60 -26q-18 44 -59.5 74t-94.5 36v-424zM153 176q12 -48 53.5 -83t98.5 -44v422
q-57 -9 -98.5 -44t-53.5 -83v-168z" />
    <glyph glyph-name="sterling" unicode="&#xa3;" 
d="M156 62h433v-62h-546v52q60 0 81 63v187h-81v55h81v224q21 61 82 100.5t140 39.5q80 0 142.5 -38.5t85.5 -101.5l-62 -31q-19 50 -63.5 79t-103.5 29q-55 0 -97 -26.5t-58 -71.5v-203h243v-55h-243v-194q-9 -28 -34 -46z" />
    <glyph glyph-name="currency" unicode="&#xa4;" 
d="M555 238q-12 -40 -42 -73l83 -83l-39 -40l-86 85q-63 -42 -138 -42q-77 0 -141 44l-88 -87l-39 40l85 85q-28 33 -40 71v137q12 39 41 73l-86 86l39 39l88 -88q62 43 141 43q76 0 137 -42l87 87l39 -39l-84 -84q29 -32 43 -75v-137zM170 256q11 -47 58 -80t105 -33
q57 0 104 33t58 80v102q-11 47 -57.5 79.5t-104.5 32.5q-57 0 -103.5 -32t-59.5 -80v-102z" />
    <glyph glyph-name="yen" unicode="&#xa5;" 
d="M577 706v-20l-209 -332h150v-49h-174v-88h174v-49h-174v-168h-66v168h-174v49h174v88h-174v49h149l-207 332v20h63l203 -327l201 327h64z" />
    <glyph glyph-name="brokenbar" unicode="&#xa6;" horiz-adv-x="473" 
d="M206 420v386h61v-386h-61zM206 -100v386h61v-386h-61z" />
    <glyph glyph-name="section" unicode="&#xa7;" horiz-adv-x="584" 
d="M514 238q-23 -58 -93 -87q53 -30 70 -78v-82q-18 -49 -72.5 -80.5t-124.5 -31.5q-71 0 -129 34t-78 86l58 29q45 -87 150 -87q49 0 84.5 18.5t47.5 49.5v46q-15 37 -74 57q-26 8 -82.5 19t-87.5 21q-87 28 -113 96v138q23 58 93 87q-53 30 -70 78v82q17 49 72 80.5
t125 31.5q71 0 129 -34t78 -86l-58 -29q-45 87 -150 87q-49 0 -84.5 -18.5t-47.5 -49.5v-46q15 -37 74 -57q26 -8 82.5 -19t87.5 -21q87 -28 113 -96v-138zM450 257v101q-16 38 -76 58q-18 6 -38.5 10.5t-47 10t-40.5 8.5q-42 -4 -72 -25t-42 -53v-101q16 -38 76 -58
q18 -6 38.5 -10.5t47 -10t40.5 -8.5q42 4 72 25t42 53z" />
    <glyph glyph-name="dieresis" unicode="&#xa8;" horiz-adv-x="410" 
d="M100 632q-36 0 -50 27v44q14 27 50 27t50 -27v-44q-14 -27 -50 -27zM310 632q-36 0 -50 27v44q14 27 50 27t50 -27v-44q-14 -27 -50 -27z" />
    <glyph glyph-name="copyright" unicode="&#xa9;" horiz-adv-x="846" 
d="M423 -15q-124 0 -223 62.5t-130 156.5v298q31 94 130 156.5t223 62.5t223 -62.5t130 -156.5v-298q-31 -94 -130 -156.5t-223 -62.5zM423 35q107 0 193.5 52.5t108.5 132.5v266q-22 80 -108.5 132.5t-193.5 52.5t-193.5 -52.5t-108.5 -132.5v-266q22 -80 108.5 -132.5
t193.5 -52.5zM427 136q-78 0 -137 40.5t-79 103.5v146q20 63 79 103.5t137 40.5q71 0 126.5 -33.5t80.5 -89.5l-59 -25q-16 39 -56.5 64t-91.5 25q-56 0 -99 -29.5t-54 -73.5v-110q11 -44 54 -73.5t99 -29.5q51 0 91.5 25t56.5 64l59 -25q-25 -56 -80.5 -89.5t-126.5 -33.5z
" />
    <glyph glyph-name="ordfeminine" unicode="&#xaa;" horiz-adv-x="402" 
d="M196 713q49 0 87 -23.5t52 -58.5v-246h-53v34q-38 -43 -100 -43q-43 0 -76 16.5t-47 42.5v71q26 53 125 65q87 10 96 23v22q-9 19 -31 32.5t-53 13.5t-57 -17t-37 -42l-50 23q16 38 55.5 62.5t88.5 24.5zM280 468v83q-15 -14 -86 -24q-65 -10 -80 -37v-35q22 -30 76 -30
q62 0 90 43z" />
    <glyph glyph-name="guillemotleft" unicode="&#xab;" horiz-adv-x="612" 
d="M261 70l-191 199v32l191 199h41v-38l-172 -177l172 -177v-38h-41zM491 70l-191 199v32l191 199h41v-38l-172 -177l172 -177v-38h-41z" />
    <glyph glyph-name="logicalnot" unicode="&#xac;" 
d="M533 83v240h-481v59h540v-299h-59z" />
    <glyph glyph-name="registered" unicode="&#xae;" horiz-adv-x="520" 
d="M260 745q77 0 138 -38.5t82 -97.5v-180q-21 -59 -82 -97.5t-138 -38.5t-138 38.5t-82 97.5v180q21 59 82 97.5t138 38.5zM442 441v156q-17 48 -68 79.5t-114 31.5t-114 -31.5t-68 -79.5v-156q17 -48 68 -79.5t114 -31.5t114 31.5t68 79.5zM358 545q-11 -32 -50 -47
l63 -90v-8h-42l-63 92h-56v-92h-42v247h105q30 0 53.5 -15t31.5 -38v-49zM210 611v-83h60q34 0 46 24v34q-10 25 -46 25h-60z" />
    <glyph glyph-name="macron" unicode="&#xaf;" horiz-adv-x="384" 
d="M50 637v56h284v-56h-284z" />
    <glyph glyph-name="degree" unicode="&#xb0;" horiz-adv-x="482" 
d="M241 364q-63 0 -113.5 31t-67.5 75v145q17 44 67.5 75t113.5 31t113.5 -31t67.5 -75v-145q-17 -44 -67.5 -75t-113.5 -31zM241 417q45 0 78.5 19t46.5 49v115q-13 29 -47 48.5t-78 19.5t-78 -19.5t-47 -48.5v-115q13 -30 46.5 -49t78.5 -19z" />
    <glyph glyph-name="plusminus" unicode="&#xb1;" 
d="M286 127v240h-241v59h241v240h59v-240h240v-59h-240v-240h-59zM53 59h540v-59h-540v59z" />
    <glyph glyph-name="acute" unicode="&#xb4;" horiz-adv-x="250" 
d="M50 610v9l66 126h79v-18l-92 -117h-53z" />
    <glyph glyph-name="paragraph" unicode="&#xb6;" horiz-adv-x="703" 
d="M600 706v-806h-60v750h-120v-750h-60v350h-47q-84 0 -152 44t-91 109v150q23 65 91 109t152 44h287z" />
    <glyph glyph-name="periodcentered" unicode="&#xb7;" horiz-adv-x="219" 
d="M110 266q-38 0 -50 30v38q12 30 50 30q36 0 49 -28v-42q-13 -28 -49 -28z" />
    <glyph glyph-name="cedilla" unicode="&#xb8;" horiz-adv-x="312" 
d="M171 -51q33 0 58 -16t33 -36v-61q-10 -26 -40.5 -41.5t-70.5 -15.5q-57 0 -101 26l26 42q32 -19 78 -19q47 0 56 25v32q-9 22 -56 22h-56l46 113l45 -15l-23 -56h5z" />
    <glyph glyph-name="ordmasculine" unicode="&#xba;" horiz-adv-x="431" 
d="M216 375q-57 0 -100.5 30t-58.5 75v129q15 45 58.5 74.5t100.5 29.5q56 0 99.5 -29.5t58.5 -74.5v-129q-15 -45 -58.5 -75t-99.5 -30zM216 428q37 0 65.5 19.5t36.5 47.5v99q-8 28 -36.5 47.5t-65.5 19.5q-38 0 -66.5 -19.5t-36.5 -47.5v-99q8 -28 36.5 -47.5t66.5 -19.5
z" />
    <glyph glyph-name="guillemotright" unicode="&#xbb;" horiz-adv-x="612" 
d="M121 70h-41v38l172 177l-172 177v38h41l191 -199v-32zM351 70h-41v38l172 177l-172 177v38h41l191 -199v-32z" />
    <glyph glyph-name="onequarter" unicode="&#xbc;" horiz-adv-x="902" 
d="M136 304v287h-93v47q95 3 106 68h47v-402h-60zM718 706v-8l-532 -698h-61v8l532 698h61zM799 142h61v-55h-61v-87h-61v87h-209v63l184 252h86v-260zM587 142h151v203z" />
    <glyph glyph-name="onehalf" unicode="&#xbd;" horiz-adv-x="931" 
d="M136 304v287h-93v47q95 3 106 68h47v-402h-60zM718 706v-8l-532 -698h-61v8l532 698h61zM641 56h240v-56h-301v79q14 45 97 91l83 46q47 25 56 51v42q-8 21 -32 34t-54 13q-72 0 -100 -63l-55 25q17 42 58.5 67.5t96.5 25.5q52 0 93 -24t54 -59v-80q-14 -41 -90 -82
l-82 -44q-56 -31 -64 -53v-13z" />
    <glyph glyph-name="threequarters" unicode="&#xbe;" horiz-adv-x="992" 
d="M343 378q-14 -35 -56.5 -59t-95.5 -24q-55 0 -98.5 26t-60.5 67l55 26q28 -63 104 -63q32 0 57 13t34 33v40q-8 21 -33.5 34t-57.5 13h-38v53h39q30 0 53 12t32 32v35q-9 19 -32.5 31.5t-52.5 12.5q-71 0 -98 -60l-55 25q16 40 57.5 65t95.5 25q51 0 91.5 -23.5
t53.5 -57.5v-63q-14 -37 -62 -61q53 -24 68 -64v-68zM808 706v-8l-532 -698h-61v8l532 698h61zM889 142h61v-55h-61v-87h-61v87h-209v63l184 252h86v-260zM677 142h151v203z" />
    <glyph glyph-name="questiondown" unicode="&#xbf;" horiz-adv-x="482" 
d="M282 543q38 0 50 -30v-38q-12 -30 -50 -30q-36 0 -49 28v42q13 28 49 28zM315 375v-67q-10 -32 -50 -71l-69 -66q-73 -69 -90 -116v-75q15 -42 58.5 -68.5t99.5 -26.5q62 0 109.5 31t68.5 88l60 -30q-24 -68 -89.5 -111t-148.5 -43q-80 0 -142 40t-82 98v116
q12 47 113 143l62 60q31 31 37 49v49h63z" />
    <glyph glyph-name="Agrave" unicode="&#xc0;" horiz-adv-x="717" 
d="M381 786h-53l-92 117v18h79l66 -126v-9zM402 706l282 -685v-21h-64l-78 193h-368l-78 -193h-63v20l282 686h87zM200 256h316l-158 390z" />
    <glyph glyph-name="Aacute" unicode="&#xc1;" horiz-adv-x="717" 
d="M481 903l-92 -117h-53v9l66 126h79v-18zM402 706l282 -685v-21h-64l-78 193h-368l-78 -193h-63v20l282 686h87zM200 256h316l-158 390z" />
    <glyph glyph-name="Acircumflex" unicode="&#xc2;" horiz-adv-x="717" 
d="M359 885l-87 -99h-54v10l86 125h109l86 -125v-10h-54zM402 706l282 -685v-21h-64l-78 193h-368l-78 -193h-63v20l282 686h87zM200 256h316l-158 390z" />
    <glyph glyph-name="Atilde" unicode="&#xc3;" horiz-adv-x="717" 
d="M283 841q-38 0 -48 -50l-50 17q7 37 33.5 61.5t63.5 24.5q38 0 84.5 -25.5t68.5 -25.5q38 0 48 50l50 -17q-8 -39 -33 -62.5t-64 -23.5q-35 0 -83 25.5t-70 25.5zM402 706l282 -685v-21h-64l-78 193h-368l-78 -193h-63v20l282 686h87zM200 256h316l-158 390z" />
    <glyph glyph-name="Adieresis" unicode="&#xc4;" horiz-adv-x="717" 
d="M239 789q-37 0 -50 27v44q13 27 50 27t50 -27v-44q-13 -27 -50 -27zM478 789q-36 0 -50 27v44q14 27 50 27t50 -27v-44q-14 -27 -50 -27zM402 706l282 -685v-21h-64l-78 193h-368l-78 -193h-63v20l282 686h87zM200 256h316l-158 390z" />
    <glyph glyph-name="Aring" unicode="&#xc5;" horiz-adv-x="717" 
d="M413 680l271 -659v-21h-64l-78 193h-368l-78 -193h-63v20l271 660q-56 22 -75 70v80q13 34 48 56t82 22q46 0 81.5 -22t47.5 -56v-80q-17 -50 -75 -70zM280 759q6 -16 27.5 -28t51.5 -12t50.5 12t27.5 28v61q-6 17 -27 29t-51 12t-51.5 -12t-27.5 -29v-61zM200 256h316
l-158 390z" />
    <glyph glyph-name="AE" unicode="&#xc6;" horiz-adv-x="993" 
d="M917 643h-395v-254h360v-63h-360v-263h395v-63h-463v190h-254l-105 -190h-62v20l383 686h501v-63zM235 253h219v394z" />
    <glyph glyph-name="Ccedilla" unicode="&#xc7;" horiz-adv-x="767" 
d="M403 48q91 0 160 46t97 117l63 -29q-37 -92 -123.5 -144.5t-196.5 -52.5l-15 -36h5q33 0 58 -16t33 -36v-61q-10 -26 -40.5 -41.5t-70.5 -15.5q-57 0 -101 26l26 42q32 -19 78 -19q47 0 56 25v32q-9 22 -56 22h-56l33 81q-102 14 -179.5 75.5t-103.5 150.5v278
q29 100 122 164.5t211 64.5q110 0 196.5 -52.5t123.5 -144.5l-63 -29q-28 71 -97 117t-160 46q-92 0 -168.5 -53.5t-96.5 -134.5v-234q20 -81 96.5 -134.5t168.5 -53.5z" />
    <glyph glyph-name="Egrave" unicode="&#xc8;" horiz-adv-x="642" 
d="M361 786h-53l-92 117v18h79l66 -126v-9zM566 643h-395v-254h360v-63h-360v-263h395v-63h-463v706h463v-63z" />
    <glyph glyph-name="Eacute" unicode="&#xc9;" horiz-adv-x="642" 
d="M461 903l-92 -117h-53v9l66 126h79v-18zM566 643h-395v-254h360v-63h-360v-263h395v-63h-463v706h463v-63z" />
    <glyph glyph-name="Ecircumflex" unicode="&#xca;" horiz-adv-x="642" 
d="M339 885l-87 -99h-54v10l86 125h109l86 -125v-10h-54zM566 643h-395v-254h360v-63h-360v-263h395v-63h-463v706h463v-63z" />
    <glyph glyph-name="Edieresis" unicode="&#xcb;" horiz-adv-x="642" 
d="M219 789q-37 0 -50 27v44q13 27 50 27t50 -27v-44q-13 -27 -50 -27zM458 789q-36 0 -50 27v44q14 27 50 27t50 -27v-44q-14 -27 -50 -27zM566 643h-395v-254h360v-63h-360v-263h395v-63h-463v706h463v-63z" />
    <glyph glyph-name="Igrave" unicode="&#xcc;" horiz-adv-x="280" 
d="M109 786l-92 117v18h79l66 -126v-9h-53zM106 0v706h68v-706h-68z" />
    <glyph glyph-name="Iacute" unicode="&#xcd;" horiz-adv-x="280" 
d="M117 786v9l66 126h79v-18l-92 -117h-53zM106 0v706h68v-706h-68z" />
    <glyph glyph-name="Icircumflex" unicode="&#xce;" horiz-adv-x="280" 
d="M194 921l86 -125v-10h-54l-86 99l-87 -99h-54v10l86 125h109zM106 0v706h68v-706h-68z" />
    <glyph glyph-name="Idieresis" unicode="&#xcf;" horiz-adv-x="280" 
d="M35 792q-37 0 -50 27v44q13 27 50 27t50 -27v-44q-13 -27 -50 -27zM245 792q-37 0 -50 27v44q13 27 50 27t50 -27v-44q-13 -27 -50 -27zM106 0v706h68v-706h-68z" />
    <glyph glyph-name="Eth" unicode="&#xd0;" horiz-adv-x="791" 
d="M378 706q120 0 216.5 -66.5t126.5 -167.5v-238q-30 -101 -126.5 -167.5t-216.5 -66.5h-245v325h-103v58h103v323h245zM653 254v198q-21 81 -100.5 136t-174.5 55h-177v-260h211v-58h-211v-262h177q95 0 174.5 55t100.5 136z" />
    <glyph glyph-name="Ntilde" unicode="&#xd1;" horiz-adv-x="764" 
d="M306 841q-38 0 -48 -50l-50 17q7 37 33.5 61.5t63.5 24.5q38 0 84.5 -25.5t68.5 -25.5q38 0 48 50l50 -17q-8 -39 -33 -62.5t-64 -23.5q-35 0 -83 25.5t-70 25.5zM595 706h66v-706h-67l-425 619v-619h-66v706h84l408 -592v592z" />
    <glyph glyph-name="Ograve" unicode="&#xd2;" horiz-adv-x="826" 
d="M382 786l-92 117v18h79l66 -126v-9h-53zM413 -15q-121 0 -217 64.5t-126 164.5v278q30 100 126 164.5t217 64.5t217 -64.5t126 -164.5v-278q-30 -100 -126 -164.5t-217 -64.5zM413 48q95 0 174.5 53.5t100.5 134.5v234q-21 81 -100.5 134.5t-174.5 53.5t-174.5 -53.5
t-100.5 -134.5v-234q21 -81 100.5 -134.5t174.5 -53.5z" />
    <glyph glyph-name="Oacute" unicode="&#xd3;" horiz-adv-x="826" 
d="M390 786v9l66 126h79v-18l-92 -117h-53zM413 -15q-121 0 -217 64.5t-126 164.5v278q30 100 126 164.5t217 64.5t217 -64.5t126 -164.5v-278q-30 -100 -126 -164.5t-217 -64.5zM413 48q95 0 174.5 53.5t100.5 134.5v234q-21 81 -100.5 134.5t-174.5 53.5t-174.5 -53.5
t-100.5 -134.5v-234q21 -81 100.5 -134.5t174.5 -53.5z" />
    <glyph glyph-name="Ocircumflex" unicode="&#xd4;" horiz-adv-x="826" 
d="M413 885l-87 -99h-54v10l86 125h109l86 -125v-10h-54zM413 721q121 0 217 -64.5t126 -164.5v-278q-30 -100 -126 -164.5t-217 -64.5t-217 64.5t-126 164.5v278q30 100 126 164.5t217 64.5zM688 236v234q-21 81 -100.5 134.5t-174.5 53.5t-174.5 -53.5t-100.5 -134.5v-234
q21 -81 100.5 -134.5t174.5 -53.5t174.5 53.5t100.5 134.5z" />
    <glyph glyph-name="Otilde" unicode="&#xd5;" horiz-adv-x="826" 
d="M289 791l-50 17q7 37 33.5 61.5t63.5 24.5q38 0 84.5 -25.5t68.5 -25.5q38 0 48 50l50 -17q-8 -39 -33 -62.5t-64 -23.5q-35 0 -83 25.5t-70 25.5q-38 0 -48 -50zM413 -15q-121 0 -217 64.5t-126 164.5v278q30 100 126 164.5t217 64.5t217 -64.5t126 -164.5v-278
q-30 -100 -126 -164.5t-217 -64.5zM413 48q95 0 174.5 53.5t100.5 134.5v234q-21 81 -100.5 134.5t-174.5 53.5t-174.5 -53.5t-100.5 -134.5v-234q21 -81 100.5 -134.5t174.5 -53.5z" />
    <glyph glyph-name="Odieresis" unicode="&#xd6;" horiz-adv-x="826" 
d="M293 789q-37 0 -50 27v44q13 27 50 27t50 -27v-44q-13 -27 -50 -27zM532 789q-36 0 -50 27v44q14 27 50 27t50 -27v-44q-14 -27 -50 -27zM413 -15q-121 0 -217 64.5t-126 164.5v278q30 100 126 164.5t217 64.5t217 -64.5t126 -164.5v-278q-30 -100 -126 -164.5
t-217 -64.5zM413 48q95 0 174.5 53.5t100.5 134.5v234q-21 81 -100.5 134.5t-174.5 53.5t-174.5 -53.5t-100.5 -134.5v-234q21 -81 100.5 -134.5t174.5 -53.5z" />
    <glyph glyph-name="multiply" unicode="&#xd7;" 
d="M554 543l-190 -190l190 -191l-42 -41l-190 190l-190 -190l-42 41l191 191l-191 190l42 41l190 -190l190 190z" />
    <glyph glyph-name="Oslash" unicode="&#xd8;" horiz-adv-x="826" 
d="M756 706v-20l-70 -76q51 -52 70 -118v-278q-30 -100 -126 -164.5t-217 -64.5q-130 0 -230 73l-53 -58h-60v20l70 76q-51 52 -70 118v278q30 100 126 164.5t217 64.5q130 0 230 -74l54 59h59zM138 236q12 -48 48 -89l412 450q-82 61 -185 61q-95 0 -174.5 -53.5
t-100.5 -134.5v-234zM688 470q-12 48 -48 89l-411 -451q83 -60 184 -60q95 0 174.5 53.5t100.5 134.5v234z" />
    <glyph glyph-name="Ugrave" unicode="&#xd9;" horiz-adv-x="734" 
d="M328 786l-92 117v18h79l66 -126v-9h-53zM367 -15q-97 0 -170 40.5t-100 100.5v580h68v-558q19 -43 74.5 -71.5t127.5 -28.5t127.5 28.5t74.5 71.5v558h68v-580q-27 -60 -100 -100.5t-170 -40.5z" />
    <glyph glyph-name="Uacute" unicode="&#xda;" horiz-adv-x="734" 
d="M336 786v9l66 126h79v-18l-92 -117h-53zM367 -15q-97 0 -170 40.5t-100 100.5v580h68v-558q19 -43 74.5 -71.5t127.5 -28.5t127.5 28.5t74.5 71.5v558h68v-580q-27 -60 -100 -100.5t-170 -40.5z" />
    <glyph glyph-name="Ucircumflex" unicode="&#xdb;" horiz-adv-x="734" 
d="M359 885l-87 -99h-54v10l86 125h109l86 -125v-10h-54zM569 706h68v-580q-27 -60 -100 -100.5t-170 -40.5t-170 40.5t-100 100.5v580h68v-558q19 -43 74.5 -71.5t127.5 -28.5t127.5 28.5t74.5 71.5v558z" />
    <glyph glyph-name="Udieresis" unicode="&#xdc;" horiz-adv-x="734" 
d="M239 789q-37 0 -50 27v44q13 27 50 27t50 -27v-44q-13 -27 -50 -27zM478 789q-36 0 -50 27v44q14 27 50 27t50 -27v-44q-14 -27 -50 -27zM367 -15q-97 0 -170 40.5t-100 100.5v580h68v-558q19 -43 74.5 -71.5t127.5 -28.5t127.5 28.5t74.5 71.5v558h68v-580
q-27 -60 -100 -100.5t-170 -40.5z" />
    <glyph glyph-name="Yacute" unicode="&#xdd;" horiz-adv-x="647" 
d="M446 903l-92 -117h-53v9l66 126h79v-18zM614 706v-20l-256 -400v-286h-68v285l-257 401v20h65l226 -355l224 355h66z" />
    <glyph glyph-name="Thorn" unicode="&#xde;" horiz-adv-x="643" 
d="M369 584q77 0 139 -39.5t82 -98.5v-153q-20 -59 -82 -98.5t-139 -39.5h-198v-155h-68v706h68v-122h198zM522 312v115q-16 41 -58.5 67.5t-94.5 26.5h-198v-303h198q52 0 94.5 26.5t58.5 67.5z" />
    <glyph glyph-name="germandbls" unicode="&#xdf;" horiz-adv-x="601" 
d="M414 384q48 -17 83 -49.5t49 -71.5v-125q-23 -60 -90.5 -100t-153.5 -40q-22 0 -50 2v60h50q64 0 113.5 27.5t66.5 71.5v90q-16 46 -64.5 74t-110.5 28h-26v58h26q51 0 91 26.5t54 70.5v66q-14 38 -55.5 62.5t-94.5 24.5t-94.5 -24.5t-55.5 -62.5v-572h-64v591
q21 55 80 92t134 37t134 -37t80 -92v-97q-24 -72 -102 -110z" />
    <glyph glyph-name="agrave" unicode="&#xe0;" horiz-adv-x="590" 
d="M315 610h-53l-92 117v18h79l66 -126v-9zM287 535q77 0 136.5 -37.5t82.5 -93.5v-404h-62v59q-65 -73 -174 -73q-69 0 -122.5 27t-76.5 70v110q38 85 206 106q82 11 119 19.5t46 22.5v43q-16 38 -57 63.5t-98 25.5t-104.5 -30.5t-66.5 -78.5l-57 29q26 61 89 101.5
t139 40.5zM442 128v157q-24 -24 -153 -42q-127 -17 -155 -72v-65q41 -60 142 -60q56 0 100 22.5t66 59.5z" />
    <glyph glyph-name="aacute" unicode="&#xe1;" horiz-adv-x="590" 
d="M415 727l-92 -117h-53v9l66 126h79v-18zM287 535q77 0 136.5 -37.5t82.5 -93.5v-404h-62v59q-65 -73 -174 -73q-69 0 -122.5 27t-76.5 70v110q38 85 206 106q82 11 119 19.5t46 22.5v43q-16 38 -57 63.5t-98 25.5t-104.5 -30.5t-66.5 -78.5l-57 29q26 61 89 101.5
t139 40.5zM442 128v157q-24 -24 -153 -42q-127 -17 -155 -72v-65q41 -60 142 -60q56 0 100 22.5t66 59.5z" />
    <glyph glyph-name="acircumflex" unicode="&#xe2;" horiz-adv-x="590" 
d="M293 709l-87 -99h-54v10l86 125h109l86 -125v-10h-54zM287 535q77 0 136.5 -37.5t82.5 -93.5v-404h-62v59q-65 -73 -174 -73q-69 0 -122.5 27t-76.5 70v110q38 85 206 106q82 11 119 19.5t46 22.5v43q-16 38 -57 63.5t-98 25.5t-104.5 -30.5t-66.5 -78.5l-57 29
q26 61 89 101.5t139 40.5zM442 128v157q-24 -24 -153 -42q-127 -17 -155 -72v-65q41 -60 142 -60q56 0 100 22.5t66 59.5z" />
    <glyph glyph-name="atilde" unicode="&#xe3;" horiz-adv-x="590" 
d="M217 665q-38 0 -48 -50l-50 17q7 37 33.5 61.5t63.5 24.5q38 0 84.5 -25.5t68.5 -25.5q38 0 48 50l50 -17q-8 -39 -33 -62.5t-64 -23.5q-35 0 -83 25.5t-70 25.5zM287 535q77 0 136.5 -37.5t82.5 -93.5v-404h-62v59q-65 -73 -174 -73q-69 0 -122.5 27t-76.5 70v110
q38 85 206 106q82 11 119 19.5t46 22.5v43q-16 38 -57 63.5t-98 25.5t-104.5 -30.5t-66.5 -78.5l-57 29q26 61 89 101.5t139 40.5zM442 128v157q-24 -24 -153 -42q-127 -17 -155 -72v-65q41 -60 142 -60q56 0 100 22.5t66 59.5z" />
    <glyph glyph-name="adieresis" unicode="&#xe4;" horiz-adv-x="590" 
d="M188 632q-36 0 -50 27v44q14 27 50 27t50 -27v-44q-14 -27 -50 -27zM398 632q-36 0 -50 27v44q14 27 50 27t50 -27v-44q-14 -27 -50 -27zM287 535q77 0 136.5 -37.5t82.5 -93.5v-404h-62v59q-65 -73 -174 -73q-69 0 -122.5 27t-76.5 70v110q38 85 206 106q82 11 119 19.5
t46 22.5v43q-16 38 -57 63.5t-98 25.5t-104.5 -30.5t-66.5 -78.5l-57 29q26 61 89 101.5t139 40.5zM442 128v157q-24 -24 -153 -42q-127 -17 -155 -72v-65q41 -60 142 -60q56 0 100 22.5t66 59.5z" />
    <glyph glyph-name="aring" unicode="&#xe5;" horiz-adv-x="590" 
d="M293 593q-46 0 -80.5 22t-46.5 56v78q12 33 46.5 55t80.5 22q45 0 79.5 -22t46.5 -55v-78q-11 -34 -45.5 -56t-80.5 -22zM216 739v-59q6 -16 27 -28t50 -12t49.5 12t26.5 28v59q-6 17 -26.5 29t-49.5 12t-50 -12t-27 -29zM287 535q77 0 136.5 -37.5t82.5 -93.5v-404h-62
v59q-65 -73 -174 -73q-69 0 -122.5 27t-76.5 70v110q38 85 206 106q82 11 119 19.5t46 22.5v43q-16 38 -57 63.5t-98 25.5t-104.5 -30.5t-66.5 -78.5l-57 29q26 61 89 101.5t139 40.5zM442 128v157q-24 -24 -153 -42q-127 -17 -155 -72v-65q41 -60 142 -60q56 0 100 22.5
t66 59.5z" />
    <glyph glyph-name="ae" unicode="&#xe6;" horiz-adv-x="990" 
d="M870 163l61 -28q-30 -69 -94 -109.5t-147 -40.5q-64 0 -119.5 27t-90.5 73q-66 -100 -205 -100q-71 0 -125.5 27.5t-78.5 71.5v109q38 85 206 106q82 11 119 19.5t46 22.5v43q-16 38 -57 63.5t-98 25.5t-104.5 -30.5t-66.5 -78.5l-57 29q26 61 89 101.5t139 40.5
q62 0 114 -26t83 -67q35 43 88 68t114 25q86 0 153 -48t89 -123v-117h-421v-71q14 -55 65.5 -92t117.5 -37t112 31t68 85zM686 474q-65 0 -116 -37t-63 -92v-42h357v42q-13 55 -63 92t-115 37zM277 46q54 0 98.5 22.5t66.5 59.5v157q-24 -24 -153 -42q-127 -17 -155 -72v-65
q39 -60 143 -60z" />
    <glyph glyph-name="ccedilla" unicode="&#xe7;" horiz-adv-x="583" 
d="M312 47q61 0 108.5 31.5t67.5 80.5l60 -27q-27 -66 -91 -106.5t-145 -40.5h-3l-15 -36h5q33 0 58 -16t33 -36v-61q-10 -26 -40.5 -41.5t-70.5 -15.5q-57 0 -101 26l26 42q32 -19 78 -19q47 0 56 25v32q-9 22 -56 22h-56l34 83q-72 13 -124.5 58t-71.5 109v207
q22 75 90 123t158 48q81 0 145 -40.5t91 -106.5l-60 -26q-20 49 -67.5 80t-108.5 31q-68 0 -119 -37t-65 -92v-168q14 -55 65.5 -92t118.5 -37z" />
    <glyph glyph-name="egrave" unicode="&#xe8;" horiz-adv-x="611" 
d="M335 610h-53l-92 117v18h79l66 -126v-9zM491 163l61 -28q-30 -69 -94 -109.5t-147 -40.5q-87 0 -156 49t-91 123v207q21 75 88.5 123t154.5 48q86 0 153 -48t89 -123v-117h-421v-71q14 -55 65.5 -92t117.5 -37t112 31t68 85zM307 474q-65 0 -116 -37t-63 -92v-42h357v42
q-13 55 -63 92t-115 37z" />
    <glyph glyph-name="eacute" unicode="&#xe9;" horiz-adv-x="611" 
d="M435 727l-92 -117h-53v9l66 126h79v-18zM491 163l61 -28q-30 -69 -94 -109.5t-147 -40.5q-87 0 -156 49t-91 123v207q21 75 88.5 123t154.5 48q86 0 153 -48t89 -123v-117h-421v-71q14 -55 65.5 -92t117.5 -37t112 31t68 85zM307 474q-65 0 -116 -37t-63 -92v-42h357v42
q-13 55 -63 92t-115 37z" />
    <glyph glyph-name="ecircumflex" unicode="&#xea;" horiz-adv-x="611" 
d="M313 709l-87 -99h-54v10l86 125h109l86 -125v-10h-54zM491 163l61 -28q-30 -69 -94 -109.5t-147 -40.5q-87 0 -156 49t-91 123v207q21 75 88.5 123t154.5 48q86 0 153 -48t89 -123v-117h-421v-71q14 -55 65.5 -92t117.5 -37t112 31t68 85zM307 474q-65 0 -116 -37
t-63 -92v-42h357v42q-13 55 -63 92t-115 37z" />
    <glyph glyph-name="edieresis" unicode="&#xeb;" horiz-adv-x="611" 
d="M208 632q-36 0 -50 27v44q14 27 50 27t50 -27v-44q-14 -27 -50 -27zM418 632q-36 0 -50 27v44q14 27 50 27t50 -27v-44q-14 -27 -50 -27zM491 163l61 -28q-30 -69 -94 -109.5t-147 -40.5q-87 0 -156 49t-91 123v207q21 75 88.5 123t154.5 48q86 0 153 -48t89 -123v-117
h-421v-71q14 -55 65.5 -92t117.5 -37t112 31t68 85zM307 474q-65 0 -116 -37t-63 -92v-42h357v42q-13 55 -63 92t-115 37z" />
    <glyph glyph-name="igrave" unicode="&#xec;" horiz-adv-x="244" 
d="M91 610l-92 117v18h79l66 -126v-9h-53zM90 0v520h64v-520h-64z" />
    <glyph glyph-name="iacute" unicode="&#xed;" horiz-adv-x="244" 
d="M99 610v9l66 126h79v-18l-92 -117h-53zM90 0v520h64v-520h-64z" />
    <glyph glyph-name="icircumflex" unicode="&#xee;" horiz-adv-x="244" 
d="M176 745l86 -125v-10h-54l-86 99l-87 -99h-54v10l86 125h109zM90 0v520h64v-520h-64z" />
    <glyph glyph-name="idieresis" unicode="&#xef;" horiz-adv-x="244" 
d="M17 632q-37 0 -50 27v44q13 27 50 27t50 -27v-44q-13 -27 -50 -27zM227 632q-37 0 -50 27v44q13 27 50 27t50 -27v-44q-13 -27 -50 -27zM90 0v520h64v-520h-64z" />
    <glyph glyph-name="eth" unicode="&#xf0;" horiz-adv-x="606" 
d="M430 617q101 -110 112 -229v-262q-22 -61 -88.5 -101t-150.5 -40t-150.5 40t-88.5 101v253q23 60 87.5 100.5t147.5 40.5q101 0 154 -52q-27 68 -90 131l-170 -46l-9 47l136 37q-43 36 -102 71v22h68q54 -30 104 -74l117 31l9 -47zM477 148v219q-17 41 -65 66t-109 25
t-109 -28t-65 -73v-209q17 -45 65 -73t109 -28t109 28t65 73z" />
    <glyph glyph-name="ntilde" unicode="&#xf1;" horiz-adv-x="616" 
d="M232 665q-38 0 -48 -50l-50 17q7 37 33.5 61.5t63.5 24.5q38 0 84.5 -25.5t68.5 -25.5q38 0 48 50l50 -17q-8 -39 -33 -62.5t-64 -23.5q-35 0 -83 25.5t-70 25.5zM319 535q75 0 132.5 -36t80.5 -93v-406h-64v384q-18 41 -59 65t-100 24q-58 0 -102 -27t-55 -66v-380h-64
v520h62v-56q63 71 169 71z" />
    <glyph glyph-name="ograve" unicode="&#xf2;" horiz-adv-x="634" 
d="M286 610l-92 117v18h79l66 -126v-9h-53zM317 -15q-90 0 -160 48.5t-93 123.5v207q23 74 93 122.5t160 48.5t160 -48.5t93 -122.5v-207q-23 -75 -93 -123.5t-160 -48.5zM317 47q67 0 121 37t68 92v168q-14 55 -68 92t-121 37t-121 -37t-68 -92v-168q14 -55 68 -92t121 -37
z" />
    <glyph glyph-name="oacute" unicode="&#xf3;" horiz-adv-x="634" 
d="M294 610v9l66 126h79v-18l-92 -117h-53zM317 -15q-90 0 -160 48.5t-93 123.5v207q23 74 93 122.5t160 48.5t160 -48.5t93 -122.5v-207q-23 -75 -93 -123.5t-160 -48.5zM317 47q67 0 121 37t68 92v168q-14 55 -68 92t-121 37t-121 -37t-68 -92v-168q14 -55 68 -92t121 -37
z" />
    <glyph glyph-name="ocircumflex" unicode="&#xf4;" horiz-adv-x="634" 
d="M317 709l-87 -99h-54v10l86 125h109l86 -125v-10h-54zM317 535q90 0 160 -48.5t93 -122.5v-207q-23 -75 -93 -123.5t-160 -48.5t-160 48.5t-93 123.5v207q23 74 93 122.5t160 48.5zM506 176v168q-14 55 -68 92t-121 37t-121 -37t-68 -92v-168q14 -55 68 -92t121 -37
t121 37t68 92z" />
    <glyph glyph-name="otilde" unicode="&#xf5;" horiz-adv-x="634" 
d="M193 615l-50 17q7 37 33.5 61.5t63.5 24.5q38 0 84.5 -25.5t68.5 -25.5q38 0 48 50l50 -17q-8 -39 -33 -62.5t-64 -23.5q-35 0 -83 25.5t-70 25.5q-38 0 -48 -50zM317 -15q-90 0 -160 48.5t-93 123.5v207q23 74 93 122.5t160 48.5t160 -48.5t93 -122.5v-207
q-23 -75 -93 -123.5t-160 -48.5zM317 47q67 0 121 37t68 92v168q-14 55 -68 92t-121 37t-121 -37t-68 -92v-168q14 -55 68 -92t121 -37z" />
    <glyph glyph-name="odieresis" unicode="&#xf6;" horiz-adv-x="634" 
d="M212 632q-36 0 -50 27v44q14 27 50 27t50 -27v-44q-14 -27 -50 -27zM422 632q-36 0 -50 27v44q14 27 50 27t50 -27v-44q-14 -27 -50 -27zM317 -15q-90 0 -160 48.5t-93 123.5v207q23 74 93 122.5t160 48.5t160 -48.5t93 -122.5v-207q-23 -75 -93 -123.5t-160 -48.5z
M317 47q67 0 121 37t68 92v168q-14 55 -68 92t-121 37t-121 -37t-68 -92v-168q14 -55 68 -92t121 -37z" />
    <glyph glyph-name="divide" unicode="&#xf7;" 
d="M321 481q-38 0 -50 30v38q12 30 50 30q36 0 49 -28v-42q-13 -28 -49 -28zM52 323v59h540v-59h-540zM321 126q-38 0 -50 30v38q12 30 50 30q36 0 49 -28v-42q-13 -28 -49 -28z" />
    <glyph glyph-name="oslash" unicode="&#xf8;" horiz-adv-x="634" 
d="M570 520v-20l-48 -53q35 -38 48 -83v-207q-23 -75 -93 -123.5t-160 -48.5q-92 0 -165 52l-34 -37h-54v20l48 53q-35 40 -48 84v207q23 74 93 122.5t160 48.5q94 0 166 -53l34 38h53zM128 176q7 -27 28 -55l284 314q-56 38 -123 38t-121 -37t-68 -92v-168zM506 344
q-7 28 -28 54l-283 -313q52 -38 122 -38q67 0 121 37t68 92v168z" />
    <glyph glyph-name="ugrave" unicode="&#xf9;" horiz-adv-x="613" 
d="M327 610h-53l-92 117v18h79l66 -126v-9zM461 520h64v-520h-62v58q-60 -73 -168 -73q-75 0 -132 37t-79 95v403h64v-382q17 -42 57.5 -66.5t99.5 -24.5q57 0 101 28t55 67v378z" />
    <glyph glyph-name="uacute" unicode="&#xfa;" horiz-adv-x="613" 
d="M427 727l-92 -117h-53v9l66 126h79v-18zM461 520h64v-520h-62v58q-60 -73 -168 -73q-75 0 -132 37t-79 95v403h64v-382q17 -42 57.5 -66.5t99.5 -24.5q57 0 101 28t55 67v378z" />
    <glyph glyph-name="ucircumflex" unicode="&#xfb;" horiz-adv-x="613" 
d="M305 709l-87 -99h-54v10l86 125h109l86 -125v-10h-54zM461 520h64v-520h-62v58q-60 -73 -168 -73q-75 0 -132 37t-79 95v403h64v-382q17 -42 57.5 -66.5t99.5 -24.5q57 0 101 28t55 67v378z" />
    <glyph glyph-name="udieresis" unicode="&#xfc;" horiz-adv-x="613" 
d="M200 632q-36 0 -50 27v44q14 27 50 27t50 -27v-44q-14 -27 -50 -27zM410 632q-36 0 -50 27v44q14 27 50 27t50 -27v-44q-14 -27 -50 -27zM461 520h64v-520h-62v58q-60 -73 -168 -73q-75 0 -132 37t-79 95v403h64v-382q17 -42 57.5 -66.5t99.5 -24.5q57 0 101 28t55 67
v378z" />
    <glyph glyph-name="yacute" unicode="&#xfd;" horiz-adv-x="536" 
d="M388 727l-92 -117h-53v9l66 126h79v-18zM446 520h60v-18l-300 -672h-59v20l84 188l-201 464v18h62l173 -406z" />
    <glyph glyph-name="thorn" unicode="&#xfe;" 
d="M337 535q87 0 154 -48t89 -123v-207q-22 -75 -89.5 -123.5t-153.5 -48.5q-116 0 -185 82v-237h-64v900h64v-275q69 80 185 80zM516 176v168q-14 55 -65.5 92t-118.5 37q-60 0 -109 -28t-71 -73v-224q22 -45 71 -73t109 -28q67 0 118.5 37t65.5 92z" />
    <glyph glyph-name="ydieresis" unicode="&#xff;" horiz-adv-x="536" 
d="M161 632q-37 0 -50 27v44q13 27 50 27t50 -27v-44q-13 -27 -50 -27zM371 632q-37 0 -50 27v44q13 27 50 27t50 -27v-44q-13 -27 -50 -27zM446 520h60v-18l-300 -672h-59v20l84 188l-201 464v18h62l173 -406z" />
    <glyph glyph-name="Amacron" unicode="&#x100;" horiz-adv-x="717" 
d="M501 869v-56h-284v56h284zM402 706l282 -685v-21h-64l-78 193h-368l-78 -193h-63v20l282 686h87zM200 256h316l-158 390z" />
    <glyph glyph-name="amacron" unicode="&#x101;" horiz-adv-x="590" 
d="M435 693v-56h-284v56h284zM287 535q77 0 136.5 -37.5t82.5 -93.5v-404h-62v59q-65 -73 -174 -73q-69 0 -122.5 27t-76.5 70v110q38 85 206 106q82 11 119 19.5t46 22.5v43q-16 38 -57 63.5t-98 25.5t-104.5 -30.5t-66.5 -78.5l-57 29q26 61 89 101.5t139 40.5zM442 128
v157q-24 -24 -153 -42q-127 -17 -155 -72v-65q41 -60 142 -60q56 0 100 22.5t66 59.5z" />
    <glyph glyph-name="Abreve" unicode="&#x102;" horiz-adv-x="717" 
d="M359 784q-68 0 -106.5 34.5t-40.5 87.5h66q2 -31 21.5 -52t59.5 -21t59.5 21t21.5 52h66q-2 -53 -40.5 -87.5t-106.5 -34.5zM402 706l282 -685v-21h-64l-78 193h-368l-78 -193h-63v20l282 686h87zM200 256h316l-158 390z" />
    <glyph glyph-name="abreve" unicode="&#x103;" horiz-adv-x="590" 
d="M293 608q-68 0 -106.5 34.5t-40.5 87.5h66q2 -31 21.5 -52t59.5 -21t59.5 21t21.5 52h66q-2 -53 -40.5 -87.5t-106.5 -34.5zM287 535q77 0 136.5 -37.5t82.5 -93.5v-404h-62v59q-65 -73 -174 -73q-69 0 -122.5 27t-76.5 70v110q38 85 206 106q82 11 119 19.5t46 22.5v43
q-16 38 -57 63.5t-98 25.5t-104.5 -30.5t-66.5 -78.5l-57 29q26 61 89 101.5t139 40.5zM442 128v157q-24 -24 -153 -42q-127 -17 -155 -72v-65q41 -60 142 -60q56 0 100 22.5t66 59.5z" />
    <glyph glyph-name="Aogonek" unicode="&#x104;" horiz-adv-x="717" 
d="M691 -142l9 -44q-28 -14 -67 -14q-35 0 -62 13.5t-38 33.5v69q18 42 86 87l-77 190h-368l-78 -193h-63v20l282 686h87l282 -685v-21q-80 -53 -94 -92v-33q14 -23 59 -23q25 0 42 6zM200 256h316l-158 390z" />
    <glyph glyph-name="aogonek" unicode="&#x105;" horiz-adv-x="590" 
d="M513 -142l9 -44q-28 -14 -67 -14q-35 0 -62 13.5t-38 33.5v69q17 42 89 89v54q-65 -73 -174 -73q-69 0 -122.5 27t-76.5 70v110q38 85 206 106q82 11 119 19.5t46 22.5v43q-16 38 -57 63.5t-98 25.5t-104.5 -30.5t-66.5 -78.5l-57 29q26 61 89 101.5t139 40.5
q77 0 136.5 -37.5t82.5 -93.5v-404q-80 -53 -94 -92v-33q14 -23 59 -23q25 0 42 6zM442 128v157q-24 -24 -153 -42q-127 -17 -155 -72v-65q41 -60 142 -60q56 0 100 22.5t66 59.5z" />
    <glyph glyph-name="Cacute" unicode="&#x106;" horiz-adv-x="767" 
d="M390 786v9l66 126h79v-18l-92 -117h-53zM403 48q91 0 160 46t97 117l63 -29q-37 -92 -123.5 -144.5t-196.5 -52.5q-118 0 -211 64.5t-122 164.5v278q29 100 122 164.5t211 64.5q110 0 196.5 -52.5t123.5 -144.5l-63 -29q-28 71 -97 117t-160 46q-92 0 -168.5 -53.5
t-96.5 -134.5v-234q20 -81 96.5 -134.5t168.5 -53.5z" />
    <glyph glyph-name="cacute" unicode="&#x107;" horiz-adv-x="583" 
d="M293 610v9l66 126h79v-18l-92 -117h-53zM312 -15q-90 0 -158 48.5t-90 123.5v207q22 75 90 123t158 48q81 0 145 -40.5t91 -106.5l-60 -26q-20 49 -67.5 80t-108.5 31q-68 0 -119 -37t-65 -92v-168q14 -55 65.5 -92t118.5 -37q61 0 108.5 31.5t67.5 80.5l60 -27
q-27 -66 -91 -106.5t-145 -40.5z" />
    <glyph glyph-name="Cdotaccent" unicode="&#x10a;" horiz-adv-x="767" 
d="M413 789q-37 0 -50 27v44q13 27 50 27t50 -27v-44q-13 -27 -50 -27zM403 48q91 0 160 46t97 117l63 -29q-37 -92 -123.5 -144.5t-196.5 -52.5q-118 0 -211 64.5t-122 164.5v278q29 100 122 164.5t211 64.5q110 0 196.5 -52.5t123.5 -144.5l-63 -29q-28 71 -97 117
t-160 46q-92 0 -168.5 -53.5t-96.5 -134.5v-234q20 -81 96.5 -134.5t168.5 -53.5z" />
    <glyph glyph-name="cdotaccent" unicode="&#x10b;" horiz-adv-x="583" 
d="M316 632q-36 0 -50 27v44q14 27 50 27t50 -27v-44q-14 -27 -50 -27zM312 -15q-90 0 -158 48.5t-90 123.5v207q22 75 90 123t158 48q81 0 145 -40.5t91 -106.5l-60 -26q-20 49 -67.5 80t-108.5 31q-68 0 -119 -37t-65 -92v-168q14 -55 65.5 -92t118.5 -37q61 0 108.5 31.5
t67.5 80.5l60 -27q-27 -66 -91 -106.5t-145 -40.5z" />
    <glyph glyph-name="Ccaron" unicode="&#x10c;" horiz-adv-x="767" 
d="M358 786l-86 125v10h54l87 -99l86 99h54v-10l-86 -125h-109zM403 48q91 0 160 46t97 117l63 -29q-37 -92 -123.5 -144.5t-196.5 -52.5q-118 0 -211 64.5t-122 164.5v278q29 100 122 164.5t211 64.5q110 0 196.5 -52.5t123.5 -144.5l-63 -29q-28 71 -97 117t-160 46
q-92 0 -168.5 -53.5t-96.5 -134.5v-234q20 -81 96.5 -134.5t168.5 -53.5z" />
    <glyph glyph-name="ccaron" unicode="&#x10d;" horiz-adv-x="583" 
d="M261 610l-86 125v10h54l87 -99l86 99h54v-10l-86 -125h-109zM312 47q61 0 108.5 31.5t67.5 80.5l60 -27q-27 -66 -91 -106.5t-145 -40.5q-90 0 -158 48.5t-90 123.5v207q22 75 90 123t158 48q81 0 145 -40.5t91 -106.5l-60 -26q-20 49 -67.5 80t-108.5 31q-68 0 -119 -37
t-65 -92v-168q14 -55 65.5 -92t118.5 -37z" />
    <glyph glyph-name="Dcaron" unicode="&#x10e;" horiz-adv-x="761" 
d="M315 786l-86 125v10h54l87 -99l86 99h54v-10l-86 -125h-109zM348 706q120 0 216.5 -66.5t126.5 -167.5v-238q-30 -101 -126.5 -167.5t-216.5 -66.5h-245v706h245zM623 254v198q-21 81 -100.5 136t-174.5 55h-177v-580h177q95 0 174.5 55t100.5 136z" />
    <glyph glyph-name="dcaron" unicode="&#x10f;" horiz-adv-x="745" 
d="M492 454v276h64v-730h-62v68q-70 -83 -187 -83q-86 0 -153.5 48.5t-89.5 123.5v207q22 75 89 123t154 48q116 0 185 -81zM673 730h62v-19l-43 -171h-44zM492 148v224q-23 45 -71.5 73t-108.5 28q-67 0 -118.5 -37t-65.5 -92v-168q14 -55 65.5 -92t118.5 -37
q60 0 108.5 28t71.5 73z" />
    <glyph glyph-name="Dcroat" unicode="&#x110;" horiz-adv-x="791" 
d="M378 706q120 0 216.5 -66.5t126.5 -167.5v-238q-30 -101 -126.5 -167.5t-216.5 -66.5h-245v325h-103v58h103v323h245zM653 254v198q-21 81 -100.5 136t-174.5 55h-177v-260h211v-58h-211v-262h177q95 0 174.5 55t100.5 136z" />
    <glyph glyph-name="dcroat" unicode="&#x111;" horiz-adv-x="654" 
d="M624 656v-50h-68v-606h-62v68q-70 -83 -187 -83q-86 0 -153.5 48.5t-89.5 123.5v207q22 75 89 123t154 48q116 0 185 -81v152h-177v50h177v74h64v-74h68zM492 148v224q-23 45 -71.5 73t-108.5 28q-67 0 -118.5 -37t-65.5 -92v-168q14 -55 65.5 -92t118.5 -37
q60 0 108.5 28t71.5 73z" />
    <glyph glyph-name="Emacron" unicode="&#x112;" horiz-adv-x="642" 
d="M481 869v-56h-284v56h284zM566 643h-395v-254h360v-63h-360v-263h395v-63h-463v706h463v-63z" />
    <glyph glyph-name="emacron" unicode="&#x113;" horiz-adv-x="611" 
d="M455 693v-56h-284v56h284zM491 163l61 -28q-30 -69 -94 -109.5t-147 -40.5q-87 0 -156 49t-91 123v207q21 75 88.5 123t154.5 48q86 0 153 -48t89 -123v-117h-421v-71q14 -55 65.5 -92t117.5 -37t112 31t68 85zM307 474q-65 0 -116 -37t-63 -92v-42h357v42q-13 55 -63 92
t-115 37z" />
    <glyph glyph-name="Edotaccent" unicode="&#x116;" horiz-adv-x="642" 
d="M339 789q-37 0 -50 27v44q13 27 50 27t50 -27v-44q-13 -27 -50 -27zM566 643h-395v-254h360v-63h-360v-263h395v-63h-463v706h463v-63z" />
    <glyph glyph-name="edotaccent" unicode="&#x117;" horiz-adv-x="611" 
d="M313 632q-37 0 -50 27v44q13 27 50 27t50 -27v-44q-13 -27 -50 -27zM491 163l61 -28q-30 -69 -94 -109.5t-147 -40.5q-87 0 -156 49t-91 123v207q21 75 88.5 123t154.5 48q86 0 153 -48t89 -123v-117h-421v-71q14 -55 65.5 -92t117.5 -37t112 31t68 85zM307 474
q-65 0 -116 -37t-63 -92v-42h357v42q-13 55 -63 92t-115 37z" />
    <glyph glyph-name="Eogonek" unicode="&#x118;" horiz-adv-x="642" 
d="M573 -142l9 -44q-28 -14 -67 -14q-35 0 -62 13.5t-38 33.5v69q15 38 81 84h-393v706h463v-63h-395v-254h360v-63h-360v-263h395v-63q-80 -53 -94 -92v-33q14 -23 59 -23q25 0 42 6z" />
    <glyph glyph-name="eogonek" unicode="&#x119;" horiz-adv-x="609" 
d="M483 40q-40 -38 -67 -77.5t-31 -54.5v-33q13 -23 59 -23q27 0 42 6l9 -44q-28 -14 -67 -14q-69 0 -100 46v70q8 26 55 78q-33 -9 -72 -9q-87 0 -156 49t-91 123v207q21 75 88.5 123t154.5 48q86 0 153 -48t89 -123v-116h-421v-72q14 -55 65.5 -92t117.5 -37t112 31t68 85
l61 -28q-20 -47 -69 -95zM307 474q-65 0 -116 -37t-63 -92v-41h357v41q-13 55 -63 92t-115 37z" />
    <glyph glyph-name="Ecaron" unicode="&#x11a;" horiz-adv-x="642" 
d="M284 786l-86 125v10h54l87 -99l86 99h54v-10l-86 -125h-109zM566 643h-395v-254h360v-63h-360v-263h395v-63h-463v706h463v-63z" />
    <glyph glyph-name="ecaron" unicode="&#x11b;" horiz-adv-x="611" 
d="M258 610l-86 125v10h54l87 -99l86 99h54v-10l-86 -125h-109zM491 163l61 -28q-30 -69 -94 -109.5t-147 -40.5q-87 0 -156 49t-91 123v207q21 75 88.5 123t154.5 48q86 0 153 -48t89 -123v-117h-421v-71q14 -55 65.5 -92t117.5 -37t112 31t68 85zM307 474q-65 0 -116 -37
t-63 -92v-42h357v42q-13 55 -63 92t-115 37z" />
    <glyph glyph-name="Gbreve" unicode="&#x11e;" horiz-adv-x="808" 
d="M408 784q-68 0 -106.5 34.5t-40.5 87.5h66q2 -31 21.5 -52t59.5 -21t59.5 21t21.5 52h66q-2 -53 -40.5 -87.5t-106.5 -34.5zM380 362h362v-176q-36 -86 -125.5 -143.5t-205.5 -57.5q-120 0 -215.5 64.5t-125.5 164.5v278q30 100 125.5 164.5t215.5 64.5
q110 0 200.5 -54.5t128.5 -143.5l-64 -29q-29 72 -103.5 118t-161.5 46q-95 0 -173.5 -53.5t-99.5 -134.5v-234q21 -81 99.5 -134.5t173.5 -53.5q90 0 164 47t99 112v92h-294v63z" />
    <glyph glyph-name="gbreve" unicode="&#x11f;" horiz-adv-x="642" 
d="M323 608q-68 0 -106.5 34.5t-40.5 87.5h66q2 -31 21.5 -52t59.5 -21t59.5 21t21.5 52h66q-2 -53 -40.5 -87.5t-106.5 -34.5zM494 520h62v-538q-23 -73 -90 -119t-156 -46q-87 0 -152.5 39.5t-92.5 107.5l62 27q20 -52 67 -82t116 -30q68 0 118 34t64 88v110
q-69 -80 -185 -80q-86 0 -152.5 47t-88.5 120v171q22 73 88.5 119.5t152.5 46.5q119 0 187 -81v66zM314 93q60 0 109 30.5t69 77.5v165q-20 47 -69 77t-109 30q-67 0 -118 -35.5t-66 -88.5v-131q15 -54 66 -89.5t118 -35.5z" />
    <glyph glyph-name="Gdotaccent" unicode="&#x120;" horiz-adv-x="808" 
d="M408 789q-36 0 -50 27v44q14 27 50 27t50 -27v-44q-14 -27 -50 -27zM380 362h362v-176q-36 -86 -125.5 -143.5t-205.5 -57.5q-120 0 -215.5 64.5t-125.5 164.5v278q30 100 125.5 164.5t215.5 64.5q110 0 200.5 -54.5t128.5 -143.5l-64 -29q-29 72 -103.5 118t-161.5 46
q-95 0 -173.5 -53.5t-99.5 -134.5v-234q21 -81 99.5 -134.5t173.5 -53.5q90 0 164 47t99 112v92h-294v63z" />
    <glyph glyph-name="gdotaccent" unicode="&#x121;" horiz-adv-x="642" 
d="M323 632q-37 0 -50 27v44q13 27 50 27t50 -27v-44q-13 -27 -50 -27zM494 520h62v-538q-23 -73 -90 -119t-156 -46q-87 0 -152.5 39.5t-92.5 107.5l62 27q20 -52 67 -82t116 -30q68 0 118 34t64 88v110q-69 -80 -185 -80q-86 0 -152.5 47t-88.5 120v171q22 73 88.5 119.5
t152.5 46.5q119 0 187 -81v66zM314 93q60 0 109 30.5t69 77.5v165q-20 47 -69 77t-109 30q-67 0 -118 -35.5t-66 -88.5v-131q15 -54 66 -89.5t118 -35.5z" />
    <glyph glyph-name="Gcommaaccent" unicode="&#x122;" horiz-adv-x="808" 
d="M380 362h362v-176q-36 -86 -125.5 -143.5t-205.5 -57.5q-120 0 -215.5 64.5t-125.5 164.5v278q30 100 125.5 164.5t215.5 64.5q110 0 200.5 -54.5t128.5 -143.5l-64 -29q-29 72 -103.5 118t-161.5 46q-95 0 -173.5 -53.5t-99.5 -134.5v-234q21 -81 99.5 -134.5
t173.5 -53.5q90 0 164 47t99 112v92h-294v63zM406 -70q38 0 51 -28v-46l-57 -105h-41v10l38 72q-33 4 -43 29v38q12 30 52 30z" />
    <glyph glyph-name="gcommaaccent" unicode="&#x123;" horiz-adv-x="642" 
d="M322 633q-38 0 -51 28v46l57 105h41v-10l-38 -72q33 -4 43 -29v-38q-12 -30 -52 -30zM494 520h62v-538q-23 -73 -90 -119t-156 -46q-87 0 -152.5 39.5t-92.5 107.5l62 27q20 -52 67 -82t116 -30q68 0 118 34t64 88v110q-69 -80 -185 -80q-86 0 -152.5 47t-88.5 120v171
q22 73 88.5 119.5t152.5 46.5q119 0 187 -81v66zM314 93q60 0 109 30.5t69 77.5v165q-20 47 -69 77t-109 30q-67 0 -118 -35.5t-66 -88.5v-131q15 -54 66 -89.5t118 -35.5z" />
    <glyph glyph-name="Hbar" unicode="&#x126;" horiz-adv-x="837" 
d="M767 580v-56h-64v-524h-68v326h-426v-326h-68v524h-71v56h71v126h68v-126h426v126h68v-126h64zM635 389v135h-426v-135h426z" />
    <glyph glyph-name="hbar" unicode="&#x127;" horiz-adv-x="629" 
d="M332 535q75 0 132.5 -36t80.5 -93v-406h-64v384q-18 41 -59 65t-100 24q-58 0 -102 -27t-55 -66v-380h-64v606h-71v50h71v74h64v-74h174v-50h-174v-140q62 69 167 69z" />
    <glyph glyph-name="Imacron" unicode="&#x12a;" horiz-adv-x="280" 
d="M-2 813v56h284v-56h-284zM106 0v706h68v-706h-68z" />
    <glyph glyph-name="imacron" unicode="&#x12b;" horiz-adv-x="244" 
d="M-20 637v56h284v-56h-284zM90 0v520h64v-520h-64z" />
    <glyph glyph-name="Iogonek" unicode="&#x12e;" horiz-adv-x="280" 
d="M181 -142l9 -44q-28 -14 -67 -14q-35 0 -62 13.5t-38 33.5v69q18 40 83 85v705h68v-706q-80 -53 -94 -92v-33q14 -23 59 -23q25 0 42 6z" />
    <glyph glyph-name="iogonek" unicode="&#x12f;" horiz-adv-x="244" 
d="M122 730q36 0 50 -27v-44q-14 -27 -50 -27t-50 27v44q14 27 50 27zM119 -148q25 0 42 6l9 -44q-28 -14 -67 -14q-35 0 -62 13.5t-38 33.5v69q17 41 87 88v516h64v-520q-80 -53 -94 -92v-33q14 -23 59 -23z" />
    <glyph glyph-name="Idotaccent" unicode="&#x130;" horiz-adv-x="280" 
d="M140 789q-36 0 -50 27v44q14 27 50 27t50 -27v-44q-14 -27 -50 -27zM106 0v706h68v-706h-68z" />
    <glyph glyph-name="dotlessi" unicode="&#x131;" horiz-adv-x="244" 
d="M90 0v520h64v-520h-64z" />
    <glyph glyph-name="Kcommaaccent" unicode="&#x136;" horiz-adv-x="691" 
d="M376 425l288 -405v-20h-67l-269 379l-157 -148v-231h-68v706h68v-393l408 393h69v-20zM349 -70q38 0 51 -28v-46l-57 -105h-41v10l38 72q-33 4 -43 29v38q12 30 52 30z" />
    <glyph glyph-name="kcommaaccent" unicode="&#x137;" horiz-adv-x="559" 
d="M318 312l217 -292v-20h-61l-201 270l-121 -112v-158h-64v730h64v-498l304 288h65v-19zM294 -70q38 0 51 -28v-46l-57 -105h-41v10l38 72q-33 4 -43 29v38q12 30 52 30z" />
    <glyph glyph-name="Lacute" unicode="&#x139;" horiz-adv-x="601" 
d="M262 903l-92 -117h-53v9l66 126h79v-18zM171 63h394v-63h-462v706h68v-643z" />
    <glyph glyph-name="lacute" unicode="&#x13a;" horiz-adv-x="240" 
d="M98 785v9l66 126h79v-18l-92 -117h-53zM88 0v730h64v-730h-64z" />
    <glyph glyph-name="Lcommaaccent" unicode="&#x13b;" horiz-adv-x="601" 
d="M171 63h394v-63h-462v706h68v-643zM330 -70q38 0 51 -28v-46l-57 -105h-41v10l38 72q-33 4 -43 29v38q12 30 52 30z" />
    <glyph glyph-name="lcommaaccent" unicode="&#x13c;" horiz-adv-x="240" 
d="M152 730v-730h-64v730h64zM120 -70q38 0 51 -28v-46l-57 -105h-41v10l38 72q-33 4 -43 29v38q12 30 52 30z" />
    <glyph glyph-name="Lcaron" unicode="&#x13d;" horiz-adv-x="601" 
d="M171 63h394v-63h-462v706h68v-643zM358 687l-43 -171h-44l25 190h62v-19z" />
    <glyph glyph-name="lcaron" unicode="&#x13e;" horiz-adv-x="339" 
d="M88 0v730h64v-730h-64zM242 540l25 190h62v-19l-43 -171h-44z" />
    <glyph glyph-name="Lslash" unicode="&#x141;" horiz-adv-x="621" 
d="M191 63h394v-63h-462v278l-83 -48v63l83 48v365h68v-326l174 100v-63l-174 -100v-254z" />
    <glyph glyph-name="lslash" unicode="&#x142;" horiz-adv-x="385" 
d="M345 530v-59l-125 -68v-403h-64v368l-116 -64v59l116 64v303h64v-268z" />
    <glyph glyph-name="Nacute" unicode="&#x143;" horiz-adv-x="764" 
d="M504 903l-92 -117h-53v9l66 126h79v-18zM595 706h66v-706h-67l-425 619v-619h-66v706h84l408 -592v592z" />
    <glyph glyph-name="nacute" unicode="&#x144;" horiz-adv-x="616" 
d="M430 727l-92 -117h-53v9l66 126h79v-18zM319 535q75 0 132.5 -36t80.5 -93v-406h-64v384q-18 41 -59 65t-100 24q-58 0 -102 -27t-55 -66v-380h-64v520h62v-56q63 71 169 71z" />
    <glyph glyph-name="Ncommaaccent" unicode="&#x145;" horiz-adv-x="764" 
d="M595 706h66v-706h-67l-425 619v-619h-66v706h84l408 -592v592zM382 -70q38 0 51 -28v-46l-57 -105h-41v10l38 72q-33 4 -43 29v38q12 30 52 30z" />
    <glyph glyph-name="ncommaaccent" unicode="&#x146;" horiz-adv-x="616" 
d="M319 535q75 0 132.5 -36t80.5 -93v-406h-64v384q-18 41 -59 65t-100 24q-58 0 -102 -27t-55 -66v-380h-64v520h62v-56q63 71 169 71zM308 -70q38 0 51 -28v-46l-57 -105h-41v10l38 72q-33 4 -43 29v38q12 30 52 30z" />
    <glyph glyph-name="Ncaron" unicode="&#x147;" horiz-adv-x="764" 
d="M327 786l-86 125v10h54l87 -99l86 99h54v-10l-86 -125h-109zM595 706h66v-706h-67l-425 619v-619h-66v706h84l408 -592v592z" />
    <glyph glyph-name="ncaron" unicode="&#x148;" horiz-adv-x="616" 
d="M253 610l-86 125v10h54l87 -99l86 99h54v-10l-86 -125h-109zM319 535q75 0 132.5 -36t80.5 -93v-406h-64v384q-18 41 -59 65t-100 24q-58 0 -102 -27t-55 -66v-380h-64v520h62v-56q63 71 169 71z" />
    <glyph glyph-name="Eng" unicode="&#x14a;" horiz-adv-x="764" 
d="M661 706v-706h-3v-30q-25 -63 -80 -103.5t-131 -40.5q-21 0 -41 4v60h31q120 0 153 95v21l-421 613v-619h-66v706h84l408 -592v592h66z" />
    <glyph glyph-name="eng" unicode="&#x14b;" horiz-adv-x="616" 
d="M319 535q75 0 132.5 -36t80.5 -93v-421q-17 -56 -64.5 -100t-111.5 -61v66q42 17 72 47.5t40 67.5v379q-18 41 -59 65t-100 24q-58 0 -102 -27t-55 -66v-380h-64v520h62v-56q63 71 169 71z" />
    <glyph glyph-name="Omacron" unicode="&#x14c;" horiz-adv-x="826" 
d="M271 813v56h284v-56h-284zM413 -15q-121 0 -217 64.5t-126 164.5v278q30 100 126 164.5t217 64.5t217 -64.5t126 -164.5v-278q-30 -100 -126 -164.5t-217 -64.5zM413 48q95 0 174.5 53.5t100.5 134.5v234q-21 81 -100.5 134.5t-174.5 53.5t-174.5 -53.5t-100.5 -134.5
v-234q21 -81 100.5 -134.5t174.5 -53.5z" />
    <glyph glyph-name="omacron" unicode="&#x14d;" horiz-adv-x="634" 
d="M175 637v56h284v-56h-284zM317 -15q-90 0 -160 48.5t-93 123.5v207q23 74 93 122.5t160 48.5t160 -48.5t93 -122.5v-207q-23 -75 -93 -123.5t-160 -48.5zM317 47q67 0 121 37t68 92v168q-14 55 -68 92t-121 37t-121 -37t-68 -92v-168q14 -55 68 -92t121 -37z" />
    <glyph glyph-name="Ohungarumlaut" unicode="&#x150;" horiz-adv-x="826" 
d="M304 786v9l66 126h73v-18l-93 -117h-46zM473 786v9l66 126h73v-18l-93 -117h-46zM413 -15q-121 0 -217 64.5t-126 164.5v278q30 100 126 164.5t217 64.5t217 -64.5t126 -164.5v-278q-30 -100 -126 -164.5t-217 -64.5zM413 48q95 0 174.5 53.5t100.5 134.5v234
q-21 81 -100.5 134.5t-174.5 53.5t-174.5 -53.5t-100.5 -134.5v-234q21 -81 100.5 -134.5t174.5 -53.5z" />
    <glyph glyph-name="ohungarumlaut" unicode="&#x151;" horiz-adv-x="634" 
d="M208 610v9l66 126h73v-18l-93 -117h-46zM377 610v9l66 126h73v-18l-93 -117h-46zM317 -15q-90 0 -160 48.5t-93 123.5v207q23 74 93 122.5t160 48.5t160 -48.5t93 -122.5v-207q-23 -75 -93 -123.5t-160 -48.5zM317 47q67 0 121 37t68 92v168q-14 55 -68 92t-121 37
t-121 -37t-68 -92v-168q14 -55 68 -92t121 -37z" />
    <glyph glyph-name="OE" unicode="&#x152;" horiz-adv-x="1227" 
d="M1151 643h-395v-254h360v-63h-360v-263h395v-63h-463v108q-48 -57 -120.5 -90t-154.5 -33q-121 0 -217 64.5t-126 164.5v278q30 100 126 164.5t217 64.5q82 0 154.5 -33t120.5 -90v108h463v-63zM413 48q95 0 174.5 53.5t100.5 134.5v234q-21 81 -100.5 134.5t-174.5 53.5
t-174.5 -53.5t-100.5 -134.5v-234q21 -81 100.5 -134.5t174.5 -53.5z" />
    <glyph glyph-name="oe" unicode="&#x153;" horiz-adv-x="1053" 
d="M933 163l61 -28q-30 -69 -94 -109.5t-147 -40.5q-67 0 -124 30t-91 80q-35 -50 -93.5 -80t-127.5 -30q-90 0 -160 48.5t-93 123.5v207q23 74 93 122.5t160 48.5q68 0 126.5 -29.5t93.5 -79.5q34 50 90 79.5t122 29.5q86 0 153 -48t89 -123v-116h-421v-72q14 -55 65.5 -92
t117.5 -37t112 31t68 85zM749 474q-65 0 -116 -37t-63 -92v-41h357v41q-13 55 -63 92t-115 37zM506 176v168q-14 55 -68 92t-121 37t-121 -37t-68 -92v-168q14 -55 68 -92t121 -37t121 37t68 92z" />
    <glyph glyph-name="Racute" unicode="&#x154;" horiz-adv-x="689" 
d="M473 903l-92 -117h-53v9l66 126h79v-18zM442 300l190 -280v-20h-64l-197 292h-200v-292h-68v706h275q77 0 139 -39.5t82 -98.5v-138q-15 -46 -57.5 -81t-99.5 -49zM171 643v-288h205q52 0 95.5 26.5t59.5 67.5v100q-16 41 -59.5 67.5t-95.5 26.5h-205z" />
    <glyph glyph-name="racute" unicode="&#x155;" horiz-adv-x="362" 
d="M267 745h79v-18l-92 -117h-53v9zM150 441q20 37 58.5 60.5t88.5 23.5q26 0 41 -5v-61h-33q-63 0 -103 -30t-50 -68v-361h-64v520h62v-79z" />
    <glyph glyph-name="Rcommaaccent" unicode="&#x156;" horiz-adv-x="689" 
d="M442 300l190 -280v-20h-64l-197 292h-200v-292h-68v706h275q77 0 139 -39.5t82 -98.5v-138q-15 -46 -57.5 -81t-99.5 -49zM171 643v-288h205q52 0 95.5 26.5t59.5 67.5v100q-16 41 -59.5 67.5t-95.5 26.5h-205zM351 -70q38 0 51 -28v-46l-57 -105h-41v10l38 72
q-33 4 -43 29v38q12 30 52 30z" />
    <glyph glyph-name="rcommaaccent" unicode="&#x157;" horiz-adv-x="362" 
d="M297 525q26 0 41 -5v-61h-33q-63 0 -103 -30t-50 -68v-361h-64v520h62v-79q20 37 58.5 60.5t88.5 23.5zM120 -70q38 0 51 -28v-46l-57 -105h-41v10l38 72q-33 4 -43 29v38q12 30 52 30z" />
    <glyph glyph-name="Rcaron" unicode="&#x158;" horiz-adv-x="689" 
d="M296 786l-86 125v10h54l87 -99l86 99h54v-10l-86 -125h-109zM442 300l190 -280v-20h-64l-197 292h-200v-292h-68v706h275q77 0 139 -39.5t82 -98.5v-138q-15 -46 -57.5 -81t-99.5 -49zM171 643v-288h205q52 0 95.5 26.5t59.5 67.5v100q-16 41 -59.5 67.5t-95.5 26.5h-205
z" />
    <glyph glyph-name="rcaron" unicode="&#x159;" horiz-adv-x="362" 
d="M310 745h54v-10l-86 -125h-109l-86 125v10h54l87 -99zM150 441q20 37 58.5 60.5t88.5 23.5q26 0 41 -5v-61h-33q-63 0 -103 -30t-50 -68v-361h-64v520h62v-79z" />
    <glyph glyph-name="Sacute" unicode="&#x15a;" horiz-adv-x="640" 
d="M305 786v9l66 126h79v-18l-92 -117h-53zM322 -15q-93 0 -166 44.5t-99 112.5l62 32q25 -58 78.5 -92.5t124.5 -34.5q65 0 114.5 28t68.5 73v75q-25 60 -100 85q-36 12 -94 20.5t-99 22.5q-109 37 -139 124v103q25 64 93 103.5t153 39.5q88 0 158.5 -42.5t96.5 -112.5
l-62 -31q-23 57 -74.5 90.5t-119.5 33.5q-62 0 -110 -27t-67 -73v-66q23 -57 98 -82q36 -12 94 -20.5t99 -22.5q110 -37 141 -126v-114q-24 -63 -93.5 -103t-157.5 -40z" />
    <glyph glyph-name="sacute" unicode="&#x15b;" horiz-adv-x="508" 
d="M230 610v9l66 126h79v-18l-92 -117h-53zM256 -15q-71 0 -129 34t-78 86l56 29q18 -40 58.5 -64t92.5 -24q48 0 83 18.5t48 49.5v50q-14 36 -73 56q-26 9 -70.5 15.5t-73.5 15.5q-86 27 -109 93v81q17 48 70.5 79t121.5 31q70 0 125 -33t75 -85l-57 -28q-42 85 -145 85
q-47 0 -81.5 -18t-45.5 -48v-46q13 -36 71 -56q26 -9 71.5 -15.5t74.5 -15.5q85 -26 109 -94v-86q-18 -48 -72 -79t-122 -31z" />
    <glyph glyph-name="Scedilla" unicode="&#x15e;" horiz-adv-x="640" 
d="M432 368q110 -37 141 -126v-114q-23 -60 -88 -99.5t-148 -43.5l-15 -36h5q33 0 58 -16t33 -36v-61q-10 -26 -40.5 -41.5t-70.5 -15.5q-57 0 -101 26l26 42q32 -19 78 -19q47 0 56 25v32q-9 22 -56 22h-56l32 80q-81 8 -143 51t-86 104l62 32q25 -58 78.5 -92.5
t124.5 -34.5q65 0 114.5 28t68.5 73v75q-25 60 -100 85q-36 12 -94 20.5t-99 22.5q-109 37 -139 124v103q25 64 93 103.5t153 39.5q88 0 158.5 -42.5t96.5 -112.5l-62 -31q-23 57 -74.5 90.5t-119.5 33.5q-62 0 -110 -27t-67 -73v-66q23 -57 98 -82q36 -12 94 -20.5
t99 -22.5z" />
    <glyph glyph-name="scedilla" unicode="&#x15f;" horiz-adv-x="508" 
d="M341 275q85 -26 109 -94v-86q-18 -44 -66 -74.5t-111 -34.5l-15 -37h5q33 0 58 -16t33 -36v-61q-10 -26 -40.5 -41.5t-70.5 -15.5q-57 0 -101 26l26 42q32 -19 78 -19q47 0 56 25v32q-9 22 -56 22h-56l33 80q-61 7 -109 39.5t-65 78.5l56 29q18 -40 58.5 -64t92.5 -24
q48 0 83 18.5t48 49.5v50q-14 36 -73 56q-26 9 -70.5 15.5t-73.5 15.5q-86 27 -109 93v81q17 48 70.5 79t121.5 31q70 0 125 -33t75 -85l-57 -28q-42 85 -145 85q-47 0 -81.5 -18t-45.5 -48v-46q13 -36 71 -56q26 -9 71.5 -15.5t74.5 -15.5z" />
    <glyph glyph-name="Scaron" unicode="&#x160;" horiz-adv-x="640" 
d="M273 786l-86 125v10h54l87 -99l86 99h54v-10l-86 -125h-109zM432 368q110 -37 141 -126v-114q-24 -63 -93.5 -103t-157.5 -40q-93 0 -166 44.5t-99 112.5l62 32q25 -58 78.5 -92.5t124.5 -34.5q65 0 114.5 28t68.5 73v75q-25 60 -100 85q-36 12 -94 20.5t-99 22.5
q-109 37 -139 124v103q25 64 93 103.5t153 39.5q88 0 158.5 -42.5t96.5 -112.5l-62 -31q-23 57 -74.5 90.5t-119.5 33.5q-62 0 -110 -27t-67 -73v-66q23 -57 98 -82q36 -12 94 -20.5t99 -22.5z" />
    <glyph glyph-name="scaron" unicode="&#x161;" horiz-adv-x="508" 
d="M198 610l-86 125v10h54l87 -99l86 99h54v-10l-86 -125h-109zM341 275q85 -26 109 -94v-86q-18 -48 -72 -79t-122 -31q-71 0 -129 34t-78 86l56 29q18 -40 58.5 -64t92.5 -24q48 0 83 18.5t48 49.5v50q-14 36 -73 56q-26 9 -70.5 15.5t-73.5 15.5q-86 27 -109 93v81
q17 48 70.5 79t121.5 31q70 0 125 -33t75 -85l-57 -28q-42 85 -145 85q-47 0 -81.5 -18t-45.5 -48v-46q13 -36 71 -56q26 -9 71.5 -15.5t74.5 -15.5z" />
    <glyph glyph-name="uni0162" unicode="&#x162;" horiz-adv-x="659" 
d="M364 0h-8l-21 -51h5q33 0 58 -16t33 -36v-61q-10 -26 -40.5 -41.5t-70.5 -15.5q-57 0 -101 26l26 42q32 -19 78 -19q47 0 56 25v32q-9 22 -56 22h-56l38 93h-9v643h-261v63h589v-63h-260v-643z" />
    <glyph glyph-name="uni0163" unicode="&#x163;" horiz-adv-x="401" 
d="M309 -7q-23 0 -42 3l-19 -47h5q33 0 58 -16t33 -36v-61q-10 -26 -40.5 -41.5t-70.5 -15.5q-57 0 -101 26l26 42q32 -19 78 -19q47 0 56 25v32q-9 22 -56 22h-56l41 101q-55 23 -84 83v373h-111v56h71q33 0 40 21v144h64v-165h161v-56h-161v-347q14 -32 40.5 -47t75.5 -15
h49v-55q-23 -7 -57 -7z" />
    <glyph glyph-name="Tcaron" unicode="&#x164;" horiz-adv-x="659" 
d="M275 786l-86 125v10h54l87 -99l86 99h54v-10l-86 -125h-109zM624 706v-63h-260v-643h-68v643h-261v63h589z" />
    <glyph glyph-name="tcaron" unicode="&#x165;" horiz-adv-x="398" 
d="M295 610l25 190h62v-19l-43 -171h-44zM309 -7q-124 0 -172 98v373h-111v56h71q33 0 40 21v144h64v-165h161v-56h-161v-347q14 -32 40.5 -47t75.5 -15h49v-55q-23 -7 -57 -7z" />
    <glyph glyph-name="Tbar" unicode="&#x166;" horiz-adv-x="659" 
d="M624 643h-260v-262h159v-57h-159v-324h-68v324h-150v57h150v262h-261v63h589v-63z" />
    <glyph glyph-name="tbar" unicode="&#x167;" horiz-adv-x="401" 
d="M317 55h49v-55q-23 -7 -57 -7q-124 0 -172 98v143h-111v56h111v174h-111v56h71q33 0 40 21v144h64v-165h161v-56h-161v-174h161v-56h-161v-117q14 -32 40.5 -47t75.5 -15z" />
    <glyph glyph-name="Umacron" unicode="&#x16a;" horiz-adv-x="734" 
d="M217 813v56h284v-56h-284zM367 -15q-97 0 -170 40.5t-100 100.5v580h68v-558q19 -43 74.5 -71.5t127.5 -28.5t127.5 28.5t74.5 71.5v558h68v-580q-27 -60 -100 -100.5t-170 -40.5z" />
    <glyph glyph-name="umacron" unicode="&#x16b;" horiz-adv-x="613" 
d="M447 693v-56h-284v56h284zM461 520h64v-520h-62v58q-60 -73 -168 -73q-75 0 -132 37t-79 95v403h64v-382q17 -42 57.5 -66.5t99.5 -24.5q57 0 101 28t55 67v378z" />
    <glyph glyph-name="Uring" unicode="&#x16e;" horiz-adv-x="718" 
d="M359 679q-46 0 -80.5 22t-46.5 56v78q12 33 46.5 55t80.5 22q45 0 79.5 -22t46.5 -55v-78q-11 -34 -45.5 -56t-80.5 -22zM359 726q29 0 49.5 12t26.5 28v59q-6 17 -26.5 29t-49.5 12t-50 -12t-27 -29v-59q6 -16 27 -28t50 -12zM367 -15q-97 0 -170 40.5t-100 100.5v580
h68v-558q19 -43 74.5 -71.5t127.5 -28.5t127.5 28.5t74.5 71.5v558h68v-580q-27 -60 -100 -100.5t-170 -40.5z" />
    <glyph glyph-name="uring" unicode="&#x16f;" horiz-adv-x="613" 
d="M305 593q-46 0 -80.5 22t-46.5 56v78q12 33 46.5 55t80.5 22q45 0 79.5 -22t46.5 -55v-78q-11 -34 -45.5 -56t-80.5 -22zM228 739v-59q6 -16 27 -28t50 -12t49.5 12t26.5 28v59q-6 17 -26.5 29t-49.5 12t-50 -12t-27 -29zM461 520h64v-520h-62v58q-60 -73 -168 -73
q-75 0 -132 37t-79 95v403h64v-382q17 -42 57.5 -66.5t99.5 -24.5q57 0 101 28t55 67v378z" />
    <glyph glyph-name="Uhungarumlaut" unicode="&#x170;" horiz-adv-x="734" 
d="M250 786v9l66 126h73v-18l-93 -117h-46zM419 786v9l66 126h73v-18l-93 -117h-46zM367 -15q-97 0 -170 40.5t-100 100.5v580h68v-558q19 -43 74.5 -71.5t127.5 -28.5t127.5 28.5t74.5 71.5v558h68v-580q-27 -60 -100 -100.5t-170 -40.5z" />
    <glyph glyph-name="uhungarumlaut" unicode="&#x171;" horiz-adv-x="613" 
d="M335 727l-93 -117h-46v9l66 126h73v-18zM504 727l-93 -117h-46v9l66 126h73v-18zM461 520h64v-520h-62v58q-60 -73 -168 -73q-75 0 -132 37t-79 95v403h64v-382q17 -42 57.5 -66.5t99.5 -24.5q57 0 101 28t55 67v378z" />
    <glyph glyph-name="Uogonek" unicode="&#x172;" horiz-adv-x="734" 
d="M469 -200q-73 0 -102 46v70q15 37 55 73q-23 -4 -55 -4q-97 0 -170 40.5t-100 100.5v580h68v-558q19 -43 74.5 -71.5t127.5 -28.5t127.5 28.5t74.5 71.5v558h68v-580q-24 -57 -109 -107q-83 -49 -104 -111v-34q15 -22 61 -22q23 0 40 6l9 -44q-26 -14 -65 -14z" />
    <glyph glyph-name="uogonek" unicode="&#x173;" horiz-adv-x="613" 
d="M532 -142l9 -44q-28 -14 -67 -14q-35 0 -62 13.5t-38 33.5v69q17 42 89 89v53q-60 -73 -168 -73q-75 0 -132 37t-79 95v403h64v-382q17 -42 57.5 -66.5t99.5 -24.5q57 0 101 28t55 67v378h64v-520q-80 -53 -94 -92v-33q14 -23 59 -23q25 0 42 6z" />
    <glyph glyph-name="Wcircumflex" unicode="&#x174;" horiz-adv-x="1065" 
d="M533 885l-87 -99h-54v10l86 125h109l86 -125v-10h-54zM962 706h62v-20l-212 -686h-84l-196 627l-195 -627h-84l-212 685v21h64l191 -635l197 635h81l196 -635z" />
    <glyph glyph-name="wcircumflex" unicode="&#x175;" horiz-adv-x="856" 
d="M428 709l-87 -99h-54v10l86 125h109l86 -125v-10h-54zM755 520h61v-18l-168 -502h-73l-147 429l-148 -429h-73l-167 502v18h61l145 -445l152 445h59l154 -446z" />
    <glyph glyph-name="Ycircumflex" unicode="&#x176;" horiz-adv-x="647" 
d="M324 885l-87 -99h-54v10l86 125h109l86 -125v-10h-54zM614 706v-20l-256 -400v-286h-68v285l-257 401v20h65l226 -355l224 355h66z" />
    <glyph glyph-name="ycircumflex" unicode="&#x177;" horiz-adv-x="536" 
d="M266 709l-87 -99h-54v10l86 125h109l86 -125v-10h-54zM446 520h60v-18l-300 -672h-59v20l84 188l-201 464v18h62l173 -406z" />
    <glyph glyph-name="Ydieresis" unicode="&#x178;" horiz-adv-x="647" 
d="M204 789q-36 0 -50 27v44q14 27 50 27t50 -27v-44q-14 -27 -50 -27zM443 789q-37 0 -50 27v44q13 27 50 27t50 -27v-44q-13 -27 -50 -27zM614 706v-20l-256 -400v-286h-68v285l-257 401v20h65l226 -355l224 355h66z" />
    <glyph glyph-name="Zacute" unicode="&#x179;" horiz-adv-x="689" 
d="M467 903l-92 -117h-53v9l66 126h79v-18zM623 706v-61l-473 -582h473v-63h-557v61l473 582h-465v63h549z" />
    <glyph glyph-name="zacute" unicode="&#x17a;" horiz-adv-x="524" 
d="M384 727l-92 -117h-53v9l66 126h79v-18zM471 520v-56l-337 -404h337v-60h-418v56l337 404h-333v60h414z" />
    <glyph glyph-name="Zdotaccent" unicode="&#x17b;" horiz-adv-x="689" 
d="M345 789q-37 0 -50 27v44q13 27 50 27t50 -27v-44q-13 -27 -50 -27zM623 706v-61l-473 -582h473v-63h-557v61l473 582h-465v63h549z" />
    <glyph glyph-name="zdotaccent" unicode="&#x17c;" horiz-adv-x="524" 
d="M262 632q-36 0 -50 27v44q14 27 50 27t50 -27v-44q-14 -27 -50 -27zM471 520v-56l-337 -404h337v-60h-418v56l337 404h-333v60h414z" />
    <glyph glyph-name="Zcaron" unicode="&#x17d;" horiz-adv-x="689" 
d="M290 786l-86 125v10h54l87 -99l86 99h54v-10l-86 -125h-109zM623 706v-61l-473 -582h473v-63h-557v61l473 582h-465v63h549z" />
    <glyph glyph-name="zcaron" unicode="&#x17e;" horiz-adv-x="524" 
d="M207 610l-86 125v10h54l87 -99l86 99h54v-10l-86 -125h-109zM471 520v-56l-337 -404h337v-60h-418v56l337 404h-333v60h414z" />
    <glyph glyph-name="florin" unicode="&#x192;" horiz-adv-x="544" 
d="M421 662q-50 0 -76.5 -15t-40.5 -47v-120h156v-55h-156v-343q-47 -98 -172 -98q-36 0 -58 6v54h49q50 0 76.5 15t40.5 47v319h-131v55h131v144q47 98 172 98q36 0 58 -6v-54h-49z" />
    <glyph glyph-name="Scommaaccent" unicode="&#x218;" horiz-adv-x="640" 
d="M432 368q110 -37 141 -126v-114q-24 -63 -93.5 -103t-157.5 -40q-93 0 -166 44.5t-99 112.5l62 32q25 -58 78.5 -92.5t124.5 -34.5q65 0 114.5 28t68.5 73v75q-25 60 -100 85q-36 12 -94 20.5t-99 22.5q-109 37 -139 124v103q25 64 93 103.5t153 39.5q88 0 158.5 -42.5
t96.5 -112.5l-62 -31q-23 57 -74.5 90.5t-119.5 33.5q-62 0 -110 -27t-67 -73v-66q23 -57 98 -82q36 -12 94 -20.5t99 -22.5zM317 -70q38 0 51 -28v-46l-57 -105h-41v10l38 72q-33 4 -43 29v38q12 30 52 30z" />
    <glyph glyph-name="scommaaccent" unicode="&#x219;" horiz-adv-x="508" 
d="M341 275q85 -26 109 -94v-86q-18 -48 -72 -79t-122 -31q-71 0 -129 34t-78 86l56 29q18 -40 58.5 -64t92.5 -24q48 0 83 18.5t48 49.5v50q-14 36 -73 56q-26 9 -70.5 15.5t-73.5 15.5q-86 27 -109 93v81q17 48 70.5 79t121.5 31q70 0 125 -33t75 -85l-57 -28
q-42 85 -145 85q-47 0 -81.5 -18t-45.5 -48v-46q13 -36 71 -56q26 -9 71.5 -15.5t74.5 -15.5zM253 -70q38 0 51 -28v-46l-57 -105h-41v10l38 72q-33 4 -43 29v38q12 30 52 30z" />
    <glyph glyph-name="uni021A" unicode="&#x21a;" horiz-adv-x="659" 
d="M35 706h589v-63h-260v-643h-68v643h-261v63zM330 -70q38 0 51 -28v-46l-57 -105h-41v10l38 72q-33 4 -43 29v38q12 30 52 30z" />
    <glyph glyph-name="uni021B" unicode="&#x21b;" horiz-adv-x="401" 
d="M317 55h49v-55q-23 -7 -57 -7q-124 0 -172 98v373h-111v56h71q33 0 40 21v144h64v-165h161v-56h-161v-347q14 -32 40.5 -47t75.5 -15zM243 -70q38 0 51 -28v-46l-57 -105h-41v10l38 72q-33 4 -43 29v38q12 30 52 30z" />
    <glyph glyph-name="circumflex" unicode="&#x2c6;" horiz-adv-x="395" 
d="M245 745l86 -125v-10h-54l-86 99l-87 -99h-54v10l86 125h109z" />
    <glyph glyph-name="caron" unicode="&#x2c7;" horiz-adv-x="395" 
d="M277 745h54v-10l-86 -125h-109l-86 125v10h54l87 -99z" />
    <glyph glyph-name="breve" unicode="&#x2d8;" horiz-adv-x="394" 
d="M197 608q-68 0 -106.5 34.5t-40.5 87.5h66q2 -31 21.5 -52t59.5 -21t59.5 21t21.5 52h66q-2 -53 -40.5 -87.5t-106.5 -34.5z" />
    <glyph glyph-name="dotaccent" unicode="&#x2d9;" horiz-adv-x="200" 
d="M100 632q-36 0 -50 27v44q14 27 50 27t50 -27v-44q-14 -27 -50 -27z" />
    <glyph glyph-name="ring" unicode="&#x2da;" horiz-adv-x="353" 
d="M177 593q-46 0 -80.5 22t-46.5 56v78q12 33 46.5 55t80.5 22q45 0 79.5 -22t46.5 -55v-78q-11 -34 -45.5 -56t-80.5 -22zM177 640q29 0 49.5 12t26.5 28v59q-6 17 -26.5 29t-49.5 12t-50 -12t-27 -29v-59q6 -16 27 -28t50 -12z" />
    <glyph glyph-name="ogonek" unicode="&#x2db;" horiz-adv-x="266" 
d="M150 -200q-35 0 -62 13.5t-38 33.5v69q10 23 41.5 52.5t77.5 54.5l32 -23q-80 -53 -94 -92v-33q14 -23 59 -23q25 0 42 6l9 -44q-28 -14 -67 -14z" />
    <glyph glyph-name="tilde" unicode="&#x2dc;" horiz-adv-x="448" 
d="M100 615l-50 17q7 37 33.5 61.5t63.5 24.5q38 0 84.5 -25.5t68.5 -25.5q38 0 48 50l50 -17q-8 -39 -33 -62.5t-64 -23.5q-35 0 -83 25.5t-70 25.5q-38 0 -48 -50z" />
    <glyph glyph-name="hungarumlaut" unicode="&#x2dd;" horiz-adv-x="413" 
d="M50 610v9l66 126h73v-18l-93 -117h-46zM219 610v9l66 126h73v-18l-93 -117h-46z" />
    <glyph glyph-name="gravecomb" unicode="&#x300;" horiz-adv-x="0" 
d="M-113 610l-92 117v18h79l66 -126v-9h-53z" />
    <glyph glyph-name="acutecomb" unicode="&#x301;" horiz-adv-x="0" 
d="M-205 610v9l66 126h79v-18l-92 -117h-53z" />
    <glyph glyph-name="uni0302" unicode="&#x302;" horiz-adv-x="0" 
d="M-146 745l86 -125v-10h-54l-86 99l-87 -99h-54v10l86 125h109z" />
    <glyph glyph-name="tildecomb" unicode="&#x303;" horiz-adv-x="0" 
d="M-358 615l-50 17q7 37 33.5 61.5t63.5 24.5q38 0 84.5 -25.5t68.5 -25.5q38 0 48 50l50 -17q-8 -39 -33 -62.5t-64 -23.5q-35 0 -83 25.5t-70 25.5q-38 0 -48 -50z" />
    <glyph glyph-name="uni0304" unicode="&#x304;" horiz-adv-x="0" 
d="M-344 637v56h284v-56h-284z" />
    <glyph glyph-name="uni0306" unicode="&#x306;" horiz-adv-x="0" 
d="M-207 608q-68 0 -106.5 34.5t-40.5 87.5h66q2 -31 21.5 -52t59.5 -21t59.5 21t21.5 52h66q-2 -53 -40.5 -87.5t-106.5 -34.5z" />
    <glyph glyph-name="uni0307" unicode="&#x307;" horiz-adv-x="0" 
d="M-110 632q-36 0 -50 27v44q14 27 50 27t50 -27v-44q-14 -27 -50 -27z" />
    <glyph glyph-name="uni0308" unicode="&#x308;" horiz-adv-x="0" 
d="M-320 632q-36 0 -50 27v44q14 27 50 27t50 -27v-44q-14 -27 -50 -27zM-110 632q-36 0 -50 27v44q14 27 50 27t50 -27v-44q-14 -27 -50 -27z" />
    <glyph glyph-name="uni030A" unicode="&#x30a;" horiz-adv-x="0" 
d="M-186 593q-46 0 -80.5 22t-46.5 56v78q12 33 46.5 55t80.5 22q45 0 79.5 -22t46.5 -55v-78q-11 -34 -45.5 -56t-80.5 -22zM-186 640q29 0 49.5 12t26.5 28v59q-6 17 -26.5 29t-49.5 12t-50 -12t-27 -29v-59q6 -16 27 -28t50 -12z" />
    <glyph glyph-name="uni030B" unicode="&#x30b;" horiz-adv-x="0" 
d="M-368 610v9l66 126h73v-18l-93 -117h-46zM-199 610v9l66 126h73v-18l-93 -117h-46z" />
    <glyph glyph-name="uni030C" unicode="&#x30c;" horiz-adv-x="0" 
d="M-114 745h54v-10l-86 -125h-109l-86 125v10h54l87 -99z" />
    <glyph glyph-name="uni0312" unicode="&#x312;" horiz-adv-x="0" 
d="M-103 730q33 -4 43 -29v-38q-12 -30 -52 -30q-38 0 -51 28v46l57 105h41v-10z" />
    <glyph glyph-name="uni0326" unicode="&#x326;" horiz-adv-x="0" 
d="M-111 -70q38 0 51 -28v-46l-57 -105h-41v10l38 72q-33 4 -43 29v38q12 30 52 30z" />
    <glyph glyph-name="uni0327" unicode="&#x327;" horiz-adv-x="0" 
d="M-151 -51q33 0 58 -16t33 -36v-61q-10 -26 -40.5 -41.5t-70.5 -15.5q-57 0 -101 26l26 42q32 -19 78 -19q47 0 56 25v32q-9 22 -56 22h-56l46 113l45 -15l-23 -56h5z" />
    <glyph glyph-name="uni0328" unicode="&#x328;" horiz-adv-x="0" 
d="M-127 -200q-35 0 -62 13.5t-38 33.5v69q10 23 41.5 52.5t77.5 54.5l32 -23q-80 -53 -94 -92v-33q14 -23 59 -23q25 0 42 6l9 -44q-28 -14 -67 -14z" />
    <glyph glyph-name="uni03BC" unicode="&#x3bc;" horiz-adv-x="610" 
d="M458 520h64v-520h-62v58q-58 -73 -161 -73q-92 0 -151 62v-217h-64v690h64v-382q17 -42 58 -66.5t99 -24.5q57 0 99.5 27.5t53.5 67.5v378z" />
    <glyph glyph-name="pi" unicode="&#x3c0;" horiz-adv-x="668" 
d="M642 520v-56h-107v-464h-64v464h-275v-464h-64v464h-106v56h616z" />
    <glyph glyph-name="Wgrave" unicode="&#x1e80;" horiz-adv-x="1065" 
d="M555 786h-53l-92 117v18h79l66 -126v-9zM962 706h62v-20l-212 -686h-84l-196 627l-195 -627h-84l-212 685v21h64l191 -635l197 635h81l196 -635z" />
    <glyph glyph-name="wgrave" unicode="&#x1e81;" horiz-adv-x="856" 
d="M450 610h-53l-92 117v18h79l66 -126v-9zM755 520h61v-18l-168 -502h-73l-147 429l-148 -429h-73l-167 502v18h61l145 -445l152 445h59l154 -446z" />
    <glyph glyph-name="Wacute" unicode="&#x1e82;" horiz-adv-x="1065" 
d="M655 903l-92 -117h-53v9l66 126h79v-18zM962 706h62v-20l-212 -686h-84l-196 627l-195 -627h-84l-212 685v21h64l191 -635l197 635h81l196 -635z" />
    <glyph glyph-name="wacute" unicode="&#x1e83;" horiz-adv-x="856" 
d="M550 727l-92 -117h-53v9l66 126h79v-18zM755 520h61v-18l-168 -502h-73l-147 429l-148 -429h-73l-167 502v18h61l145 -445l152 445h59l154 -446z" />
    <glyph glyph-name="Wdieresis" unicode="&#x1e84;" horiz-adv-x="1065" 
d="M413 789q-37 0 -50 27v44q13 27 50 27t50 -27v-44q-13 -27 -50 -27zM652 789q-36 0 -50 27v44q14 27 50 27t50 -27v-44q-14 -27 -50 -27zM962 706h62v-20l-212 -686h-84l-196 627l-195 -627h-84l-212 685v21h64l191 -635l197 635h81l196 -635z" />
    <glyph glyph-name="wdieresis" unicode="&#x1e85;" horiz-adv-x="856" 
d="M323 632q-37 0 -50 27v44q13 27 50 27t50 -27v-44q-13 -27 -50 -27zM533 632q-37 0 -50 27v44q13 27 50 27t50 -27v-44q-13 -27 -50 -27zM755 520h61v-18l-168 -502h-73l-147 429l-148 -429h-73l-167 502v18h61l145 -445l152 445h59l154 -446z" />
    <glyph glyph-name="Ygrave" unicode="&#x1ef2;" horiz-adv-x="647" 
d="M346 786h-53l-92 117v18h79l66 -126v-9zM614 706v-20l-256 -400v-286h-68v285l-257 401v20h65l226 -355l224 355h66z" />
    <glyph glyph-name="ygrave" unicode="&#x1ef3;" horiz-adv-x="536" 
d="M288 610h-53l-92 117v18h79l66 -126v-9zM446 520h60v-18l-300 -672h-59v20l84 188l-201 464v18h62l173 -406z" />
    <glyph glyph-name="endash" unicode="&#x2013;" horiz-adv-x="852" 
d="M72 284v59h708v-59h-708z" />
    <glyph glyph-name="emdash" unicode="&#x2014;" horiz-adv-x="1218" 
d="M78 284v57h1062v-57h-1062z" />
    <glyph glyph-name="quoteleft" unicode="&#x2018;" horiz-adv-x="223" 
d="M163 706v-10l-45 -110q35 -2 45 -29v-38q-12 -30 -52 -30q-38 0 -51 28v46l60 143h43z" />
    <glyph glyph-name="quoteright" unicode="&#x2019;" horiz-adv-x="223" 
d="M112 712q38 0 51 -28v-46l-60 -143h-43v10l45 110q-35 2 -45 29v38q12 30 52 30z" />
    <glyph glyph-name="quotesinglbase" unicode="&#x201a;" horiz-adv-x="223" 
d="M112 90q38 0 51 -28v-46l-60 -143h-43v10l45 110q-35 2 -45 29v38q12 30 52 30z" />
    <glyph glyph-name="quotedblleft" unicode="&#x201c;" horiz-adv-x="423" 
d="M60 563l60 143h43v-10l-45 -110q35 -2 45 -29v-38q-12 -30 -52 -30q-38 0 -51 28v46zM363 706v-10l-45 -110q35 -2 45 -29v-38q-12 -30 -52 -30q-38 0 -51 28v46l60 143h43z" />
    <glyph glyph-name="quotedblright" unicode="&#x201d;" horiz-adv-x="423" 
d="M112 712q38 0 51 -28v-46l-60 -143h-43v10l45 110q-35 2 -45 29v38q12 30 52 30zM312 712q38 0 51 -28v-46l-60 -143h-43v10l45 110q-35 2 -45 29v38q12 30 52 30z" />
    <glyph glyph-name="quotedblbase" unicode="&#x201e;" horiz-adv-x="423" 
d="M112 90q38 0 51 -28v-46l-60 -143h-43v10l45 110q-35 2 -45 29v38q12 30 52 30zM312 90q38 0 51 -28v-46l-60 -143h-43v10l45 110q-35 2 -45 29v38q12 30 52 30z" />
    <glyph glyph-name="dagger" unicode="&#x2020;" horiz-adv-x="623" 
d="M297 -170l-21 149v374l12 76l-101 -19h-127v70h127l101 -19l-12 78v167h71v-167l-12 -78l101 19h127v-70h-127l-101 19l12 -76v-374l-20 -149h-30z" />
    <glyph glyph-name="daggerdbl" unicode="&#x2021;" horiz-adv-x="663" 
d="M317 -170l-21 149v116l12 78l-101 -19h-127v70h127l101 -19l-12 67v121l12 76l-101 -19h-127v70h127l101 -19l-12 78v127h71v-127l-12 -78l101 19h127v-70h-127l-101 19l12 -76v-121l-12 -67l101 19h127v-70h-127l-101 19l12 -78v-116l-20 -149h-30z" />
    <glyph glyph-name="bullet" unicode="&#x2022;" horiz-adv-x="470" 
d="M235 190q-48 0 -85.5 26t-49.5 64v98q12 38 49.5 64t85.5 26q47 0 84.5 -26t49.5 -64v-98q-12 -38 -49.5 -64t-84.5 -26z" />
    <glyph glyph-name="ellipsis" unicode="&#x2026;" horiz-adv-x="661" 
d="M110 -8q-38 0 -50 30v38q12 30 50 30q36 0 49 -28v-42q-13 -28 -49 -28zM331 -8q-38 0 -50 30v38q12 30 50 30q36 0 49 -28v-42q-13 -28 -49 -28zM552 -8q-38 0 -50 30v38q12 30 50 30q36 0 49 -28v-42q-13 -28 -49 -28z" />
    <glyph glyph-name="perthousand" unicode="&#x2030;" horiz-adv-x="1320" 
d="M232 389q-58 0 -104.5 29.5t-61.5 72.5v126q16 43 62 72.5t104 29.5t104 -29.5t62 -72.5v-126q-15 -43 -61.5 -72.5t-104.5 -29.5zM752 698l-532 -698h-61v8l532 698h61v-8zM232 443q39 0 67 17.5t41 45.5v96q-13 28 -41 45t-67 17t-67 -17t-41 -45v-96q13 -28 41 -45.5
t67 -17.5zM678 -11q-58 0 -104.5 29.5t-61.5 72.5v126q16 43 62 72.5t104 29.5t104 -29.5t62 -72.5v-126q-15 -43 -61.5 -72.5t-104.5 -29.5zM1088 -11q-58 0 -104.5 29.5t-61.5 72.5v126q16 43 62 72.5t104 29.5t104 -29.5t62 -72.5v-126q-15 -43 -61.5 -72.5t-104.5 -29.5
zM678 43q39 0 67 17.5t41 45.5v96q-13 28 -41 45t-67 17t-67 -17t-41 -45v-96q13 -28 41 -45.5t67 -17.5zM1088 43q39 0 67 17.5t41 45.5v96q-13 28 -41 45t-67 17t-67 -17t-41 -45v-96q13 -28 41 -45.5t67 -17.5z" />
    <glyph glyph-name="guilsinglleft" unicode="&#x2039;" horiz-adv-x="382" 
d="M261 70l-191 199v32l191 199h41v-38l-172 -177l172 -177v-38h-41z" />
    <glyph glyph-name="guilsinglright" unicode="&#x203a;" horiz-adv-x="382" 
d="M121 70h-41v38l172 177l-172 177v38h41l191 -199v-32z" />
    <glyph glyph-name="fraction" unicode="&#x2044;" horiz-adv-x="225" 
d="M409 698l-532 -698h-61v8l532 698h61v-8z" />
    <glyph glyph-name="Euro" unicode="&#x20ac;" 
d="M364 48q63 0 113 28.5t74 80.5l63 -28q-27 -62 -95.5 -103t-154.5 -41q-87 0 -155 41t-91 103v133h-73v49h73v88h-73v49h73v129q23 62 91 103t155 41q86 0 154.5 -41t95.5 -103l-63 -28q-24 52 -74 80.5t-113 28.5q-62 0 -112 -28.5t-68 -74.5v-107h275v-49h-275v-88h275
v-49h-275v-111q18 -46 68 -74.5t112 -28.5z" />
    <glyph glyph-name="uni20B9" unicode="&#x20b9;" 
d="M593 706v-49h-148q50 -37 68 -89v-9h80v-49h-80v-79q-20 -59 -82 -98.5t-139 -39.5h-88l285 -273v-20h-72l-304 293v61h177q52 0 95.5 26.5t59.5 67.5v62h-332v49h328q-18 38 -60 61.5t-91 23.5h-177v62h480z" />
    <glyph glyph-name="uni20BA" unicode="&#x20ba;" 
d="M528 157l63 -28q-27 -62 -95.5 -103t-154.5 -41h-156v287l-116 -53v51l116 53v107l-116 -53v51l116 53v226h66v-196l192 87v-51l-192 -87v-107l192 87v-51l-192 -87v-254h90q63 0 113 28.5t74 80.5z" />
    <glyph glyph-name="uni20BD" unicode="&#x20bd;" 
d="M367 706q77 0 139 -39t82 -98v-127q-20 -59 -82 -98t-139 -39h-144v-86h237v-49h-237v-170h-66v170h-107v49h107v86h-107v55h107v346h210zM522 454v95q-16 41 -59.5 67.5t-95.5 26.5h-144v-283h144q52 0 95.5 26.5t59.5 67.5z" />
    <glyph glyph-name="uni2116" unicode="&#x2116;" horiz-adv-x="1309" 
d="M1011 716q70 0 124 -35t71 -90v-141q-17 -55 -71 -90t-124 -35t-124 35t-72 90v141q18 55 72 90t124 35zM595 114v592h66v-706h-67l-425 619v-619h-66v706h84zM1144 467v107q-11 36 -48.5 60t-84.5 24q-48 0 -85.5 -24t-47.5 -60v-107q10 -36 47.5 -60.5t85.5 -24.5
q47 0 84.5 24.5t48.5 60.5z" />
    <glyph glyph-name="uni2117" unicode="&#x2117;" horiz-adv-x="846" 
d="M423 721q124 0 223 -62.5t130 -156.5v-298q-31 -94 -130 -156.5t-223 -62.5t-223 62.5t-130 156.5v298q31 94 130 156.5t223 62.5zM725 220v266q-22 80 -108.5 132.5t-193.5 52.5t-193.5 -52.5t-108.5 -132.5v-266q22 -80 108.5 -132.5t193.5 -52.5t193.5 52.5
t108.5 132.5zM461 561q46 0 84.5 -24.5t50.5 -60.5v-108q-12 -35 -50 -59t-85 -24h-119v-144h-62v420h181zM534 390v66q-8 20 -28.5 33t-45.5 13h-118v-159h118q25 0 45.5 13.5t28.5 33.5z" />
    <glyph glyph-name="trademark" unicode="&#x2122;" horiz-adv-x="898" 
d="M169 331v326h-139v49h331v-49h-139v-326h-53zM428 331v375h77l133 -306l132 306h78v-375h-51v317l-138 -317h-42l-138 315v-315h-51z" />
    <glyph glyph-name="oneeighth" unicode="&#x215b;" horiz-adv-x="945" 
d="M136 304v287h-93v47q95 3 106 68h47v-402h-60zM718 706v-8l-532 -698h-61v8l532 698h61zM835 209q41 -21 57 -56v-84q-16 -33 -57.5 -55.5t-94.5 -22.5t-94.5 22.5t-57.5 55.5v84q16 35 57 56q-35 21 -50 52v72q15 34 54.5 56t90.5 22t90 -22t54 -56v-72q-14 -31 -49 -52
zM656 317v-45q8 -18 31.5 -29t52.5 -11t52.5 11t31.5 29v45q-8 17 -31.5 28.5t-52.5 11.5t-52.5 -11.5t-31.5 -28.5zM831 89v54q-22 39 -91 39q-32 0 -57 -11t-34 -28v-54q9 -19 34 -30.5t57 -11.5q69 0 91 42z" />
    <glyph glyph-name="threeeighths" unicode="&#x215c;" horiz-adv-x="1035" 
d="M343 378q-14 -35 -56.5 -59t-95.5 -24q-55 0 -98.5 26t-60.5 67l55 26q28 -63 104 -63q32 0 57 13t34 33v40q-8 21 -33.5 34t-57.5 13h-38v53h39q30 0 53 12t32 32v35q-9 19 -32.5 31.5t-52.5 12.5q-71 0 -98 -60l-55 25q16 40 57.5 65t95.5 25q51 0 91.5 -23.5
t53.5 -57.5v-63q-14 -37 -62 -61q53 -24 68 -64v-68zM808 706v-8l-532 -698h-61v8l532 698h61zM925 209q41 -21 57 -56v-84q-16 -33 -57.5 -55.5t-94.5 -22.5t-94.5 22.5t-57.5 55.5v84q16 35 57 56q-35 21 -50 52v72q15 34 54.5 56t90.5 22t90 -22t54 -56v-72
q-14 -31 -49 -52zM746 317v-45q8 -18 31.5 -29t52.5 -11t52.5 11t31.5 29v45q-8 17 -31.5 28.5t-52.5 11.5t-52.5 -11.5t-31.5 -28.5zM921 89v54q-22 39 -91 39q-32 0 -57 -11t-34 -28v-54q9 -19 34 -30.5t57 -11.5q69 0 91 42z" />
    <glyph glyph-name="fiveeighths" unicode="&#x215d;" horiz-adv-x="1034" 
d="M348 378q-13 -34 -55.5 -58.5t-95.5 -24.5q-56 0 -99.5 26t-59.5 67l55 26q28 -63 104 -63q31 0 56.5 13t34.5 33v68q-9 21 -35 34t-58 13q-56 0 -90 -31l-51 16l27 209h249v-56h-201l-14 -108q35 24 89 24q51 0 91.5 -24t52.5 -59v-105zM807 706v-8l-532 -698h-61v8
l532 698h61zM924 209q41 -21 57 -56v-84q-16 -33 -57.5 -55.5t-94.5 -22.5t-94.5 22.5t-57.5 55.5v84q16 35 57 56q-34 21 -50 52v72q15 34 54.5 56t90.5 22t90 -22t54 -56v-72q-14 -31 -49 -52zM745 317v-45q8 -18 31.5 -29t52.5 -11t52.5 11t31.5 29v45q-8 17 -31.5 28.5
t-52.5 11.5t-52.5 -11.5t-31.5 -28.5zM920 89v54q-22 39 -91 39q-32 0 -57 -11t-34 -28v-54q9 -19 34 -30.5t57 -11.5q69 0 91 42z" />
    <glyph glyph-name="seveneighths" unicode="&#x215e;" horiz-adv-x="961" 
d="M227 565q35 61 39 74v11h-233v56h293v-75q-4 -13 -45 -87l-136 -240h-60v13zM734 706v-8l-532 -698h-61v8l532 698h61zM851 209q41 -21 57 -56v-84q-16 -33 -57.5 -55.5t-94.5 -22.5t-94.5 22.5t-57.5 55.5v84q16 35 57 56q-35 21 -50 52v72q15 34 54.5 56t90.5 22
t90 -22t54 -56v-72q-14 -31 -49 -52zM672 317v-45q8 -18 31.5 -29t52.5 -11t52.5 11t31.5 29v45q-8 17 -31.5 28.5t-52.5 11.5t-52.5 -11.5t-31.5 -28.5zM847 89v54q-22 39 -91 39q-32 0 -57 -11t-34 -28v-54q9 -19 34 -30.5t57 -11.5q69 0 91 42z" />
    <glyph glyph-name="arrowleft" unicode="&#x2190;" horiz-adv-x="860" 
d="M830 393v-57h-726l297 -296v-40h-44l-337 338v53l337 339h44v-40l-298 -297h727z" />
    <glyph glyph-name="arrowup" unicode="&#x2191;" horiz-adv-x="790" 
d="M423 745l337 -336v-42h-41l-293 292v-659h-61v660l-294 -293h-41v42l338 336h55z" />
    <glyph glyph-name="arrowright" unicode="&#x2192;" horiz-adv-x="850" 
d="M493 730l337 -339v-53l-337 -338h-44v40l297 296h-726v57h727l-298 297v40h44z" />
    <glyph glyph-name="arrowdown" unicode="&#x2193;" horiz-adv-x="790" 
d="M719 333h41v-42l-337 -336h-55l-338 336v42h41l294 -293v660h61v-659z" />
    <glyph glyph-name="minus" unicode="&#x2212;" 
d="M52 323v59h540v-59h-540z" />
    <glyph glyph-name="approxequal" unicode="&#x2248;" 
d="M61 412v62q6 5 17 12.5t47 20.5t74 13q50 0 137.5 -25.5t130.5 -25.5q29 0 57 11t42 22l13 11v-67q-42 -34 -111 -34q-53 0 -139 25.5t-132 25.5q-35 0 -69 -12.5t-50 -25.5zM61 212v62q6 5 17 12.5t47 20.5t74 13q50 0 137.5 -25.5t130.5 -25.5q29 0 57 11t42 22l13 11
v-67q-42 -34 -111 -34q-53 0 -139 25.5t-132 25.5q-35 0 -69 -12.5t-50 -25.5z" />
    <glyph glyph-name="notequal" unicode="&#x2260;" 
d="M592 433h-200l-60 -161h260v-59h-282l-48 -130h-55v10l44 120h-199v59h221l60 161h-281v59h303l48 130h55v-10l-44 -120h178v-59z" />
    <glyph glyph-name="lessequal" unicode="&#x2264;" 
d="M592 216v-64l-540 190v59l540 190v-64l-460 -155zM54 59h540v-59h-540v59z" />
    <glyph glyph-name="greaterequal" unicode="&#x2265;" 
d="M54 592l540 -190v-59l-540 -190v64l460 156l-460 155v64zM50 0v59h540v-59h-540z" />
    <glyph glyph-name="W.ss03" horiz-adv-x="1073" 
d="M970 706h62v-20l-241 -686h-63l-191 523l-192 -523h-63l-241 686v20h64l211 -609l185 510l-37 99h145l-36 -96l186 -516z" />
    <glyph glyph-name="Wacute.ss03" horiz-adv-x="1073" 
d="M669 907l-92 -117h-53v9l66 126h79v-18zM970 706h62v-20l-241 -686h-63l-191 523l-192 -523h-63l-241 686v20h64l211 -609l185 510l-37 99h145l-36 -96l186 -516z" />
    <glyph glyph-name="Wcircumflex.ss03" horiz-adv-x="1073" 
d="M547 889l-87 -99h-54v10l86 125h109l86 -125v-10h-54zM970 706h62v-20l-241 -686h-63l-191 523l-192 -523h-63l-241 686v20h64l211 -609l185 510l-37 99h145l-36 -96l186 -516z" />
    <glyph glyph-name="Wdieresis.ss03" horiz-adv-x="1073" 
d="M427 793q-37 0 -50 27v44q13 27 50 27t50 -27v-44q-13 -27 -50 -27zM666 793q-36 0 -50 27v44q14 27 50 27t50 -27v-44q-14 -27 -50 -27zM970 706h62v-20l-241 -686h-63l-191 523l-192 -523h-63l-241 686v20h64l211 -609l185 510l-37 99h145l-36 -96l186 -516z" />
    <glyph glyph-name="Wgrave.ss03" horiz-adv-x="1073" 
d="M569 790h-53l-92 117v18h79l66 -126v-9zM970 706h62v-20l-241 -686h-63l-191 523l-192 -523h-63l-241 686v20h64l211 -609l185 510l-37 99h145l-36 -96l186 -516z" />
    <glyph glyph-name="a.ss01" 
d="M492 520h64v-520h-62v68q-70 -83 -187 -83q-86 0 -153.5 48.5t-89.5 123.5v207q22 75 89 123t154 48q116 0 185 -81v66zM492 148v224q-23 45 -71.5 73t-108.5 28q-67 0 -118.5 -37t-65.5 -92v-168q14 -55 65.5 -92t118.5 -37q60 0 108.5 28t71.5 73z" />
    <glyph glyph-name="aacute.ss01" 
d="M443 727l-92 -117h-53v9l66 126h79v-18zM492 520h64v-520h-62v68q-70 -83 -187 -83q-86 0 -153.5 48.5t-89.5 123.5v207q22 75 89 123t154 48q116 0 185 -81v66zM492 148v224q-23 45 -71.5 73t-108.5 28q-67 0 -118.5 -37t-65.5 -92v-168q14 -55 65.5 -92t118.5 -37
q60 0 108.5 28t71.5 73z" />
    <glyph glyph-name="abreve.ss01" 
d="M321 608q-68 0 -106.5 34.5t-40.5 87.5h66q2 -31 21.5 -52t59.5 -21t59.5 21t21.5 52h66q-2 -53 -40.5 -87.5t-106.5 -34.5zM492 520h64v-520h-62v68q-70 -83 -187 -83q-86 0 -153.5 48.5t-89.5 123.5v207q22 75 89 123t154 48q116 0 185 -81v66zM492 148v224
q-23 45 -71.5 73t-108.5 28q-67 0 -118.5 -37t-65.5 -92v-168q14 -55 65.5 -92t118.5 -37q60 0 108.5 28t71.5 73z" />
    <glyph glyph-name="acircumflex.ss01" 
d="M321 709l-87 -99h-54v10l86 125h109l86 -125v-10h-54zM492 520h64v-520h-62v68q-70 -83 -187 -83q-86 0 -153.5 48.5t-89.5 123.5v207q22 75 89 123t154 48q116 0 185 -81v66zM492 148v224q-23 45 -71.5 73t-108.5 28q-67 0 -118.5 -37t-65.5 -92v-168q14 -55 65.5 -92
t118.5 -37q60 0 108.5 28t71.5 73z" />
    <glyph glyph-name="adieresis.ss01" 
d="M216 632q-36 0 -50 27v44q14 27 50 27t50 -27v-44q-14 -27 -50 -27zM426 632q-36 0 -50 27v44q14 27 50 27t50 -27v-44q-14 -27 -50 -27zM492 520h64v-520h-62v68q-70 -83 -187 -83q-86 0 -153.5 48.5t-89.5 123.5v207q22 75 89 123t154 48q116 0 185 -81v66zM492 148
v224q-23 45 -71.5 73t-108.5 28q-67 0 -118.5 -37t-65.5 -92v-168q14 -55 65.5 -92t118.5 -37q60 0 108.5 28t71.5 73z" />
    <glyph glyph-name="agrave.ss01" 
d="M343 610h-53l-92 117v18h79l66 -126v-9zM492 520h64v-520h-62v68q-70 -83 -187 -83q-86 0 -153.5 48.5t-89.5 123.5v207q22 75 89 123t154 48q116 0 185 -81v66zM492 148v224q-23 45 -71.5 73t-108.5 28q-67 0 -118.5 -37t-65.5 -92v-168q14 -55 65.5 -92t118.5 -37
q60 0 108.5 28t71.5 73z" />
    <glyph glyph-name="amacron.ss01" 
d="M463 693v-56h-284v56h284zM492 520h64v-520h-62v68q-70 -83 -187 -83q-86 0 -153.5 48.5t-89.5 123.5v207q22 75 89 123t154 48q116 0 185 -81v66zM492 148v224q-23 45 -71.5 73t-108.5 28q-67 0 -118.5 -37t-65.5 -92v-168q14 -55 65.5 -92t118.5 -37q60 0 108.5 28
t71.5 73z" />
    <glyph glyph-name="aogonek.ss01" 
d="M563 -142l9 -44q-28 -14 -67 -14q-35 0 -62 13.5t-38 33.5v69q17 42 89 89v63q-70 -83 -187 -83q-86 0 -153.5 48.5t-89.5 123.5v207q22 75 89 123t154 48q116 0 185 -81v66h64v-520q-80 -53 -94 -92v-33q14 -23 59 -23q25 0 42 6zM492 148v224q-23 45 -71.5 73
t-108.5 28q-67 0 -118.5 -37t-65.5 -92v-168q14 -55 65.5 -92t118.5 -37q60 0 108.5 28t71.5 73z" />
    <glyph glyph-name="aring.ss01" 
d="M321 593q-46 0 -80.5 22t-46.5 56v78q12 33 46.5 55t80.5 22q45 0 79.5 -22t46.5 -55v-78q-11 -34 -45.5 -56t-80.5 -22zM244 739v-59q6 -16 27 -28t50 -12t49.5 12t26.5 28v59q-6 17 -26.5 29t-49.5 12t-50 -12t-27 -29zM492 520h64v-520h-62v68q-70 -83 -187 -83
q-86 0 -153.5 48.5t-89.5 123.5v207q22 75 89 123t154 48q116 0 185 -81v66zM492 148v224q-23 45 -71.5 73t-108.5 28q-67 0 -118.5 -37t-65.5 -92v-168q14 -55 65.5 -92t118.5 -37q60 0 108.5 28t71.5 73z" />
    <glyph glyph-name="atilde.ss01" 
d="M245 665q-38 0 -48 -50l-50 17q7 37 33.5 61.5t63.5 24.5q38 0 84.5 -25.5t68.5 -25.5q38 0 48 50l50 -17q-8 -39 -33 -62.5t-64 -23.5q-35 0 -83 25.5t-70 25.5zM492 520h64v-520h-62v68q-70 -83 -187 -83q-86 0 -153.5 48.5t-89.5 123.5v207q22 75 89 123t154 48
q116 0 185 -81v66zM492 148v224q-23 45 -71.5 73t-108.5 28q-67 0 -118.5 -37t-65.5 -92v-168q14 -55 65.5 -92t118.5 -37q60 0 108.5 28t71.5 73z" />
    <glyph glyph-name="i.loclTRK" horiz-adv-x="244" 
d="M122 632q-36 0 -50 27v44q14 27 50 27t50 -27v-44q-14 -27 -50 -27zM90 0v520h64v-520h-64z" />
    <glyph glyph-name="l.ss02" horiz-adv-x="258" 
d="M242 -7q-122 0 -154 98v639h64v-616q6 -27 29.5 -45t60.5 -19v-57z" />
    <glyph glyph-name="lacute.ss02" horiz-adv-x="258" 
d="M98 785v9l66 126h79v-18l-92 -117h-53zM242 -7q-122 0 -154 98v639h64v-616q6 -27 29.5 -45t60.5 -19v-57z" />
    <glyph glyph-name="lcaron.ss02" horiz-adv-x="339" 
d="M242 -7q-122 0 -154 98v639h64v-616q6 -27 29.5 -45t60.5 -19v-57zM242 540l25 190h62v-19l-43 -171h-44z" />
    <glyph glyph-name="lcommaaccent.ss02" horiz-adv-x="258" 
d="M152 114q6 -27 29.5 -45t60.5 -19v-57q-122 0 -154 98v639h64v-616zM160 -70q38 0 51 -28v-46l-57 -105h-41v10l38 72q-33 4 -43 29v38q12 30 52 30z" />
    <glyph glyph-name="lslash.ss02" horiz-adv-x="385" 
d="M345 471l-125 -68v-289q6 -27 29.5 -45t60.5 -19v-57q-122 0 -154 98v277l-116 -64v59l116 64v303h64v-268l125 68v-59z" />
    <glyph glyph-name="w.ss03" horiz-adv-x="878" 
d="M777 520h61v-20l-184 -500h-69l-146 366l-145 -366h-71l-183 500v20h61l161 -447l144 368l-31 79h130l-31 -80l143 -365z" />
    <glyph glyph-name="wacute.ss03" horiz-adv-x="878" 
d="M561 727l-92 -117h-53v9l66 126h79v-18zM777 520h61v-20l-184 -500h-69l-146 366l-145 -366h-71l-183 500v20h61l161 -447l144 368l-31 79h130l-31 -80l143 -365z" />
    <glyph glyph-name="wcircumflex.ss03" horiz-adv-x="878" 
d="M439 709l-87 -99h-54v10l86 125h109l86 -125v-10h-54zM777 520h61v-20l-184 -500h-69l-146 366l-145 -366h-71l-183 500v20h61l161 -447l144 368l-31 79h130l-31 -80l143 -365z" />
    <glyph glyph-name="wdieresis.ss03" horiz-adv-x="878" 
d="M334 632q-36 0 -50 27v44q14 27 50 27t50 -27v-44q-14 -27 -50 -27zM544 632q-36 0 -50 27v44q14 27 50 27t50 -27v-44q-14 -27 -50 -27zM777 520h61v-20l-184 -500h-69l-146 366l-145 -366h-71l-183 500v20h61l161 -447l144 368l-31 79h130l-31 -80l143 -365z" />
    <glyph glyph-name="wgrave.ss03" horiz-adv-x="878" 
d="M461 610h-53l-92 117v18h79l66 -126v-9zM777 520h61v-20l-184 -500h-69l-146 366l-145 -366h-71l-183 500v20h61l161 -447l144 368l-31 79h130l-31 -80l143 -365z" />
    <glyph glyph-name="zero.tf" 
d="M322 -15q-86 0 -153 42.5t-88 105.5v440q21 63 88 105.5t153 42.5t153 -42.5t88 -105.5v-440q-21 -63 -88 -105.5t-153 -42.5zM322 47q61 0 110 30t65 77v398q-16 47 -65 77t-110 30t-110 -30t-65 -77v-398q16 -47 65 -77t110 -30z" />
    <glyph glyph-name="one.tf" 
d="M374 57h154v-57h-381v57h161v480h-154v51q84 1 124 29.5t42 88.5h54v-649z" />
    <glyph glyph-name="two.tf" 
d="M75 0v114q14 40 51.5 76t103.5 76l153 93q91 54 108 111v86q-16 46 -64.5 74.5t-108.5 28.5q-65 0 -115.5 -33t-71.5 -92l-62 30q25 69 94 113t155 44q84 0 151.5 -41.5t87.5 -101.5v-129q-12 -43 -48.5 -76.5t-93.5 -68.5l-153 -92q-105 -63 -121 -116v-34h426v-62h-492
z" />
    <glyph glyph-name="three.tf" 
d="M423 363q49 -19 84.5 -51.5t49.5 -71.5v-112q-23 -61 -91.5 -102t-155.5 -41q-88 0 -160.5 45t-96.5 112l62 30q22 -58 74.5 -91.5t120.5 -33.5q63 0 113.5 28t67.5 73v80q-16 46 -66.5 75t-113.5 29h-65v62h65q59 0 106 27.5t64 71.5v67q-17 43 -64.5 71t-105.5 28
q-62 0 -112.5 -33t-71.5 -88l-61 31q24 65 92.5 108.5t152.5 43.5q83 0 148.5 -40t87.5 -100v-102q-14 -37 -46.5 -67.5t-77.5 -48.5z" />
    <glyph glyph-name="four.tf" 
d="M490 225h108v-62h-108v-163h-66v163h-366v73l338 470h94v-481zM121 225h303v421z" />
    <glyph glyph-name="five.tf" 
d="M333 452q86 0 153.5 -41t87.5 -104v-179q-22 -60 -91 -101.5t-155 -41.5q-88 0 -160 45t-96 112l62 30q22 -59 74.5 -92t119.5 -33q62 0 113 28.5t67 72.5v138q-16 46 -66.5 75t-113.5 29q-111 0 -172 -64l-55 18l45 362h398v-63h-346l-30 -241q61 50 165 50z" />
    <glyph glyph-name="six.tf" 
d="M332 456q85 0 151.5 -40.5t89.5 -101.5v-186q-23 -61 -91 -102t-155 -41t-155 41t-91 102v186q8 26 33 64l225 328h64v-22l-178 -255q44 27 107 27zM507 149v144q-18 45 -68 73.5t-112 28.5t-112 -28.5t-68 -73.5v-144q18 -45 68 -73.5t112 -28.5t112 28.5t68 73.5z" />
    <glyph glyph-name="seven.tf" 
d="M155 0v20l258 463q59 106 68 136v25h-410v62h473v-103q-4 -15 -12 -32t-15 -30t-23 -41t-26 -46l-251 -454h-62z" />
    <glyph glyph-name="eight.tf" 
d="M452 368q88 -39 116 -109v-139q-23 -58 -91 -96.5t-155 -38.5t-155 38.5t-91 96.5v139q28 70 116 109q-75 37 -102 105v113q22 58 86 96.5t146 38.5t146 -38.5t86 -96.5v-113q-27 -68 -102 -105zM155 485q17 -40 63.5 -65t103.5 -25t103.5 25t63.5 65v83q-17 41 -63 66
t-104 25t-104 -25t-63 -66v-83zM502 143v104q-18 40 -68 65t-112 25t-112 -25t-68 -65v-104q18 -43 68 -69.5t112 -26.5t112 26.5t68 69.5z" />
    <glyph glyph-name="nine.tf" 
d="M317 721q87 0 155 -41t91 -102v-186q-8 -26 -33 -64l-225 -328h-61v22l179 257q-44 -29 -110 -29q-85 0 -152 41t-90 101v186q23 61 91 102t155 41zM497 413v144q-18 45 -68 73.5t-112 28.5t-112 -28.5t-68 -73.5v-144q18 -45 68 -73.5t112 -28.5t112 28.5t68 73.5z" />
    <glyph glyph-name="zero.dnom" horiz-adv-x="424" 
d="M212 -9q-53 0 -95 23.5t-57 59.5v254q15 36 57 59.5t95 23.5t95 -23.5t57 -59.5v-254q-15 -36 -57 -59.5t-95 -23.5zM212 47q32 0 57 13t35 34v215q-10 21 -35 34t-57 13t-57 -13t-35 -34v-215q0 -20 29 -33.5t63 -13.5z" />
    <glyph glyph-name="one.dnom" horiz-adv-x="309" 
d="M149 402h47v-402h-60v287h-93v47q95 3 106 68z" />
    <glyph glyph-name="two.dnom" horiz-adv-x="397" 
d="M46 0v79q14 45 97 91l83 46q47 25 56 51v42q-8 21 -32 34t-54 13q-72 0 -100 -63l-55 25q17 42 58.5 67.5t96.5 25.5q52 0 93 -24t54 -59v-80q-14 -41 -90 -82l-82 -44q-56 -31 -64 -53v-13h240v-56h-301z" />
    <glyph glyph-name="three.dnom" horiz-adv-x="399" 
d="M275 206q53 -24 68 -64v-68q-14 -35 -56.5 -59t-95.5 -24q-55 0 -98.5 26t-60.5 67l55 26q28 -63 104 -63q32 0 57 13t34 33v40q-8 21 -33.5 34t-57.5 13h-38v53h39q30 0 53 12t32 32v35q-9 19 -32.5 31.5t-52.5 12.5q-71 0 -98 -60l-55 25q16 40 57.5 65t95.5 25
q51 0 91.5 -23.5t53.5 -57.5v-63q-14 -37 -62 -61z" />
    <glyph glyph-name="four.dnom" horiz-adv-x="418" 
d="M315 142h61v-55h-61v-87h-61v87h-209v63l184 252h86v-260zM103 142h151v203z" />
    <glyph glyph-name="five.dnom" horiz-adv-x="398" 
d="M204 262q51 0 91.5 -24t52.5 -59v-105q-13 -34 -55.5 -58.5t-95.5 -24.5q-56 0 -99.5 26t-59.5 67l55 26q28 -63 104 -63q31 0 56.5 13t34.5 33v68q-9 21 -35 34t-58 13q-56 0 -90 -31l-51 16l27 209h249v-56h-201l-14 -108q35 24 89 24z" />
    <glyph glyph-name="six.dnom" horiz-adv-x="408" 
d="M214 265q50 0 89 -23t55 -58v-110q-15 -36 -57 -59.5t-95 -23.5q-54 0 -95 23.5t-57 59.5v111q4 16 21 39l128 178h62v-14l-97 -130q21 7 46 7zM298 93v73q-10 20 -35 33t-57 13t-57 -13t-35 -33v-73q10 -20 35 -33t57 -13t57 13t35 33z" />
    <glyph glyph-name="seven.dnom" horiz-adv-x="365" 
d="M85 0v13l142 248q35 61 39 74v11h-233v56h293v-75q-4 -13 -45 -87l-136 -240h-60z" />
    <glyph glyph-name="eight.dnom" horiz-adv-x="411" 
d="M301 209q41 -21 57 -56v-84q-16 -33 -57.5 -55.5t-94.5 -22.5t-94.5 22.5t-57.5 55.5v84q16 35 57 56q-35 21 -50 52v72q15 34 54.5 56t90.5 22t90 -22t54 -56v-72q-14 -31 -49 -52zM122 317v-45q8 -18 31.5 -29t52.5 -11t52.5 11t31.5 29v45q-8 17 -31.5 28.5
t-52.5 11.5t-52.5 -11.5t-31.5 -28.5zM297 89v54q-22 39 -91 39q-32 0 -57 -11t-34 -28v-54q9 -19 34 -30.5t57 -11.5q69 0 91 42z" />
    <glyph glyph-name="nine.dnom" horiz-adv-x="408" 
d="M202 411q54 0 95 -23.5t57 -59.5v-111q-3 -13 -21 -39l-127 -178h-59v14l98 133q-24 -9 -51 -9q-50 0 -89 23t-55 57v110q15 36 57 59.5t95 23.5zM294 237v72q-10 21 -35 34t-57 13t-57 -13t-35 -34v-72q10 -21 35 -34t57 -13t57 13t35 34z" />
    <glyph glyph-name="zero.numr" horiz-adv-x="424" 
d="M212 295q-53 0 -95 23.5t-57 59.5v254q15 36 57 59.5t95 23.5t95 -23.5t57 -59.5v-254q-15 -36 -57 -59.5t-95 -23.5zM212 351q32 0 57 13t35 34v215q-10 21 -35 34t-57 13t-57 -13t-35 -34v-215q0 -20 29 -33.5t63 -13.5z" />
    <glyph glyph-name="one.numr" horiz-adv-x="309" 
d="M149 706h47v-402h-60v287h-93v47q95 3 106 68z" />
    <glyph glyph-name="two.numr" horiz-adv-x="397" 
d="M46 304v79q14 45 97 91l83 46q47 25 56 51v42q-8 21 -32 34t-54 13q-72 0 -100 -63l-55 25q17 42 58.5 67.5t96.5 25.5q52 0 93 -24t54 -59v-80q-14 -41 -90 -82l-82 -44q-56 -31 -64 -53v-13h240v-56h-301z" />
    <glyph glyph-name="three.numr" horiz-adv-x="399" 
d="M275 510q53 -24 68 -64v-68q-14 -35 -56.5 -59t-95.5 -24q-55 0 -98.5 26t-60.5 67l55 26q28 -63 104 -63q32 0 57 13t34 33v40q-8 21 -33.5 34t-57.5 13h-38v53h39q30 0 53 12t32 32v35q-9 19 -32.5 31.5t-52.5 12.5q-71 0 -98 -60l-55 25q16 40 57.5 65t95.5 25
q51 0 91.5 -23.5t53.5 -57.5v-63q-14 -37 -62 -61z" />
    <glyph glyph-name="four.numr" horiz-adv-x="418" 
d="M315 446h61v-55h-61v-87h-61v87h-209v63l184 252h86v-260zM103 446h151v203z" />
    <glyph glyph-name="five.numr" horiz-adv-x="398" 
d="M204 566q51 0 91.5 -24t52.5 -59v-105q-13 -34 -55.5 -58.5t-95.5 -24.5q-56 0 -99.5 26t-59.5 67l55 26q28 -63 104 -63q31 0 56.5 13t34.5 33v68q-9 21 -35 34t-58 13q-56 0 -90 -31l-51 16l27 209h249v-56h-201l-14 -108q35 24 89 24z" />
    <glyph glyph-name="six.numr" horiz-adv-x="408" 
d="M214 569q50 0 89 -23t55 -58v-110q-15 -36 -57 -59.5t-95 -23.5q-54 0 -95 23.5t-57 59.5v111q4 16 21 39l128 178h62v-14l-97 -130q21 7 46 7zM298 397v73q-10 20 -35 33t-57 13t-57 -13t-35 -33v-73q10 -20 35 -33t57 -13t57 13t35 33z" />
    <glyph glyph-name="seven.numr" horiz-adv-x="365" 
d="M85 304v13l142 248q35 61 39 74v11h-233v56h293v-75q-4 -13 -45 -87l-136 -240h-60z" />
    <glyph glyph-name="eight.numr" horiz-adv-x="411" 
d="M301 513q41 -21 57 -56v-84q-16 -33 -57.5 -55.5t-94.5 -22.5t-94.5 22.5t-57.5 55.5v84q16 35 57 56q-35 21 -50 52v72q15 34 54.5 56t90.5 22t90 -22t54 -56v-72q-14 -31 -49 -52zM122 621v-45q8 -18 31.5 -29t52.5 -11t52.5 11t31.5 29v45q-8 17 -31.5 28.5
t-52.5 11.5t-52.5 -11.5t-31.5 -28.5zM297 393v54q-22 39 -91 39q-32 0 -57 -11t-34 -28v-54q9 -19 34 -30.5t57 -11.5q69 0 91 42z" />
    <glyph glyph-name="nine.numr" horiz-adv-x="408" 
d="M202 715q54 0 95 -23.5t57 -59.5v-111q-3 -13 -21 -39l-127 -178h-59v14l98 133q-24 -9 -51 -9q-50 0 -89 23t-55 57v110q15 36 57 59.5t95 23.5zM294 541v72q-10 21 -35 34t-57 13t-57 -13t-35 -34v-72q10 -21 35 -34t57 -13t57 13t35 34z" />
    <glyph glyph-name="exclamdown.case" horiz-adv-x="287" 
d="M143 714q38 0 50 -30v-38q-12 -30 -50 -30q-36 0 -49 28v42q13 28 49 28zM165 541l12 -158v-383h-68v383l12 158h44z" />
    <glyph glyph-name="questiondown.case" horiz-adv-x="522" 
d="M282 709q38 0 50 -30v-38q-12 -30 -50 -30q-36 0 -49 28v42q13 28 49 28zM315 541v-67q-10 -32 -50 -71l-69 -66q-73 -69 -90 -116v-75q15 -42 58.5 -68.5t99.5 -26.5q62 0 109.5 31t68.5 88l60 -30q-24 -68 -89.5 -111t-148.5 -43q-80 0 -142 40t-82 98v116
q12 47 113 143l62 60q31 31 37 49v49h63z" />
    <glyph glyph-name="caroncomb.alt" horiz-adv-x="0" 
d="M-147 516l25 190h62v-19l-43 -171h-44z" />
    <glyph glyph-name="uni0308.case" horiz-adv-x="0" 
d="M-349 799q-37 0 -50 27v44q13 27 50 27t50 -27v-44q-13 -27 -50 -27zM-110 799q-36 0 -50 27v44q14 27 50 27t50 -27v-44q-14 -27 -50 -27z" />
    <glyph glyph-name="uni0307.case" horiz-adv-x="0" 
d="M-110 799q-36 0 -50 27v44q14 27 50 27t50 -27v-44q-14 -27 -50 -27z" />
    <glyph glyph-name="uni030A.case" horiz-adv-x="0" 
d="M-189 681q-47 0 -82 22.5t-48 56.5v80q13 34 48 56t82 22q46 0 81.5 -22t47.5 -56v-80q-12 -35 -47 -57t-82 -22zM-189 729q30 0 50.5 12t27.5 28v61q-6 17 -27 29t-51 12t-51.5 -12t-27.5 -29v-61q6 -16 27.5 -28t51.5 -12z" />
    </font>
</defs>
</svg>
