<?xml version="1.0" standalone="no"?>
<!DOCTYPE svg PUBLIC "-//W3C//DTD SVG 1.1//EN" "http://www.w3.org/Graphics/SVG/1.1/DTD/svg11.dtd" >
<svg xmlns="http://www.w3.org/2000/svg" xmlns:xlink="http://www.w3.org/1999/xlink" version="1.1">
<metadata>
Created by FontForge 20170731 at Thu May 19 12:29:16 2016
 By Aleksey,,,
Copyright (c) 2016 by Letters from Sweden, Go:ran So:derstro:m. All rights reserved.
</metadata>
<defs>
<font id="Mikro-Bold" horiz-adv-x="644" >
  <font-face 
    font-family="Mikro Bold"
    font-weight="700"
    font-stretch="normal"
    units-per-em="1000"
    panose-1="0 0 8 0 0 0 0 0 0 0"
    ascent="750"
    descent="-250"
    x-height="526"
    cap-height="706"
    bbox="-478 -250 1361 936"
    underline-thickness="98"
    underline-position="-336"
    unicode-range="U+0020-FB01"
  />
<missing-glyph horiz-adv-x="539" 
d="M85 -100v906h368v-906h-368z" />
    <glyph glyph-name="fi" unicode="fi" horiz-adv-x="680" 
d="M539 749q59 0 81 -41v-67q-22 -41 -81 -41q-57 0 -81 41v67q24 41 81 41zM608 526v-526h-132v419h-221v-419h-132v419h-100v107h100v119q24 48 75 74.5t119 26.5q31 0 58 -6v-109h-34q-66 0 -86 -43v-62h353z" />
    <glyph glyph-name="f_f.liga" unicode="ff" horiz-adv-x="765" 
d="M698 631q-67 0 -87 -43v-62h124v-107h-124v-419h-132v419h-224v-419h-132v419h-100v107h100v119q51 101 198 101q37 0 67 -6v-109h-46q-67 0 -87 -43v-62h224v119q51 101 198 101q37 0 67 -6v-109h-46z" />
    <glyph glyph-name="f_f_i.liga" unicode="ffi" horiz-adv-x="1036" 
d="M895 749q59 0 81 -41v-67q-22 -41 -81 -41q-57 0 -81 41v67q24 41 81 41zM964 526v-526h-132v419h-221v-419h-132v419h-224v-419h-132v419h-100v107h100v119q51 101 198 101q37 0 67 -6v-109h-46q-67 0 -87 -43v-62h224v119q24 48 75 74.5t119 26.5q31 0 58 -6v-109h-34
q-66 0 -86 -43v-62h353z" />
    <glyph glyph-name="f_f_j.liga" unicode="ffj" horiz-adv-x="1036" 
d="M895 749q59 0 81 -41v-67q-22 -41 -81 -41q-57 0 -81 41v67q24 41 81 41zM964 526v-539q-19 -67 -78 -112t-146 -54v121q36 7 60 29t32 47v401h-221v-419h-132v419h-224v-419h-132v419h-100v107h100v119q51 101 198 101q37 0 67 -6v-109h-46q-67 0 -87 -43v-62h224v119
q24 48 75 74.5t119 26.5q31 0 58 -6v-109h-34q-66 0 -86 -43v-62h353z" />
    <glyph glyph-name="f_j.liga" unicode="fj" horiz-adv-x="680" 
d="M539 749q59 0 81 -41v-67q-22 -41 -81 -41q-57 0 -81 41v67q24 41 81 41zM608 526v-539q-19 -67 -78 -112t-146 -54v121q36 7 60 29t32 47v401h-221v-419h-132v419h-100v107h100v119q24 48 75 74.5t119 26.5q31 0 58 -6v-109h-34q-66 0 -86 -43v-62h353z" />
    <glyph glyph-name=".notdef" horiz-adv-x="539" 
d="M85 -100v906h368v-906h-368z" />
    <glyph glyph-name=".null" horiz-adv-x="0" 
 />
    <glyph glyph-name="nonmarkingreturn" horiz-adv-x="333" 
 />
    <glyph glyph-name="space" unicode=" " horiz-adv-x="249" 
 />
    <glyph glyph-name="exclam" unicode="!" horiz-adv-x="319" 
d="M109 213l-21 155v338h143v-338l-20 -155h-102zM160 -11q-61 0 -83 43v77q22 43 83 43q60 0 82 -43v-78q-23 -42 -82 -42z" />
    <glyph glyph-name="quotedbl" unicode="&#x22;" horiz-adv-x="468" 
d="M68 421l-15 166v119h133v-119l-16 -166h-102zM298 421l-15 166v119h133v-119l-16 -166h-102z" />
    <glyph glyph-name="numbersign" unicode="#" horiz-adv-x="741" 
d="M680 424h-131l-24 -142h115v-90h-131l-34 -192h-96v17l30 175h-135l-34 -192h-96v17l30 175h-113v90h129l25 142h-114v90h130l33 192h97v-17l-31 -175h136l33 192h97v-17l-31 -175h115v-90zM425 282l25 142h-136l-24 -142h135z" />
    <glyph glyph-name="dollar" unicode="$" 
d="M445 396q107 -37 145 -125v-139q-26 -56 -87 -96.5t-141 -49.5v-86h-71v85q-92 7 -160.5 52.5t-96.5 114.5l120 59q42 -88 137 -101v189q-49 5 -88 19q-106 37 -146 125v131q26 58 88.5 99t145.5 48v85h71v-86q84 -10 146 -53t89 -109l-121 -58q-34 74 -114 94v-179
q42 -5 83 -19zM260 434q20 -6 31 -8v171q-71 -11 -98 -63v-48q19 -37 67 -52zM454 172v58q-18 36 -68 51q-8 3 -24 7v-176q68 14 92 60z" />
    <glyph glyph-name="percent" unicode="%" horiz-adv-x="981" 
d="M240 366q-63 0 -114 30t-67 75v145q16 45 67 75t114 30q62 0 113 -30t68 -75v-145q-17 -45 -68 -75t-113 -30zM805 693l-523 -693h-107v13l523 693h107v-13zM239 458q61 0 83 47v78q-23 46 -83 46q-55 0 -82 -46v-78q25 -47 82 -47zM741 -13q-63 0 -114 30t-67 75v145
q16 45 67 75t114 30q62 0 113 -30t68 -75v-145q-17 -45 -68 -75t-113 -30zM740 79q61 0 83 47v78q-23 46 -83 46q-55 0 -82 -46v-78q25 -47 82 -47z" />
    <glyph glyph-name="ampersand" unicode="&#x26;" horiz-adv-x="714" 
d="M616 135l102 -109v-26h-147l-42 45q-87 -61 -197 -61t-182 46t-101 121v124q33 94 134 140l-53 57v128q22 52 79 87t135 35t137.5 -37.5t79.5 -98.5l-114 -44q-31 63 -104 63q-30 0 -52 -12.5t-31 -32.5v-46l264 -281q22 47 31 120l128 -25q-16 -114 -67 -193zM331 106
q63 0 113 30l-179 191q-63 -21 -80 -76v-64q12 -34 49 -57.5t97 -23.5z" />
    <glyph glyph-name="quotesingle" unicode="'" horiz-adv-x="238" 
d="M68 421l-15 166v119h133v-119l-16 -166h-102z" />
    <glyph glyph-name="parenleft" unicode="(" horiz-adv-x="367" 
d="M246 -140q-60 49 -108.5 144t-64.5 219v144q16 124 64.5 218.5t108.5 144.5h107q-120 -141 -141 -388v-94q21 -245 141 -388h-107z" />
    <glyph glyph-name="parenright" unicode=")" horiz-adv-x="367" 
d="M120 -140h-106q120 143 141 388v94q-21 247 -141 388h106q61 -50 109.5 -144.5t64.5 -218.5v-144q-16 -124 -64.5 -219t-109.5 -144z" />
    <glyph glyph-name="asterisk" unicode="*" horiz-adv-x="553" 
d="M500 648l-158 -83l158 -82l-40 -70l-151 96l8 -178h-81l8 178l-151 -96l-40 70l158 82l-158 83l40 70l151 -96l-8 178h81l-8 -178l151 96z" />
    <glyph glyph-name="plus" unicode="+" 
d="M597 414v-119h-217v-218h-119v218h-217v119h217v217h119v-217h217z" />
    <glyph glyph-name="comma" unicode="," horiz-adv-x="272" 
d="M136 152q61 0 83 -43v-88l-79 -160h-85v16l55 115q-42 9 -57 40v77q22 43 83 43z" />
    <glyph glyph-name="hyphen" unicode="-" horiz-adv-x="451" 
d="M47 253v123h357v-123h-357z" />
    <glyph glyph-name="period" unicode="." horiz-adv-x="271" 
d="M136 -11q-61 0 -83 43v77q22 43 83 43q60 0 82 -43v-78q-23 -42 -82 -42z" />
    <glyph glyph-name="slash" unicode="/" horiz-adv-x="437" 
d="M406 710l-267 -810h-118v20l267 810h118v-20z" />
    <glyph glyph-name="zero" unicode="0" horiz-adv-x="671" 
d="M336 -16q-94 0 -166.5 42t-102.5 106v442q30 64 102.5 106t166.5 42t166 -42t102 -106v-442q-30 -64 -102 -106t-166 -42zM336 109q46 0 81 18.5t50 47.5v356q-15 29 -50 47.5t-81 18.5t-81.5 -18.5t-49.5 -47.5v-356q14 -29 49.5 -47.5t81.5 -18.5z" />
    <glyph glyph-name="one" unicode="1" horiz-adv-x="475" 
d="M237 706h106v-706h-138v477h-160v107q159 6 192 122z" />
    <glyph glyph-name="two" unicode="2" horiz-adv-x="635" 
d="M53 0v159q13 47 53.5 85t118.5 81l131 72q67 37 81 72v62q-13 29 -46 47.5t-76 18.5q-104 0 -150 -100l-125 56q31 78 104 123.5t172 45.5q91 0 163.5 -43.5t95.5 -104.5v-148q-15 -41 -54.5 -74.5t-104.5 -67.5l-126 -66q-87 -47 -99 -75v-16h389v-127h-527z" />
    <glyph glyph-name="three" unicode="3" horiz-adv-x="631" 
d="M469 361q77 -40 101 -105v-124q-24 -61 -98.5 -104.5t-168.5 -43.5q-101 0 -176 46t-106 123l125 56q47 -100 157 -100q45 0 80 18t49 47v63q-14 29 -48.5 47t-80.5 18h-66v118h67q91 0 121 60v56q-14 27 -46.5 44t-74.5 17q-105 0 -149 -94l-124 57q31 74 103 118
t170 44q90 0 162 -42t95 -101v-120q-22 -57 -92 -98z" />
    <glyph glyph-name="four" unicode="4" horiz-adv-x="677" 
d="M536 268h98v-123h-98v-145h-139v145h-347v138l290 423h196v-438zM179 268h218v317z" />
    <glyph glyph-name="five" unicode="5" horiz-adv-x="641" 
d="M339 467q89 0 157 -42.5t91 -104.5v-188q-23 -61 -97.5 -104.5t-168.5 -43.5q-102 0 -176.5 46t-105.5 123l125 56q23 -49 64 -74.5t92 -25.5q45 0 80 18t49 47v105q-14 29 -50.5 47t-83.5 18q-84 0 -133 -46l-117 35l47 373h443v-127h-335l-19 -150q56 38 138 38z" />
    <glyph glyph-name="six" unicode="6" horiz-adv-x="652" 
d="M350 470q86 0 152.5 -39.5t95.5 -100.5v-198q-31 -64 -103.5 -106t-166.5 -42q-95 0 -167 42t-101 106v202q6 28 38 72l207 300h140v-27l-153 -217q32 8 58 8zM459 175v114q-15 29 -50 46.5t-81 17.5t-81 -18t-49 -46v-114q14 -29 49 -47.5t81 -18.5t81 18.5t50 47.5z
" />
    <glyph glyph-name="seven" unicode="7" horiz-adv-x="590" 
d="M113 0v26l231 413q53 94 63 125v15h-370v127h509v-157q-9 -36 -75 -156l-217 -393h-141z" />
    <glyph glyph-name="eight" unicode="8" horiz-adv-x="653" 
d="M510 365q58 -36 85 -88v-155q-30 -60 -102 -99t-166 -39t-166.5 39t-102.5 99v155q25 51 86 88q-50 35 -73 81v138q29 60 97.5 99t158.5 39q89 0 157.5 -39t98.5 -99v-138q-25 -46 -73 -81zM209 545v-76q13 -24 44.5 -38.5t73.5 -14.5q41 0 73 14.5t45 38.5v76
q-13 24 -45 39.5t-73 15.5q-42 0 -73.5 -15t-44.5 -40zM456 166v87q-15 24 -49.5 39t-79.5 15t-80 -15t-49 -39v-87q14 -25 49 -41t80 -16t79.5 16t49.5 41z" />
    <glyph glyph-name="nine" unicode="9" horiz-adv-x="652" 
d="M323 722q95 0 167 -42t102 -106v-202q-8 -30 -38 -72l-207 -300h-138v27l153 218q-30 -9 -60 -9q-86 0 -152.5 39.5t-95.5 100.5v198q30 64 102.5 106t166.5 42zM454 417v115q-15 29 -50.5 47t-80.5 18t-80.5 -18t-50.5 -47v-115q15 -28 50 -46t81 -18t81 18t50 46z" />
    <glyph glyph-name="colon" unicode=":" horiz-adv-x="302" 
d="M152 366q-61 0 -83 43v77q22 43 83 43q60 0 82 -43v-78q-23 -42 -82 -42zM152 -11q-61 0 -83 43v77q22 43 83 43q60 0 82 -43v-78q-23 -42 -82 -42z" />
    <glyph glyph-name="semicolon" unicode=";" horiz-adv-x="304" 
d="M152 366q-61 0 -83 43v77q22 43 83 43q60 0 82 -43v-78q-23 -42 -82 -42zM152 152q61 0 83 -43v-88l-79 -160h-85v16l55 115q-42 9 -57 40v77q22 43 83 43z" />
    <glyph glyph-name="less" unicode="&#x3c;" 
d="M596 604v-124l-394 -125l394 -126v-124l-554 190v119z" />
    <glyph glyph-name="equal" unicode="=" 
d="M45 405v119h554v-119h-554zM45 172v119h554v-119h-554z" />
    <glyph glyph-name="greater" unicode="&#x3e;" 
d="M45 604l554 -190v-119l-554 -190v124l394 126l-394 125v124z" />
    <glyph glyph-name="question" unicode="?" horiz-adv-x="540" 
d="M189 208v86q9 26 52 64l47 40q69 58 81 86v43q-11 27 -39.5 44.5t-67.5 17.5q-42 0 -76 -21t-51 -62l-119 52q28 72 94.5 115t156.5 43q89 0 154.5 -42.5t86.5 -98.5v-122q-9 -29 -36.5 -58.5t-83.5 -75.5l-42 -37q-28 -23 -34 -40v-34h-123zM253 -11q-61 0 -83 43v77
q22 43 83 43q60 0 82 -43v-78q-23 -42 -82 -42z" />
    <glyph glyph-name="at" unicode="@" horiz-adv-x="1069" 
d="M539 721q161 0 291 -79.5t169 -200.5v-290q-16 -46 -64.5 -76.5t-110.5 -30.5q-96 0 -148 62q-56 -71 -159 -71q-75 0 -134 39t-79 98v183q20 59 79 98t134 39q81 0 138 -52v38h98v-306q5 -19 24.5 -31.5t47.5 -12.5t48.5 13t27.5 33v246q-27 92 -132.5 153t-229.5 61
q-125 0 -231 -61t-131 -153v-304q26 -92 131.5 -153t230.5 -61q159 0 256 67l40 -78q-111 -76 -296 -76q-161 0 -291 79t-169 201v346q39 122 169 201t291 79zM643 202v123q-11 31 -42 49.5t-74 18.5q-41 0 -71 -19.5t-41 -50.5v-119q11 -32 40.5 -51t71.5 -19t73.5 18.5
t42.5 49.5z" />
    <glyph glyph-name="A" unicode="A" horiz-adv-x="757" 
d="M471 706l266 -679v-27h-141l-54 143h-330l-54 -143h-138v26l267 680h184zM262 272h231l-116 305z" />
    <glyph glyph-name="B" unicode="B" horiz-adv-x="705" 
d="M549 362q72 -33 95 -90v-137q-21 -59 -86 -97t-148 -38h-325v706h308q83 0 148 -38t85 -97v-128q-20 -48 -77 -81zM393 582h-165v-168h165q32 0 57 15t35 41v56q-10 26 -35 41t-57 15zM501 180v63q-9 26 -34 41t-58 15h-181v-175h181q32 0 57.5 15.5t34.5 40.5z" />
    <glyph glyph-name="C" unicode="C" horiz-adv-x="773" 
d="M410 115q74 0 126.5 36t75.5 90l131 -54q-37 -93 -127 -148t-206 -55q-125 0 -221 64.5t-128 163.5v282q32 99 128 163.5t221 64.5q116 0 206 -55t127 -148l-131 -54q-23 54 -75.5 90t-126.5 36q-75 0 -132 -39.5t-73 -95.5v-206q16 -56 73 -95.5t132 -39.5z" />
    <glyph glyph-name="D" unicode="D" horiz-adv-x="774" 
d="M356 706q128 0 226 -65t132 -165v-246q-34 -100 -132 -165t-226 -65h-271v706h271zM569 267v172q-16 55 -76 95t-137 40h-128v-442h128q77 0 137 40t76 95z" />
    <glyph glyph-name="E" unicode="E" horiz-adv-x="655" 
d="M589 574h-361v-154h329v-129h-329v-159h361v-132h-504v706h504v-132z" />
    <glyph glyph-name="F" unicode="F" horiz-adv-x="626" 
d="M569 574h-341v-172h318v-129h-318v-273h-143v706h484v-132z" />
    <glyph glyph-name="G" unicode="G" horiz-adv-x="819" 
d="M382 271v125h377v-216q-37 -82 -128.5 -139t-213.5 -57q-127 0 -225 64.5t-131 163.5v282q33 99 131 163.5t225 64.5q123 0 214.5 -56.5t129.5 -143.5l-137 -53q-24 52 -79.5 87t-127.5 35q-76 0 -135.5 -40t-76.5 -95v-206q17 -55 76.5 -95t135.5 -40q73 0 128 34t73 75
v47h-236z" />
    <glyph glyph-name="H" unicode="H" horiz-adv-x="786" 
d="M559 706h142v-706h-142v290h-331v-290h-143v706h143v-284h331v284z" />
    <glyph glyph-name="I" unicode="I" horiz-adv-x="316" 
d="M87 0v706h142v-706h-142z" />
    <glyph glyph-name="J" unicode="J" horiz-adv-x="586" 
d="M258 -16q-93 0 -159.5 41.5t-94.5 102.5l126 64q38 -76 125 -76q44 0 72 20.5t37 50.5v519h143v-568q-24 -69 -90 -111.5t-159 -42.5z" />
    <glyph glyph-name="K" unicode="K" horiz-adv-x="734" 
d="M442 421l271 -395v-26h-149l-222 323l-114 -110v-213h-143v706h143v-328l318 328h156v-26z" />
    <glyph glyph-name="L" unicode="L" horiz-adv-x="622" 
d="M228 132h357v-132h-500v706h143v-574z" />
    <glyph glyph-name="M" unicode="M" horiz-adv-x="964" 
d="M687 706h192v-706h-138v533l-211 -416h-96l-210 414v-531h-139v706h195l203 -409z" />
    <glyph glyph-name="N" unicode="N" horiz-adv-x="780" 
d="M556 706h138v-706h-142l-328 501v-501h-139v706h160l311 -473v473z" />
    <glyph glyph-name="O" unicode="O" horiz-adv-x="836" 
d="M419 -16q-128 0 -226.5 64.5t-131.5 163.5v282q33 99 131.5 163.5t226.5 64.5t226 -64.5t131 -163.5v-282q-33 -99 -131 -163.5t-226 -64.5zM418 115q77 0 137 40t77 95v206q-17 55 -77 95t-137 40q-76 0 -136 -40t-77 -95v-206q17 -55 77 -95t136 -40z" />
    <glyph glyph-name="P" unicode="P" horiz-adv-x="686" 
d="M398 706q84 0 152 -43t90 -105v-173q-22 -62 -90 -105t-152 -43h-170v-237h-143v706h313zM497 427v89q-12 28 -43 45.5t-70 17.5h-156v-213h156q39 0 70 17t43 44z" />
    <glyph glyph-name="Q" unicode="Q" horiz-adv-x="835" 
d="M776 212q-28 -88 -112 -151l61 -83v-26h-134l-38 53q-63 -21 -134 -21q-128 0 -226.5 64.5t-131.5 163.5v282q33 99 131.5 163.5t226.5 64.5t226 -64.5t131 -163.5v-282zM512 270l69 -95q39 34 51 75v206q-17 55 -77 95t-137 40q-76 0 -136 -40t-77 -95v-206
q17 -55 77 -95t136 -40q23 0 50 5l-90 123v27h134z" />
    <glyph glyph-name="R" unicode="R" horiz-adv-x="707" 
d="M505 275l166 -249v-26h-143l-167 254h-133v-254h-143v706h312q84 0 152 -43t90 -105v-156q-14 -39 -50 -73t-84 -54zM228 579v-203h155q40 0 71 17.5t43 44.5v78q-12 28 -43 45.5t-71 17.5h-155z" />
    <glyph glyph-name="S" unicode="S" horiz-adv-x="663" 
d="M331 -16q-105 0 -184.5 46.5t-110.5 122.5l123 60q24 -49 69 -74.5t102 -25.5q49 0 85 17.5t51 45.5v52q-18 35 -68 51q-26 9 -89 16.5t-101 20.5q-113 39 -151 125v133q30 65 103 106.5t168 41.5q102 0 178 -45t107 -119l-124 -61q-23 47 -65 72t-95 25
q-46 0 -80.5 -17.5t-47.5 -45.5v-44q18 -37 66 -51q23 -7 87 -15.5t103 -22.5q111 -38 153 -125v-141q-31 -63 -106.5 -105.5t-172.5 -42.5z" />
    <glyph glyph-name="T" unicode="T" horiz-adv-x="672" 
d="M642 706v-132h-234v-574h-142v574h-236v132h612z" />
    <glyph glyph-name="U" unicode="U" horiz-adv-x="755" 
d="M378 -16q-109 0 -190 46t-109 117v559h143v-506q15 -36 55 -60.5t101 -24.5q60 0 100 24.5t56 60.5v506h142v-559q-29 -70 -109.5 -116.5t-188.5 -46.5z" />
    <glyph glyph-name="V" unicode="V" horiz-adv-x="751" 
d="M592 706h139v-26l-267 -680h-178l-266 679v27h142l215 -559z" />
    <glyph glyph-name="W" unicode="W" horiz-adv-x="1095" 
d="M928 706h137v-26l-201 -680h-167l-149 508l-149 -508h-169l-200 679v27h142l149 -530l154 530h149l154 -532z" />
    <glyph glyph-name="X" unicode="X" horiz-adv-x="704" 
d="M31 0v26l225 327l-225 327v26h150l171 -253l171 253h150v-26l-225 -327l225 -327v-26h-150l-171 253l-172 -253h-149z" />
    <glyph glyph-name="Y" unicode="Y" horiz-adv-x="686" 
d="M666 706v-26l-251 -406v-274h-143v272l-252 407v27h148l175 -287l175 287h148z" />
    <glyph glyph-name="Z" unicode="Z" horiz-adv-x="712" 
d="M651 706v-127l-403 -447h403v-132h-591v127l403 447h-395v132h583z" />
    <glyph glyph-name="bracketleft" unicode="[" horiz-adv-x="407" 
d="M85 -139v869h288v-87h-156v-695h156v-87h-288z" />
    <glyph glyph-name="backslash" unicode="\" horiz-adv-x="437" 
d="M31 710v20h118l267 -810v-20h-118z" />
    <glyph glyph-name="bracketright" unicode="]" horiz-adv-x="407" 
d="M322 -139h-288v87h157v695h-157v87h288v-869z" />
    <glyph glyph-name="asciicircum" unicode="^" 
d="M59 285v93l227 328h89l227 -328v-93h-88l-184 269l-184 -269h-87z" />
    <glyph glyph-name="underscore" unicode="_" horiz-adv-x="605" 
d="M-5 -189v98h615v-98h-615z" />
    <glyph glyph-name="grave" unicode="`" horiz-adv-x="319" 
d="M150 604l-101 126v25h150l63 -138v-13h-112z" />
    <glyph glyph-name="a" unicode="a" horiz-adv-x="599" 
d="M291 543q86 0 152 -39.5t89 -103.5v-400h-121v53q-55 -68 -158 -68q-70 0 -123 28t-73 69v123q40 85 204 106q130 16 142 34v24q-12 24 -41.5 40t-71.5 16q-44 0 -77.5 -22t-51.5 -56l-117 50q27 63 94.5 104.5t152.5 41.5zM403 146v106q-24 -20 -120 -38
q-83 -15 -99 -43v-43q29 -35 98 -35q83 0 121 53z" />
    <glyph glyph-name="b" unicode="b" horiz-adv-x="659" 
d="M363 543q87 0 152.5 -48t89.5 -122v-218q-24 -74 -89.5 -122.5t-152.5 -48.5q-102 0 -166 69v-53h-124v730h132v-247q63 60 158 60zM473 187v153q-13 33 -49 57.5t-87 24.5q-46 0 -80.5 -19t-51.5 -47v-185q17 -29 51.5 -48t80.5 -19q51 0 87 25t49 58z" />
    <glyph glyph-name="c" unicode="c" horiz-adv-x="590" 
d="M318 -16q-97 0 -167.5 47.5t-96.5 122.5v219q26 74 96.5 122t167.5 48q88 0 154.5 -40t96.5 -110l-122 -48q-14 32 -47 55t-82 23q-51 0 -86 -25t-46 -58v-154q11 -33 46 -57.5t86 -24.5q48 0 81 22.5t48 54.5l122 -47q-30 -70 -96 -110t-155 -40z" />
    <glyph glyph-name="d" unicode="d" horiz-adv-x="659" 
d="M454 730h132v-730h-125v53q-63 -69 -165 -69q-87 0 -152.5 48.5t-89.5 122.5v218q24 74 89.5 122t152.5 48q95 0 158 -60v247zM454 171v185q-17 28 -51.5 47t-80.5 19q-51 0 -87 -24.5t-49 -57.5v-153q13 -33 49 -58t87 -25q46 0 80.5 19t51.5 48z" />
    <glyph glyph-name="e" unicode="e" horiz-adv-x="627" 
d="M459 180l119 -46q-32 -70 -100 -110t-160 -40q-96 0 -167 48t-97 123v218q26 74 96 122t165 48q94 0 163 -48t96 -122v-153h-391v-39q11 -32 47.5 -57t88.5 -25q102 0 140 81zM314 429q-50 0 -85 -24.5t-46 -56.5v-29h262v29q-12 33 -46.5 57t-84.5 24z" />
    <glyph glyph-name="f" unicode="f" horiz-adv-x="412" 
d="M344 631q-66 0 -86 -43v-62h123v-106h-123v-420h-132v420h-103v106h103v119q24 49 76 75t122 26q38 0 67 -6v-109h-47z" />
    <glyph glyph-name="g" unicode="g" horiz-adv-x="648" 
d="M453 526h124v-545q-27 -75 -98 -121t-170 -46q-95 0 -165 41.5t-97 112.5l123 40q14 -33 50 -56t91 -23q52 0 87.5 23t46.5 57v81q-64 -57 -155 -57q-87 0 -150.5 46.5t-87.5 117.5v178q23 73 87 120t151 47q99 0 163 -64v48zM318 151q44 0 77.5 19.5t49.5 47.5v137
q-16 28 -49.5 47t-77.5 19q-51 0 -87 -23.5t-47 -54.5v-114q11 -31 47 -54.5t87 -23.5z" />
    <glyph glyph-name="h" unicode="h" horiz-adv-x="632" 
d="M354 543q79 0 137 -44t74 -104v-395h-132v362q-11 25 -41 42.5t-74 17.5q-43 0 -73.5 -18.5t-39.5 -42.5v-361h-132v730h132v-248q59 61 149 61z" />
    <glyph glyph-name="i" unicode="i" horiz-adv-x="282" 
d="M141 600q-57 0 -81 41v67q24 41 81 41q59 0 81 -41v-67q-22 -41 -81 -41zM75 0v526h132v-526h-132z" />
    <glyph glyph-name="j" unicode="j" horiz-adv-x="282" 
d="M141 600q-57 0 -81 41v67q24 41 81 41q59 0 81 -41v-67q-22 -41 -81 -41zM-18 -179v121q36 7 60.5 29t32.5 47v508h132v-539q-20 -67 -79 -112t-146 -54z" />
    <glyph glyph-name="k" unicode="k" horiz-adv-x="604" 
d="M381 317l208 -291v-26h-136l-166 231l-82 -75v-156h-132v730h132v-423l228 219h143v-25z" />
    <glyph glyph-name="l" unicode="l" horiz-adv-x="278" 
d="M73 0v730h132v-730h-132z" />
    <glyph glyph-name="m" unicode="m" horiz-adv-x="955" 
d="M682 542q75 0 133 -44t73 -102v-396h-132v362q-10 24 -37.5 41.5t-67.5 17.5t-68.5 -18.5t-36.5 -42.5v-360h-132v362q-9 24 -37 41.5t-68 17.5t-68 -18.5t-36 -42.5v-360h-132v526h124v-55q57 71 150 71q97 0 164 -78q61 78 171 78z" />
    <glyph glyph-name="n" unicode="n" horiz-adv-x="632" 
d="M354 542q79 0 137 -44t74 -103v-395h-132v361q-11 25 -41 43t-74 18q-43 0 -73.5 -19t-39.5 -43v-360h-132v526h124v-54q60 70 157 70z" />
    <glyph glyph-name="o" unicode="o" horiz-adv-x="647" 
d="M324 -16q-97 0 -170.5 48t-99.5 122v219q26 74 99.5 122t170.5 48t170 -48t99 -122v-219q-26 -74 -99 -122t-170 -48zM324 104q51 0 88.5 25t48.5 57v154q-11 33 -48.5 58t-88.5 25t-88.5 -25t-49.5 -58v-154q12 -32 49.5 -57t88.5 -25z" />
    <glyph glyph-name="p" unicode="p" horiz-adv-x="659" 
d="M363 542q87 0 152.5 -48t89.5 -122v-218q-24 -74 -89.5 -122t-152.5 -48q-95 0 -158 61v-215h-132v696h124v-53q66 69 166 69zM473 186v153q-13 33 -49 57.5t-87 24.5q-46 0 -80.5 -19t-51.5 -47v-185q17 -28 51.5 -47.5t80.5 -19.5q51 0 87 25t49 58z" />
    <glyph glyph-name="q" unicode="q" horiz-adv-x="657" 
d="M461 526h125v-696h-132v216q-62 -62 -158 -62q-87 0 -152.5 48.5t-89.5 122.5v218q24 74 89.5 122t152.5 48q102 0 165 -68v51zM322 104q46 0 80.5 19t51.5 48v185q-17 28 -51.5 47t-80.5 19q-51 0 -87 -24.5t-49 -57.5v-153q13 -33 49 -58t87 -25z" />
    <glyph glyph-name="r" unicode="r" horiz-adv-x="410" 
d="M340 534q27 0 45 -8v-128h-35q-63 0 -98.5 -23t-46.5 -54v-321h-132v526h124v-83q46 91 143 91z" />
    <glyph glyph-name="s" unicode="s" horiz-adv-x="534" 
d="M269 -15q-86 0 -150 36.5t-87 99.5l113 46q18 -34 51.5 -52t72.5 -18q69 0 91 38v36q-10 19 -47 30q-14 4 -65 10.5t-81 16.5q-84 28 -117 93v107q24 49 83 81.5t134 32.5q82 0 143 -35.5t84 -96.5l-112 -44q-36 64 -116 64q-33 0 -56 -11.5t-31 -28.5v-30q7 -21 44 -30
q12 -3 64 -9.5t81 -16.5q90 -30 119 -93v-112q-23 -49 -82 -81.5t-136 -32.5z" />
    <glyph glyph-name="t" unicode="t" horiz-adv-x="429" 
d="M325 -7q-146 0 -199 102v325h-103v106h57q35 0 46 26v139h132v-165h132v-106h-132v-264q17 -45 89 -45h44v-111q-28 -7 -66 -7z" />
    <glyph glyph-name="u" unicode="u" horiz-adv-x="629" 
d="M423 526h132v-526h-124v54q-59 -70 -154 -70q-77 0 -135 45t-74 105v392h132v-359q11 -26 39.5 -44t72.5 -18q42 0 72 19.5t39 44.5v357z" />
    <glyph glyph-name="v" unicode="v" horiz-adv-x="580" 
d="M434 526h128v-25l-198 -501h-148l-198 501v25h132l143 -374z" />
    <glyph glyph-name="w" unicode="w" horiz-adv-x="888" 
d="M730 526h129v-25l-164 -501h-141l-109 346l-109 -346h-142l-165 501v25h132l111 -358l113 358h121l114 -356z" />
    <glyph glyph-name="x" unicode="x" horiz-adv-x="569" 
d="M28 0v26l171 239l-171 236v25h137l120 -168l119 168h138v-25l-171 -236l171 -239v-26h-138l-119 170l-120 -170h-137z" />
    <glyph glyph-name="y" unicode="y" horiz-adv-x="571" 
d="M426 526h127v-25l-296 -671h-124v26l81 186l-195 459v25h131l135 -323z" />
    <glyph glyph-name="z" unicode="z" horiz-adv-x="546" 
d="M500 526v-112l-286 -299h286v-115h-454v114l285 299h-280v113h449z" />
    <glyph glyph-name="braceleft" unicode="{" horiz-adv-x="412" 
d="M377 -138q-201 0 -247 154v163q0 34 -21.5 52t-51.5 18v94q31 0 52 18t21 53v162q46 154 247 154v-85q-40 0 -70.5 -18.5t-45.5 -49.5v-194q-14 -63 -92 -87q78 -24 92 -87v-194q15 -31 45.5 -49.5t70.5 -18.5v-85z" />
    <glyph glyph-name="bar" unicode="|" horiz-adv-x="475" 
d="M171 -100v906h134v-906h-134z" />
    <glyph glyph-name="braceright" unicode="}" horiz-adv-x="391" 
d="M35 -138v85q40 0 70.5 18.5t45.5 49.5v194q16 64 92 87q-76 23 -92 87v194q-15 31 -45.5 49.5t-70.5 18.5v85q201 0 248 -154v-162q0 -35 21 -53t52 -18v-94q-30 0 -51.5 -18t-21.5 -52v-163q-47 -154 -248 -154z" />
    <glyph glyph-name="asciitilde" unicode="~" 
d="M61 279v124q6 5 17 12.5t47 20.5t74 13q50 0 137.5 -25.5t130.5 -25.5q29 0 57 11t42 22l13 11v-129q-42 -34 -111 -34q-53 0 -139 25.5t-132 25.5q-35 0 -69 -13t-50 -25z" />
    <glyph glyph-name="uni00A0" unicode="&#xa0;" horiz-adv-x="249" 
 />
    <glyph glyph-name="exclamdown" unicode="&#xa1;" horiz-adv-x="319" 
d="M159 552q61 0 83 -43v-77q-22 -43 -83 -43q-60 0 -82 43v78q23 42 82 42zM210 328l21 -155v-338h-143v338l20 155h102z" />
    <glyph glyph-name="cent" unicode="&#xa2;" 
d="M376 107q70 14 97 74l122 -47q-27 -63 -84.5 -102.5t-134.5 -46.5v-85h-70v86q-84 10 -143.5 55.5t-82.5 112.5v219q23 67 83 113t143 55v96h70v-95q77 -7 134.5 -46.5t84.5 -102.5l-122 -48q-11 26 -36 47t-61 28v-313zM212 186q9 -26 33.5 -48t60.5 -30v311
q-36 -9 -60.5 -30.5t-33.5 -48.5v-154z" />
    <glyph glyph-name="sterling" unicode="&#xa3;" 
d="M245 177q-6 -24 -35 -50h393v-127h-564v110q26 3 44.5 20t25.5 45v111h-70v106h70v183q27 64 91.5 105.5t151.5 41.5q95 0 162 -42t95 -115l-123 -53q-35 84 -132 84q-81 0 -109 -64v-140h187v-106h-187v-109z" />
    <glyph glyph-name="currency" unicode="&#xa4;" 
d="M561 234q-10 -35 -35 -66l77 -77l-59 -59l-81 81q-58 -36 -131 -36q-74 0 -134 38l-83 -83l-58 59l79 80q-22 29 -33 63v142q11 35 33 65l-79 80l58 58l83 -82q61 37 134 37t132 -36l80 81l59 -58l-77 -78q24 -30 35 -67v-142zM333 182q44 0 78.5 21t43.5 52v101
q-9 30 -44 51.5t-78 21.5t-78 -21.5t-45 -51.5v-101q8 -31 43.5 -52t79.5 -21z" />
    <glyph glyph-name="yen" unicode="&#xa5;" 
d="M611 706v-26l-187 -315h115v-69h-148v-62h148v-70h-148v-164h-140v164h-153v70h153v62h-153v69h120l-187 314v27h142l148 -253l147 253h143z" />
    <glyph glyph-name="brokenbar" unicode="&#xa6;" horiz-adv-x="475" 
d="M171 420v386h134v-386h-134zM171 -100v386h134v-386h-134z" />
    <glyph glyph-name="section" unicode="&#xa7;" horiz-adv-x="610" 
d="M550 238q-21 -39 -62 -65q27 -22 42 -53v-114q-24 -50 -85 -83.5t-138 -33.5q-84 0 -146.5 37t-86.5 99l114 43q38 -65 120 -65q70 0 92 40v40q-11 21 -47 30q-12 3 -75.5 12.5t-93.5 20.5q-93 32 -123 95v156q19 38 62 65q-26 21 -42 54v113q23 50 84 83.5t138 33.5
q85 0 147.5 -36.5t86.5 -98.5l-115 -44q-36 65 -120 65q-70 0 -91 -40v-39q12 -23 47 -31q8 -2 73 -12t96 -21q93 -32 123 -95v-156zM191 280q11 -21 49 -32q14 -4 54.5 -10t57.5 -9q49 7 68 40v86q-13 23 -49 33q-14 4 -53 10t-55 9q-52 -7 -72 -41v-86z" />
    <glyph glyph-name="dieresis" unicode="&#xa8;" horiz-adv-x="499" 
d="M129 602q-57 0 -80 40v66q24 41 80 41t80 -41v-66q-23 -40 -80 -40zM367 602q-57 0 -80 40v66q24 41 80 41q58 0 80 -41v-66q-22 -40 -80 -40z" />
    <glyph glyph-name="copyright" unicode="&#xa9;" horiz-adv-x="840" 
d="M420 -15q-126 0 -226.5 62t-132.5 157v298q32 95 132.5 157t226.5 62q127 0 228 -62t132 -157v-298q-31 -95 -132 -157t-228 -62zM420 46q103 0 188 50.5t107 126.5v260q-22 77 -106.5 127t-188.5 50q-103 0 -187.5 -50t-106.5 -127v-260q22 -76 106.5 -126.5
t187.5 -50.5zM424 136q-78 0 -137 40.5t-79 103.5v146q20 63 79 103.5t137 40.5q71 0 126.5 -33.5t80.5 -89.5l-81 -31q-14 31 -48 51.5t-78 20.5q-47 0 -83.5 -23t-46.5 -57v-110q10 -34 46.5 -57t83.5 -23q44 0 78 20.5t48 51.5l81 -31q-25 -56 -80.5 -89.5t-126.5 -33.5z
" />
    <glyph glyph-name="ordfeminine" unicode="&#xaa;" horiz-adv-x="408" 
d="M199 715q54 0 95.5 -24t56.5 -64v-244h-87v32q-32 -41 -95 -41q-43 0 -74.5 16.5t-42.5 41.5v79q26 54 123 64q76 9 83 20v12q-14 27 -57 27q-53 0 -75 -42l-82 33q16 39 58.5 64.5t96.5 25.5zM258 472v61q-14 -12 -66 -22q-41 -7 -49 -21v-28q14 -16 51 -16q43 0 64 26z
" />
    <glyph glyph-name="guillemotleft" unicode="&#xab;" horiz-adv-x="687" 
d="M267 57l-197 199v72l197 199h77v-73l-163 -163l163 -162v-72h-77zM530 57l-197 199v72l197 199h77v-73l-163 -163l163 -162v-72h-77z" />
    <glyph glyph-name="logicalnot" unicode="&#xac;" 
d="M479 77v218h-434v119h554v-337h-120z" />
    <glyph glyph-name="registered" unicode="&#xae;" horiz-adv-x="547" 
d="M273 746q82 0 147 -40t87 -101v-193q-22 -62 -87 -102t-147 -40t-146.5 40t-86.5 102v193q22 61 86.5 101t146.5 40zM457 424v169q-17 46 -68.5 76t-115.5 30q-63 0 -114.5 -30t-68.5 -76v-169q17 -46 68.5 -76t114.5 -30q64 0 115.5 30t68.5 76zM378 529
q-11 -32 -48 -46l58 -87v-8h-53l-57 88h-50v-88h-53v250h118q29 0 53 -15.5t32 -37.5v-56zM228 593v-71h55q31 0 42 21v27q-9 23 -42 23h-55z" />
    <glyph glyph-name="macron" unicode="&#xaf;" horiz-adv-x="424" 
d="M49 619v95h324v-95h-324z" />
    <glyph glyph-name="degree" unicode="&#xb0;" horiz-adv-x="481" 
d="M240 358q-66 0 -117.5 29.5t-69.5 74.5v155q18 45 69.5 74.5t117.5 29.5q67 0 119 -29.5t69 -74.5v-155q-17 -45 -69 -74.5t-119 -29.5zM240 440q36 0 63.5 14t37.5 36v99q-10 21 -37.5 35t-63.5 14q-35 0 -61.5 -14t-39.5 -35v-99q10 -22 37.5 -36t63.5 -14z" />
    <glyph glyph-name="plusminus" unicode="&#xb1;" 
d="M256 173v197h-217v119h217v197h119v-197h217v-119h-217v-197h-119zM46 119h554v-119h-554v119z" />
    <glyph glyph-name="acute" unicode="&#xb4;" horiz-adv-x="319" 
d="M49 604v13l63 138h150v-25l-101 -126h-112z" />
    <glyph glyph-name="paragraph" unicode="&#xb6;" horiz-adv-x="702" 
d="M617 706v-806h-80v730h-100v-730h-80v330h-47q-87 0 -156.5 44t-92.5 109v170q23 65 92.5 109t156.5 44h307z" />
    <glyph glyph-name="periodcentered" unicode="&#xb7;" horiz-adv-x="271" 
d="M136 235q-61 0 -83 43v77q22 43 83 43q60 0 82 -43v-78q-23 -42 -82 -42z" />
    <glyph glyph-name="cedilla" unicode="&#xb8;" horiz-adv-x="329" 
d="M188 -49q35 0 60.5 -16t34.5 -37v-66q-29 -59 -122 -59q-63 0 -112 31l29 55q37 -22 81 -22q40 0 49 22v20q-9 19 -49 19h-64l51 124l62 -17l-22 -54h2z" />
    <glyph glyph-name="ordmasculine" unicode="&#xba;" horiz-adv-x="438" 
d="M220 372q-61 0 -106.5 29.5t-62.5 74.5v136q17 45 62.5 74t106.5 29q60 0 105.5 -29.5t61.5 -73.5v-136q-16 -45 -61.5 -74.5t-105.5 -29.5zM220 458q28 0 47.5 12.5t25.5 28.5v90q-6 16 -25.5 29t-47.5 13q-29 0 -48.5 -13t-25.5 -29v-90q6 -16 25.5 -28.5t48.5 -12.5z
" />
    <glyph glyph-name="guillemotright" unicode="&#xbb;" horiz-adv-x="687" 
d="M157 57h-77v72l163 162l-163 163v73h77l197 -199v-72zM420 57h-77v72l163 162l-163 163v73h77l197 -199v-72z" />
    <glyph glyph-name="onequarter" unicode="&#xbc;" horiz-adv-x="981" 
d="M237 304h-101v253h-96v79q95 5 120 70h77v-402zM779 706v-13l-523 -693h-107v13l523 693h107zM886 166h58v-89h-58v-77h-101v77h-199v101l157 224h143v-236zM682 166h103v146z" />
    <glyph glyph-name="onehalf" unicode="&#xbd;" horiz-adv-x="999" 
d="M237 304h-101v253h-96v79q95 5 120 70h77v-402zM779 706v-13l-523 -693h-107v13l523 693h107zM736 93h219v-93h-320v105q14 58 106 98l70 31q31 14 42 32v29q-15 26 -58 26q-52 0 -79 -49l-90 40q20 47 64 73.5t106 26.5q56 0 100 -25.5t58 -59.5v-92q-19 -46 -98 -78
l-69 -29q-46 -20 -51 -30v-5z" />
    <glyph glyph-name="threequarters" unicode="&#xbe;" horiz-adv-x="1050" 
d="M359 380q-14 -34 -60 -60t-103 -26q-63 0 -107.5 26.5t-65.5 73.5l90 41q29 -51 85 -51q44 0 60 27v30q-15 29 -62 29h-39v78h39q44 0 58 25v29q-14 24 -56 24q-55 0 -80 -46l-90 40q20 45 63.5 70.5t105.5 25.5q55 0 99.5 -25t58.5 -58v-73q-14 -31 -51 -50
q42 -22 55 -55v-75zM848 706v-13l-523 -693h-107v13l523 693h107zM955 166h58v-89h-58v-77h-101v77h-199v101l157 224h143v-236zM751 166h103v146z" />
    <glyph glyph-name="questiondown" unicode="&#xbf;" horiz-adv-x="500" 
d="M287 552q61 0 83 -43v-77q-22 -43 -83 -43q-60 0 -82 43v78q23 42 82 42zM351 333v-86q-9 -26 -52 -64l-47 -40q-69 -58 -81 -86v-43q11 -27 39.5 -44.5t67.5 -17.5q42 0 76 21t51 62l119 -52q-28 -72 -94.5 -115t-156.5 -43q-89 0 -154.5 42.5t-86.5 98.5v122
q9 29 36.5 58.5t83.5 75.5l42 37q28 23 34 40v34h123z" />
    <glyph glyph-name="Agrave" unicode="&#xc0;" horiz-adv-x="757" 
d="M434 780h-112l-101 126v25h150l63 -138v-13zM471 706l266 -679v-27h-141l-54 143h-330l-54 -143h-138v26l267 680h184zM262 272h231l-116 305z" />
    <glyph glyph-name="Aacute" unicode="&#xc1;" horiz-adv-x="757" 
d="M536 906l-101 -126h-112v13l63 138h150v-25zM471 706l266 -679v-27h-141l-54 143h-330l-54 -143h-138v26l267 680h184zM262 272h231l-116 305z" />
    <glyph glyph-name="Acircumflex" unicode="&#xc2;" horiz-adv-x="757" 
d="M379 874l-76 -94h-106v13l85 138h193l85 -138v-13h-106zM471 706l266 -679v-27h-141l-54 143h-330l-54 -143h-138v26l267 680h184zM262 272h231l-116 305z" />
    <glyph glyph-name="Atilde" unicode="&#xc3;" horiz-adv-x="757" 
d="M303 824q-39 0 -48 -50l-75 27q8 46 38 79t79 33q37 0 85 -25t72 -25q40 0 49 50l75 -24q-24 -115 -119 -115q-33 0 -82.5 25t-73.5 25zM471 706l266 -679v-27h-141l-54 143h-330l-54 -143h-138v26l267 680h184zM262 272h231l-116 305z" />
    <glyph glyph-name="Adieresis" unicode="&#xc4;" horiz-adv-x="757" 
d="M247 766q-56 0 -80 40v67q24 42 80 42q58 0 82 -42v-67q-24 -40 -82 -40zM510 766q-56 0 -80 40v67q24 42 80 42q58 0 82 -42v-67q-24 -40 -82 -40zM471 706l266 -679v-27h-141l-54 143h-330l-54 -143h-138v26l267 680h184zM262 272h231l-116 305z" />
    <glyph glyph-name="Aring" unicode="&#xc5;" horiz-adv-x="757" 
d="M482 678l255 -651v-27h-141l-54 143h-330l-54 -143h-138v26l256 652q-33 20 -48 55v104q16 37 56 60t95 23q54 0 94.5 -23.5t55.5 -59.5v-104q-14 -34 -47 -55zM303 820v-71q17 -31 75 -31q59 0 76 31v71q-16 32 -76 32q-59 0 -75 -32zM262 272h231l-116 305z" />
    <glyph glyph-name="AE" unicode="&#xc6;" horiz-adv-x="1031" 
d="M965 574h-362v-154h330v-129h-330v-159h362v-132h-505v136h-233l-70 -136h-137v26l352 680h593v-132zM293 264h167v324z" />
    <glyph glyph-name="Ccedilla" unicode="&#xc7;" horiz-adv-x="773" 
d="M410 115q74 0 126.5 36t75.5 90l131 -54q-36 -91 -124.5 -146.5t-202.5 -56.5l-13 -33h2q35 0 60.5 -16t34.5 -37v-66q-29 -59 -122 -59q-63 0 -112 31l29 55q37 -22 81 -22q40 0 49 22v20q-9 19 -49 19h-64l37 90q-105 15 -182.5 76t-105.5 148v282q32 99 128 163.5
t221 64.5q116 0 206 -55t127 -148l-131 -54q-23 54 -75.5 90t-126.5 36q-75 0 -132 -39.5t-73 -95.5v-206q16 -56 73 -95.5t132 -39.5z" />
    <glyph glyph-name="Egrave" unicode="&#xc8;" horiz-adv-x="655" 
d="M396 780h-112l-101 126v25h150l63 -138v-13zM589 574h-361v-154h329v-129h-329v-159h361v-132h-504v706h504v-132z" />
    <glyph glyph-name="Eacute" unicode="&#xc9;" horiz-adv-x="655" 
d="M498 906l-101 -126h-112v13l63 138h150v-25zM589 574h-361v-154h329v-129h-329v-159h361v-132h-504v706h504v-132z" />
    <glyph glyph-name="Ecircumflex" unicode="&#xca;" horiz-adv-x="655" 
d="M341 874l-76 -94h-106v13l85 138h193l85 -138v-13h-106zM589 574h-361v-154h329v-129h-329v-159h361v-132h-504v706h504v-132z" />
    <glyph glyph-name="Edieresis" unicode="&#xcb;" horiz-adv-x="655" 
d="M209 766q-56 0 -80 40v67q24 42 80 42q58 0 82 -42v-67q-24 -40 -82 -40zM472 766q-56 0 -80 40v67q24 42 80 42q58 0 82 -42v-67q-24 -40 -82 -40zM589 574h-361v-154h329v-129h-329v-159h361v-132h-504v706h504v-132z" />
    <glyph glyph-name="Igrave" unicode="&#xcc;" horiz-adv-x="316" 
d="M101 780l-101 126v25h150l63 -138v-13h-112zM87 0v706h142v-706h-142z" />
    <glyph glyph-name="Iacute" unicode="&#xcd;" horiz-adv-x="316" 
d="M102 780v13l63 138h150v-25l-101 -126h-112zM87 0v706h142v-706h-142z" />
    <glyph glyph-name="Icircumflex" unicode="&#xce;" horiz-adv-x="316" 
d="M254 931l85 -138v-13h-106l-75 94l-76 -94h-106v13l85 138h193zM87 0v706h142v-706h-142z" />
    <glyph glyph-name="Idieresis" unicode="&#xcf;" horiz-adv-x="315" 
d="M38 768q-57 0 -80 40v66q24 41 80 41t80 -41v-66q-23 -40 -80 -40zM276 768q-57 0 -80 40v66q24 41 80 41q58 0 80 -41v-66q-22 -40 -80 -40zM87 0v706h142v-706h-142z" />
    <glyph glyph-name="Eth" unicode="&#xd0;" horiz-adv-x="797" 
d="M380 706q128 0 226 -65t132 -165v-246q-34 -100 -132 -165t-226 -65h-271v296h-92v114h92v296h271zM593 267v172q-16 55 -76 95t-137 40h-128v-164h171v-114h-171v-164h128q77 0 137 40t76 95z" />
    <glyph glyph-name="Ntilde" unicode="&#xd1;" horiz-adv-x="780" 
d="M313 824q-39 0 -48 -50l-75 27q8 46 38 79t79 33q37 0 85 -25t72 -25q40 0 49 50l75 -24q-24 -115 -119 -115q-33 0 -82.5 25t-73.5 25zM556 706h138v-706h-142l-328 501v-501h-139v706h160l311 -473v473z" />
    <glyph glyph-name="Ograve" unicode="&#xd2;" horiz-adv-x="836" 
d="M362 780l-101 126v25h150l63 -138v-13h-112zM419 -16q-128 0 -226.5 64.5t-131.5 163.5v282q33 99 131.5 163.5t226.5 64.5t226 -64.5t131 -163.5v-282q-33 -99 -131 -163.5t-226 -64.5zM418 115q77 0 137 40t77 95v206q-17 55 -77 95t-137 40q-76 0 -136 -40t-77 -95
v-206q17 -55 77 -95t136 -40z" />
    <glyph glyph-name="Oacute" unicode="&#xd3;" horiz-adv-x="836" 
d="M363 780v13l63 138h150v-25l-101 -126h-112zM419 -16q-128 0 -226.5 64.5t-131.5 163.5v282q33 99 131.5 163.5t226.5 64.5t226 -64.5t131 -163.5v-282q-33 -99 -131 -163.5t-226 -64.5zM418 115q77 0 137 40t77 95v206q-17 55 -77 95t-137 40q-76 0 -136 -40t-77 -95
v-206q17 -55 77 -95t136 -40z" />
    <glyph glyph-name="Ocircumflex" unicode="&#xd4;" horiz-adv-x="836" 
d="M419 874l-76 -94h-106v13l85 138h193l85 -138v-13h-106zM419 722q128 0 226 -64.5t131 -163.5v-282q-33 -99 -131 -163.5t-226 -64.5t-226.5 64.5t-131.5 163.5v282q33 99 131.5 163.5t226.5 64.5zM632 250v206q-17 55 -77 95t-137 40q-76 0 -136 -40t-77 -95v-206
q17 -55 77 -95t136 -40q77 0 137 40t77 95z" />
    <glyph glyph-name="Otilde" unicode="&#xd5;" horiz-adv-x="836" 
d="M295 774l-75 27q8 46 38 79t79 33q37 0 85 -25t72 -25q40 0 49 50l75 -24q-24 -115 -119 -115q-33 0 -82.5 25t-73.5 25q-39 0 -48 -50zM419 -16q-128 0 -226.5 64.5t-131.5 163.5v282q33 99 131.5 163.5t226.5 64.5t226 -64.5t131 -163.5v-282q-33 -99 -131 -163.5
t-226 -64.5zM418 115q77 0 137 40t77 95v206q-17 55 -77 95t-137 40q-76 0 -136 -40t-77 -95v-206q17 -55 77 -95t136 -40z" />
    <glyph glyph-name="Odieresis" unicode="&#xd6;" horiz-adv-x="836" 
d="M287 766q-56 0 -80 40v67q24 42 80 42q58 0 82 -42v-67q-24 -40 -82 -40zM550 766q-56 0 -80 40v67q24 42 80 42q58 0 82 -42v-67q-24 -40 -82 -40zM419 -16q-128 0 -226.5 64.5t-131.5 163.5v282q33 99 131.5 163.5t226.5 64.5t226 -64.5t131 -163.5v-282
q-33 -99 -131 -163.5t-226 -64.5zM418 115q77 0 137 40t77 95v206q-17 55 -77 95t-137 40q-76 0 -136 -40t-77 -95v-206q17 -55 77 -95t136 -40z" />
    <glyph glyph-name="multiply" unicode="&#xd7;" 
d="M580 527l-174 -173l174 -174l-85 -84l-173 173l-174 -173l-84 84l173 174l-173 173l84 85l174 -174l173 174z" />
    <glyph glyph-name="Oslash" unicode="&#xd8;" horiz-adv-x="837" 
d="M710 605q49 -54 67 -111v-282q-33 -99 -131 -163.5t-226 -64.5q-118 0 -214 56l-36 -40h-109v26l68 76q-48 49 -67 110v282q33 99 131.5 163.5t226.5 64.5q117 0 213 -56l36 40h107v-27zM206 250q5 -19 20 -40l313 351q-54 30 -120 30q-76 0 -136 -40t-77 -95v-206z
M633 250v206q-6 22 -20 40l-314 -351q55 -30 120 -30q77 0 137 40t77 95z" />
    <glyph glyph-name="Ugrave" unicode="&#xd9;" horiz-adv-x="755" 
d="M318 780l-101 126v25h150l63 -138v-13h-112zM378 -16q-109 0 -190 46t-109 117v559h143v-506q15 -36 55 -60.5t101 -24.5q60 0 100 24.5t56 60.5v506h142v-559q-29 -70 -109.5 -116.5t-188.5 -46.5z" />
    <glyph glyph-name="Uacute" unicode="&#xda;" horiz-adv-x="755" 
d="M319 780v13l63 138h150v-25l-101 -126h-112zM378 -16q-109 0 -190 46t-109 117v559h143v-506q15 -36 55 -60.5t101 -24.5q60 0 100 24.5t56 60.5v506h142v-559q-29 -70 -109.5 -116.5t-188.5 -46.5z" />
    <glyph glyph-name="Ucircumflex" unicode="&#xdb;" horiz-adv-x="755" 
d="M375 874l-76 -94h-106v13l85 138h193l85 -138v-13h-106zM534 706h142v-559q-29 -70 -109.5 -116.5t-188.5 -46.5q-109 0 -190 46t-109 117v559h143v-506q15 -36 55 -60.5t101 -24.5q60 0 100 24.5t56 60.5v506z" />
    <glyph glyph-name="Udieresis" unicode="&#xdc;" horiz-adv-x="755" 
d="M243 766q-56 0 -80 40v67q24 42 80 42q58 0 82 -42v-67q-24 -40 -82 -40zM506 766q-56 0 -80 40v67q24 42 80 42q58 0 82 -42v-67q-24 -40 -82 -40zM378 -16q-109 0 -190 46t-109 117v559h143v-506q15 -36 55 -60.5t101 -24.5q60 0 100 24.5t56 60.5v506h142v-559
q-29 -70 -109.5 -116.5t-188.5 -46.5z" />
    <glyph glyph-name="Yacute" unicode="&#xdd;" horiz-adv-x="686" 
d="M500 906l-101 -126h-112v13l63 138h150v-25zM666 706v-26l-251 -406v-274h-143v272l-252 407v27h148l175 -287l175 287h148z" />
    <glyph glyph-name="Thorn" unicode="&#xde;" horiz-adv-x="681" 
d="M392 593q84 0 152 -42.5t90 -105.5v-171q-22 -63 -90 -105.5t-152 -42.5h-164v-126h-143v706h143v-113h164zM492 316v87q-12 27 -43 44.5t-71 17.5h-150v-212h150q40 0 71 17.5t43 45.5z" />
    <glyph glyph-name="germandbls" unicode="&#xdf;" horiz-adv-x="615" 
d="M469 376q81 -38 106 -106v-132q-23 -58 -92.5 -99t-158.5 -41q-21 0 -47 2v118h46q43 0 75 17.5t45 46.5v64q-12 29 -44 47t-74 18h-29v111h18q37 0 63.5 16.5t38.5 43.5v67q-12 24 -40 39t-65 15q-39 0 -67 -15t-39 -39v-549h-132v585q22 57 87 97t151 40
q83 0 148.5 -40t86.5 -97v-121q-17 -50 -77 -88z" />
    <glyph glyph-name="agrave" unicode="&#xe0;" horiz-adv-x="599" 
d="M356 604h-112l-101 126v25h150l63 -138v-13zM291 543q86 0 152 -39.5t89 -103.5v-400h-121v53q-55 -68 -158 -68q-70 0 -123 28t-73 69v123q40 85 204 106q130 16 142 34v24q-12 24 -41.5 40t-71.5 16q-44 0 -77.5 -22t-51.5 -56l-117 50q27 63 94.5 104.5t152.5 41.5z
M403 146v106q-24 -20 -120 -38q-83 -15 -99 -43v-43q29 -35 98 -35q83 0 121 53z" />
    <glyph glyph-name="aacute" unicode="&#xe1;" horiz-adv-x="599" 
d="M458 730l-101 -126h-112v13l63 138h150v-25zM291 543q86 0 152 -39.5t89 -103.5v-400h-121v53q-55 -68 -158 -68q-70 0 -123 28t-73 69v123q40 85 204 106q130 16 142 34v24q-12 24 -41.5 40t-71.5 16q-44 0 -77.5 -22t-51.5 -56l-117 50q27 63 94.5 104.5t152.5 41.5z
M403 146v106q-24 -20 -120 -38q-83 -15 -99 -43v-43q29 -35 98 -35q83 0 121 53z" />
    <glyph glyph-name="acircumflex" unicode="&#xe2;" horiz-adv-x="599" 
d="M301 698l-76 -94h-106v13l85 138h193l85 -138v-13h-106zM291 543q86 0 152 -39.5t89 -103.5v-400h-121v53q-55 -68 -158 -68q-70 0 -123 28t-73 69v123q40 85 204 106q130 16 142 34v24q-12 24 -41.5 40t-71.5 16q-44 0 -77.5 -22t-51.5 -56l-117 50q27 63 94.5 104.5
t152.5 41.5zM403 146v106q-24 -20 -120 -38q-83 -15 -99 -43v-43q29 -35 98 -35q83 0 121 53z" />
    <glyph glyph-name="atilde" unicode="&#xe3;" horiz-adv-x="599" 
d="M225 648q-39 0 -48 -50l-75 27q8 46 38 79t79 33q37 0 85 -25t72 -25q40 0 49 50l75 -24q-24 -115 -119 -115q-33 0 -82.5 25t-73.5 25zM291 543q86 0 152 -39.5t89 -103.5v-400h-121v53q-55 -68 -158 -68q-70 0 -123 28t-73 69v123q40 85 204 106q130 16 142 34v24
q-12 24 -41.5 40t-71.5 16q-44 0 -77.5 -22t-51.5 -56l-117 50q27 63 94.5 104.5t152.5 41.5zM403 146v106q-24 -20 -120 -38q-83 -15 -99 -43v-43q29 -35 98 -35q83 0 121 53z" />
    <glyph glyph-name="adieresis" unicode="&#xe4;" horiz-adv-x="599" 
d="M181 602q-57 0 -80 40v66q24 41 80 41t80 -41v-66q-23 -40 -80 -40zM419 602q-57 0 -80 40v66q24 41 80 41q58 0 80 -41v-66q-22 -40 -80 -40zM291 543q86 0 152 -39.5t89 -103.5v-400h-121v53q-55 -68 -158 -68q-70 0 -123 28t-73 69v123q40 85 204 106q130 16 142 34
v24q-12 24 -41.5 40t-71.5 16q-44 0 -77.5 -22t-51.5 -56l-117 50q27 63 94.5 104.5t152.5 41.5zM403 146v106q-24 -20 -120 -38q-83 -15 -99 -43v-43q29 -35 98 -35q83 0 121 53z" />
    <glyph glyph-name="aring" unicode="&#xe5;" horiz-adv-x="599" 
d="M302 585q-51 0 -89 23t-52 58v92q14 35 52 58t89 23q50 0 88 -23t52 -58v-92q-14 -36 -52 -58.5t-88 -22.5zM234 743v-62q14 -31 68 -31t68 31v62q-16 31 -68 31t-68 -31zM291 543q86 0 152 -39.5t89 -103.5v-400h-121v53q-55 -68 -158 -68q-70 0 -123 28t-73 69v123
q40 85 204 106q130 16 142 34v24q-12 24 -41.5 40t-71.5 16q-44 0 -77.5 -22t-51.5 -56l-117 50q27 63 94.5 104.5t152.5 41.5zM403 146v106q-24 -20 -120 -38q-83 -15 -99 -43v-43q29 -35 98 -35q83 0 121 53z" />
    <glyph glyph-name="ae" unicode="&#xe6;" horiz-adv-x="978" 
d="M810 180l119 -46q-32 -70 -100 -110t-160 -40q-129 0 -210 84q-68 -84 -200 -84q-74 0 -127.5 28t-73.5 71v123q41 87 203 106q132 15 143 35v21q-12 24 -41.5 40.5t-71.5 16.5q-43 0 -77.5 -21.5t-52.5 -55.5l-116 49q27 63 94.5 104.5t152.5 41.5q113 0 186 -65
q78 65 188 65q94 0 163 -48t96 -122v-153h-391v-39q11 -32 47.5 -57t88.5 -25q102 0 140 81zM665 429q-50 0 -85 -24.5t-46 -56.5v-29h262v29q-12 33 -46.5 57t-84.5 24zM283 93q82 0 121 53v110q-22 -23 -121 -39q-82 -13 -98 -44v-44q27 -36 98 -36z" />
    <glyph glyph-name="ccedilla" unicode="&#xe7;" horiz-adv-x="590" 
d="M318 104q48 0 81 22.5t48 54.5l122 -47q-29 -67 -90.5 -106.5t-144.5 -43.5l-13 -33h2q35 0 60.5 -16t34.5 -37v-66q-29 -59 -122 -59q-63 0 -112 31l29 55q37 -22 81 -22q40 0 49 22v20q-9 19 -49 19h-64l37 90q-78 12 -134.5 57t-78.5 109v219q26 74 96.5 122t167.5 48
q88 0 154.5 -40t96.5 -110l-122 -48q-14 32 -47 55t-82 23q-51 0 -86 -25t-46 -58v-154q11 -33 46 -57.5t86 -24.5z" />
    <glyph glyph-name="egrave" unicode="&#xe8;" horiz-adv-x="627" 
d="M379 604h-112l-101 126v25h150l63 -138v-13zM459 180l119 -46q-32 -70 -100 -110t-160 -40q-96 0 -167 48t-97 123v218q26 74 96 122t165 48q94 0 163 -48t96 -122v-153h-391v-39q11 -32 47.5 -57t88.5 -25q102 0 140 81zM314 429q-50 0 -85 -24.5t-46 -56.5v-29h262v29
q-12 33 -46.5 57t-84.5 24z" />
    <glyph glyph-name="eacute" unicode="&#xe9;" horiz-adv-x="627" 
d="M481 730l-101 -126h-112v13l63 138h150v-25zM459 180l119 -46q-32 -70 -100 -110t-160 -40q-96 0 -167 48t-97 123v218q26 74 96 122t165 48q94 0 163 -48t96 -122v-153h-391v-39q11 -32 47.5 -57t88.5 -25q102 0 140 81zM314 429q-50 0 -85 -24.5t-46 -56.5v-29h262v29
q-12 33 -46.5 57t-84.5 24z" />
    <glyph glyph-name="ecircumflex" unicode="&#xea;" horiz-adv-x="627" 
d="M324 698l-76 -94h-106v13l85 138h193l85 -138v-13h-106zM459 180l119 -46q-32 -70 -100 -110t-160 -40q-96 0 -167 48t-97 123v218q26 74 96 122t165 48q94 0 163 -48t96 -122v-153h-391v-39q11 -32 47.5 -57t88.5 -25q102 0 140 81zM314 429q-50 0 -85 -24.5t-46 -56.5
v-29h262v29q-12 33 -46.5 57t-84.5 24z" />
    <glyph glyph-name="edieresis" unicode="&#xeb;" horiz-adv-x="627" 
d="M204 602q-57 0 -80 40v66q24 41 80 41t80 -41v-66q-23 -40 -80 -40zM442 602q-57 0 -80 40v66q24 41 80 41q58 0 80 -41v-66q-22 -40 -80 -40zM459 180l119 -46q-32 -70 -100 -110t-160 -40q-96 0 -167 48t-97 123v218q26 74 96 122t165 48q94 0 163 -48t96 -122v-153
h-391v-39q11 -32 47.5 -57t88.5 -25q102 0 140 81zM314 429q-50 0 -85 -24.5t-46 -56.5v-29h262v29q-12 33 -46.5 57t-84.5 24z" />
    <glyph glyph-name="igrave" unicode="&#xec;" horiz-adv-x="282" 
d="M84 604l-101 126v25h150l63 -138v-13h-112zM75 0v526h132v-526h-132z" />
    <glyph glyph-name="iacute" unicode="&#xed;" horiz-adv-x="282" 
d="M85 604v13l63 138h150v-25l-101 -126h-112zM75 0v526h132v-526h-132z" />
    <glyph glyph-name="icircumflex" unicode="&#xee;" horiz-adv-x="282" 
d="M237 755l85 -138v-13h-106l-75 94l-76 -94h-106v13l85 138h193zM75 0v526h132v-526h-132z" />
    <glyph glyph-name="idieresis" unicode="&#xef;" horiz-adv-x="282" 
d="M21 602q-57 0 -80 40v66q24 41 80 41t80 -41v-66q-23 -40 -80 -40zM259 602q-57 0 -80 40v66q24 41 80 41q58 0 80 -41v-66q-22 -40 -80 -40zM75 0v526h132v-526h-132z" />
    <glyph glyph-name="eth" unicode="&#xf0;" horiz-adv-x="633" 
d="M456 615q99 -115 123 -234v-252q-29 -62 -100 -103.5t-163 -41.5t-162.5 41.5t-99.5 103.5v244q29 61 96.5 102t147.5 41q50 0 87 -12q-28 41 -60 76l-156 -42l-18 78l110 30q-43 38 -72 57v27h142q32 -23 61 -49l119 32l18 -78zM442 173v168q-13 27 -47 43.5t-79 16.5
q-44 0 -78 -17.5t-47 -45.5v-165q13 -29 46.5 -46.5t78.5 -17.5t79 17.5t47 46.5z" />
    <glyph glyph-name="ntilde" unicode="&#xf1;" horiz-adv-x="632" 
d="M241 648q-39 0 -48 -50l-75 27q8 46 38 79t79 33q37 0 85 -25t72 -25q40 0 49 50l75 -24q-24 -115 -119 -115q-33 0 -82.5 25t-73.5 25zM354 542q79 0 137 -44t74 -103v-395h-132v361q-11 25 -41 43t-74 18q-43 0 -73.5 -19t-39.5 -43v-360h-132v526h124v-54
q60 70 157 70z" />
    <glyph glyph-name="ograve" unicode="&#xf2;" horiz-adv-x="647" 
d="M266 604l-101 126v25h150l63 -138v-13h-112zM324 -16q-97 0 -170.5 48t-99.5 122v219q26 74 99.5 122t170.5 48t170 -48t99 -122v-219q-26 -74 -99 -122t-170 -48zM324 104q51 0 88.5 25t48.5 57v154q-11 33 -48.5 58t-88.5 25t-88.5 -25t-49.5 -58v-154q12 -32 49.5 -57
t88.5 -25z" />
    <glyph glyph-name="oacute" unicode="&#xf3;" horiz-adv-x="647" 
d="M267 604v13l63 138h150v-25l-101 -126h-112zM324 -16q-97 0 -170.5 48t-99.5 122v219q26 74 99.5 122t170.5 48t170 -48t99 -122v-219q-26 -74 -99 -122t-170 -48zM324 104q51 0 88.5 25t48.5 57v154q-11 33 -48.5 58t-88.5 25t-88.5 -25t-49.5 -58v-154q12 -32 49.5 -57
t88.5 -25z" />
    <glyph glyph-name="ocircumflex" unicode="&#xf4;" horiz-adv-x="647" 
d="M323 698l-76 -94h-106v13l85 138h193l85 -138v-13h-106zM324 543q97 0 170 -48t99 -122v-219q-26 -74 -99 -122t-170 -48t-170.5 48t-99.5 122v219q26 74 99.5 122t170.5 48zM461 186v154q-11 33 -48.5 58t-88.5 25t-88.5 -25t-49.5 -58v-154q12 -32 49.5 -57t88.5 -25
t88.5 25t48.5 57z" />
    <glyph glyph-name="otilde" unicode="&#xf5;" horiz-adv-x="647" 
d="M199 598l-75 27q8 46 38 79t79 33q37 0 85 -25t72 -25q40 0 49 50l75 -24q-24 -115 -119 -115q-33 0 -82.5 25t-73.5 25q-39 0 -48 -50zM324 -16q-97 0 -170.5 48t-99.5 122v219q26 74 99.5 122t170.5 48t170 -48t99 -122v-219q-26 -74 -99 -122t-170 -48zM324 104
q51 0 88.5 25t48.5 57v154q-11 33 -48.5 58t-88.5 25t-88.5 -25t-49.5 -58v-154q12 -32 49.5 -57t88.5 -25z" />
    <glyph glyph-name="odieresis" unicode="&#xf6;" horiz-adv-x="647" 
d="M203 602q-57 0 -80 40v66q24 41 80 41t80 -41v-66q-23 -40 -80 -40zM441 602q-57 0 -80 40v66q24 41 80 41q58 0 80 -41v-66q-22 -40 -80 -40zM324 -16q-97 0 -170.5 48t-99.5 122v219q26 74 99.5 122t170.5 48t170 -48t99 -122v-219q-26 -74 -99 -122t-170 -48zM324 104
q51 0 88.5 25t48.5 57v154q-11 33 -48.5 58t-88.5 25t-88.5 -25t-49.5 -58v-154q12 -32 49.5 -57t88.5 -25z" />
    <glyph glyph-name="divide" unicode="&#xf7;" 
d="M314 478q-61 0 -83 43v77q22 43 83 43q60 0 82 -43v-78q-23 -42 -82 -42zM38 295v119h554v-119h-554zM314 68q-61 0 -83 43v77q22 43 83 43q60 0 82 -43v-78q-23 -42 -82 -42z" />
    <glyph glyph-name="oslash" unicode="&#xf8;" horiz-adv-x="647" 
d="M593 526v-27l-45 -50q29 -34 45 -76v-219q-26 -74 -99 -122t-170 -48q-89 0 -160 41l-23 -25h-87v26l46 51q-31 36 -46 77v219q26 74 99.5 122t170.5 48q89 0 160 -42l23 25h86zM186 186q0 -1 1.5 -4.5t2.5 -5.5l208 230q-34 17 -74 17q-51 0 -88.5 -25t-49.5 -58v-154z
M461 340q-2 6 -4 9l-207 -228q32 -17 74 -17q51 0 88.5 25t48.5 57v154z" />
    <glyph glyph-name="ugrave" unicode="&#xf9;" horiz-adv-x="629" 
d="M369 604h-112l-101 126v25h150l63 -138v-13zM423 526h132v-526h-124v54q-59 -70 -154 -70q-77 0 -135 45t-74 105v392h132v-359q11 -26 39.5 -44t72.5 -18q42 0 72 19.5t39 44.5v357z" />
    <glyph glyph-name="uacute" unicode="&#xfa;" horiz-adv-x="629" 
d="M471 730l-101 -126h-112v13l63 138h150v-25zM423 526h132v-526h-124v54q-59 -70 -154 -70q-77 0 -135 45t-74 105v392h132v-359q11 -26 39.5 -44t72.5 -18q42 0 72 19.5t39 44.5v357z" />
    <glyph glyph-name="ucircumflex" unicode="&#xfb;" horiz-adv-x="629" 
d="M314 698l-76 -94h-106v13l85 138h193l85 -138v-13h-106zM423 526h132v-526h-124v54q-59 -70 -154 -70q-77 0 -135 45t-74 105v392h132v-359q11 -26 39.5 -44t72.5 -18q42 0 72 19.5t39 44.5v357z" />
    <glyph glyph-name="udieresis" unicode="&#xfc;" horiz-adv-x="629" 
d="M194 602q-57 0 -80 40v66q24 41 80 41t80 -41v-66q-23 -40 -80 -40zM432 602q-57 0 -80 40v66q24 41 80 41q58 0 80 -41v-66q-22 -40 -80 -40zM423 526h132v-526h-124v54q-59 -70 -154 -70q-77 0 -135 45t-74 105v392h132v-359q11 -26 39.5 -44t72.5 -18q42 0 72 19.5
t39 44.5v357z" />
    <glyph glyph-name="yacute" unicode="&#xfd;" horiz-adv-x="571" 
d="M441 730l-101 -126h-112v13l63 138h150v-25zM426 526h127v-25l-296 -671h-124v26l81 186l-195 459v25h131l135 -323z" />
    <glyph glyph-name="thorn" unicode="&#xfe;" horiz-adv-x="659" 
d="M363 542q87 0 152.5 -48t89.5 -122v-218q-24 -74 -89.5 -122t-152.5 -48q-95 0 -158 61v-215h-132v900h132v-249q63 61 158 61zM473 186v153q-13 33 -49 57.5t-87 24.5q-46 0 -80.5 -19t-51.5 -47v-185q17 -28 51.5 -47.5t80.5 -19.5q51 0 87 25t49 58z" />
    <glyph glyph-name="ydieresis" unicode="&#xff;" horiz-adv-x="571" 
d="M164 602q-57 0 -80 40v66q24 41 80 41t80 -41v-66q-23 -40 -80 -40zM402 602q-57 0 -80 40v66q24 41 80 41q58 0 80 -41v-66q-22 -40 -80 -40zM426 526h127v-25l-296 -671h-124v26l81 186l-195 459v25h131l135 -323z" />
    <glyph glyph-name="Amacron" unicode="&#x100;" horiz-adv-x="757" 
d="M541 890v-95h-324v95h324zM471 706l266 -679v-27h-141l-54 143h-330l-54 -143h-138v26l267 680h184zM262 272h231l-116 305z" />
    <glyph glyph-name="amacron" unicode="&#x101;" horiz-adv-x="599" 
d="M463 714v-95h-324v95h324zM291 543q86 0 152 -39.5t89 -103.5v-400h-121v53q-55 -68 -158 -68q-70 0 -123 28t-73 69v123q40 85 204 106q130 16 142 34v24q-12 24 -41.5 40t-71.5 16q-44 0 -77.5 -22t-51.5 -56l-117 50q27 63 94.5 104.5t152.5 41.5zM403 146v106
q-24 -20 -120 -38q-83 -15 -99 -43v-43q29 -35 98 -35q83 0 121 53z" />
    <glyph glyph-name="Abreve" unicode="&#x102;" horiz-adv-x="757" 
d="M379 775q-83 0 -129.5 40t-48.5 102h108q2 -28 19 -47t51 -19t51 19t19 47h108q-2 -61 -48.5 -101.5t-129.5 -40.5zM471 706l266 -679v-27h-141l-54 143h-330l-54 -143h-138v26l267 680h184zM262 272h231l-116 305z" />
    <glyph glyph-name="abreve" unicode="&#x103;" horiz-adv-x="599" 
d="M301 599q-83 0 -129.5 40t-48.5 102h108q2 -28 19 -47t51 -19t51 19t19 47h108q-2 -61 -48.5 -101.5t-129.5 -40.5zM291 543q86 0 152 -39.5t89 -103.5v-400h-121v53q-55 -68 -158 -68q-70 0 -123 28t-73 69v123q40 85 204 106q130 16 142 34v24q-12 24 -41.5 40
t-71.5 16q-44 0 -77.5 -22t-51.5 -56l-117 50q27 63 94.5 104.5t152.5 41.5zM403 146v106q-24 -20 -120 -38q-83 -15 -99 -43v-43q29 -35 98 -35q83 0 121 53z" />
    <glyph glyph-name="Aogonek" unicode="&#x104;" horiz-adv-x="757" 
d="M731 -121l14 -70q-30 -16 -81 -16q-45 0 -75.5 15t-41.5 34v79q17 39 86 79h-37l-54 143h-330l-54 -143h-138v26l267 680h184l266 -679v-27q-85 -55 -94 -86v-22q13 -19 50 -19q21 0 38 6zM262 272h231l-116 305z" />
    <glyph glyph-name="aogonek" unicode="&#x105;" horiz-adv-x="599" 
d="M527 -121l14 -70q-30 -16 -81 -16q-45 0 -75.5 15t-41.5 34v79q17 39 86 79h-18v53q-55 -68 -158 -68q-70 0 -123 28t-73 69v123q40 85 204 106q130 16 142 34v24q-12 24 -41.5 40t-71.5 16q-44 0 -77.5 -22t-51.5 -56l-117 50q27 63 94.5 104.5t152.5 41.5
q86 0 152 -39.5t89 -103.5v-400h1q-85 -55 -94 -86v-22q13 -19 50 -19q22 0 38 6zM403 146v106q-24 -20 -120 -38q-83 -15 -99 -43v-43q29 -35 98 -35q83 0 121 53z" />
    <glyph glyph-name="Cacute" unicode="&#x106;" horiz-adv-x="773" 
d="M365 780v13l63 138h150v-25l-101 -126h-112zM410 115q74 0 126.5 36t75.5 90l131 -54q-37 -93 -127 -148t-206 -55q-125 0 -221 64.5t-128 163.5v282q32 99 128 163.5t221 64.5q116 0 206 -55t127 -148l-131 -54q-23 54 -75.5 90t-126.5 36q-75 0 -132 -39.5t-73 -95.5
v-206q16 -56 73 -95.5t132 -39.5z" />
    <glyph glyph-name="cacute" unicode="&#x107;" horiz-adv-x="590" 
d="M271 604v13l63 138h150v-25l-101 -126h-112zM318 -16q-97 0 -167.5 47.5t-96.5 122.5v219q26 74 96.5 122t167.5 48q88 0 154.5 -40t96.5 -110l-122 -48q-14 32 -47 55t-82 23q-51 0 -86 -25t-46 -58v-154q11 -33 46 -57.5t86 -24.5q48 0 81 22.5t48 54.5l122 -47
q-30 -70 -96 -110t-155 -40z" />
    <glyph glyph-name="Cdotaccent" unicode="&#x10a;" horiz-adv-x="773" 
d="M421 766q-57 0 -81 41v67q24 41 81 41q59 0 81 -41v-67q-22 -41 -81 -41zM410 115q74 0 126.5 36t75.5 90l131 -54q-37 -93 -127 -148t-206 -55q-125 0 -221 64.5t-128 163.5v282q32 99 128 163.5t221 64.5q116 0 206 -55t127 -148l-131 -54q-23 54 -75.5 90t-126.5 36
q-75 0 -132 -39.5t-73 -95.5v-206q16 -56 73 -95.5t132 -39.5z" />
    <glyph glyph-name="cdotaccent" unicode="&#x10b;" horiz-adv-x="590" 
d="M327 600q-57 0 -81 41v67q24 41 81 41q59 0 81 -41v-67q-22 -41 -81 -41zM318 -16q-97 0 -167.5 47.5t-96.5 122.5v219q26 74 96.5 122t167.5 48q88 0 154.5 -40t96.5 -110l-122 -48q-14 32 -47 55t-82 23q-51 0 -86 -25t-46 -58v-154q11 -33 46 -57.5t86 -24.5
q48 0 81 22.5t48 54.5l122 -47q-30 -70 -96 -110t-155 -40z" />
    <glyph glyph-name="Ccaron" unicode="&#x10c;" horiz-adv-x="773" 
d="M324 780l-85 137v14h106l76 -95l75 95h106v-14l-85 -137h-193zM410 115q74 0 126.5 36t75.5 90l131 -54q-37 -93 -127 -148t-206 -55q-125 0 -221 64.5t-128 163.5v282q32 99 128 163.5t221 64.5q116 0 206 -55t127 -148l-131 -54q-23 54 -75.5 90t-126.5 36
q-75 0 -132 -39.5t-73 -95.5v-206q16 -56 73 -95.5t132 -39.5z" />
    <glyph glyph-name="ccaron" unicode="&#x10d;" horiz-adv-x="590" 
d="M230 604l-85 137v14h106l76 -95l75 95h106v-14l-85 -137h-193zM318 104q48 0 81 22.5t48 54.5l122 -47q-30 -70 -96 -110t-155 -40q-97 0 -167.5 47.5t-96.5 122.5v219q26 74 96.5 122t167.5 48q88 0 154.5 -40t96.5 -110l-122 -48q-14 32 -47 55t-82 23q-51 0 -86 -25
t-46 -58v-154q11 -33 46 -57.5t86 -24.5z" />
    <glyph glyph-name="Dcaron" unicode="&#x10e;" horiz-adv-x="774" 
d="M281 780l-85 137v14h106l76 -95l75 95h106v-14l-85 -137h-193zM356 706q128 0 226 -65t132 -165v-246q-34 -100 -132 -165t-226 -65h-271v706h271zM569 267v172q-16 55 -76 95t-137 40h-128v-442h128q77 0 137 40t76 95z" />
    <glyph glyph-name="dcaron" unicode="&#x10f;" horiz-adv-x="782" 
d="M454 483v247h132v-730h-125v53q-63 -69 -165 -69q-87 0 -152.5 48.5t-89.5 122.5v218q24 74 89.5 122t152.5 48q95 0 158 -60zM667 730h125v-25l-53 -198h-96zM454 171v185q-17 28 -51.5 47t-80.5 19q-51 0 -87 -24.5t-49 -57.5v-153q13 -33 49 -58t87 -25q46 0 80.5 19
t51.5 48z" />
    <glyph glyph-name="Dcroat" unicode="&#x110;" horiz-adv-x="797" 
d="M380 706q128 0 226 -65t132 -165v-246q-34 -100 -132 -165t-226 -65h-271v296h-92v114h92v296h271zM593 267v172q-16 55 -76 95t-137 40h-128v-164h171v-114h-171v-164h128q77 0 137 40t76 95z" />
    <glyph glyph-name="dcroat" unicode="&#x111;" horiz-adv-x="673" 
d="M650 673v-85h-64v-588h-125v53q-63 -69 -165 -69q-87 0 -152.5 48.5t-89.5 122.5v218q24 74 89.5 122t152.5 48q95 0 158 -60v105h-120v85h120v57h132v-57h64zM454 171v185q-17 28 -51.5 47t-80.5 19q-51 0 -87 -24.5t-49 -57.5v-153q13 -33 49 -58t87 -25q46 0 80.5 19
t51.5 48z" />
    <glyph glyph-name="Emacron" unicode="&#x112;" horiz-adv-x="655" 
d="M503 890v-95h-324v95h324zM589 574h-361v-154h329v-129h-329v-159h361v-132h-504v706h504v-132z" />
    <glyph glyph-name="emacron" unicode="&#x113;" horiz-adv-x="627" 
d="M486 714v-95h-324v95h324zM459 180l119 -46q-32 -70 -100 -110t-160 -40q-96 0 -167 48t-97 123v218q26 74 96 122t165 48q94 0 163 -48t96 -122v-153h-391v-39q11 -32 47.5 -57t88.5 -25q102 0 140 81zM314 429q-50 0 -85 -24.5t-46 -56.5v-29h262v29q-12 33 -46.5 57
t-84.5 24z" />
    <glyph glyph-name="Edotaccent" unicode="&#x116;" horiz-adv-x="655" 
d="M341 766q-57 0 -81 41v67q24 41 81 41q59 0 81 -41v-67q-22 -41 -81 -41zM589 574h-361v-154h329v-129h-329v-159h361v-132h-504v706h504v-132z" />
    <glyph glyph-name="edotaccent" unicode="&#x117;" horiz-adv-x="627" 
d="M324 600q-57 0 -81 41v67q24 41 81 41q59 0 81 -41v-67q-22 -41 -81 -41zM459 180l119 -46q-32 -70 -100 -110t-160 -40q-96 0 -167 48t-97 123v218q26 74 96 122t165 48q94 0 163 -48t96 -122v-153h-391v-39q11 -32 47.5 -57t88.5 -25q102 0 140 81zM314 429
q-50 0 -85 -24.5t-46 -56.5v-29h262v29q-12 33 -46.5 57t-84.5 24z" />
    <glyph glyph-name="Eogonek" unicode="&#x118;" horiz-adv-x="655" 
d="M583 -121l14 -70q-30 -16 -81 -16q-45 0 -75.5 15t-41.5 34v79q17 39 86 79h-400v706h504v-132h-361v-154h329v-129h-329v-159h361v-132q-85 -55 -94 -86v-22q13 -19 50 -19q21 0 38 6z" />
    <glyph glyph-name="eogonek" unicode="&#x119;" horiz-adv-x="626" 
d="M499 34q-43 -36 -66.5 -69.5t-27.5 -50.5v-22q11 -19 50 -19q23 0 38 6l14 -70q-29 -16 -81 -16q-86 0 -117 49v79q8 23 53 66q-14 -3 -44 -3q-96 0 -167 48t-97 123v218q26 74 96.5 122t165.5 48q94 0 163 -48t95 -122v-148h-391v-43q11 -33 47.5 -58t89.5 -25
q101 0 139 81l119 -46q-19 -49 -79 -100zM314 430q-50 0 -85 -24.5t-46 -57.5v-30h262v30q-12 33 -46.5 57.5t-84.5 24.5z" />
    <glyph glyph-name="Ecaron" unicode="&#x11a;" horiz-adv-x="655" 
d="M244 780l-85 137v14h106l76 -95l75 95h106v-14l-85 -137h-193zM589 574h-361v-154h329v-129h-329v-159h361v-132h-504v706h504v-132z" />
    <glyph glyph-name="ecaron" unicode="&#x11b;" horiz-adv-x="627" 
d="M227 604l-85 137v14h106l76 -95l75 95h106v-14l-85 -137h-193zM459 180l119 -46q-32 -70 -100 -110t-160 -40q-96 0 -167 48t-97 123v218q26 74 96 122t165 48q94 0 163 -48t96 -122v-153h-391v-39q11 -32 47.5 -57t88.5 -25q102 0 140 81zM314 429q-50 0 -85 -24.5
t-46 -56.5v-29h262v29q-12 33 -46.5 57t-84.5 24z" />
    <glyph glyph-name="Gbreve" unicode="&#x11e;" horiz-adv-x="819" 
d="M414 775q-83 0 -129.5 40t-48.5 102h108q2 -28 19 -47t51 -19t51 19t19 47h108q-2 -61 -48.5 -101.5t-129.5 -40.5zM382 271v125h377v-216q-37 -82 -128.5 -139t-213.5 -57q-127 0 -225 64.5t-131 163.5v282q33 99 131 163.5t225 64.5q123 0 214.5 -56.5t129.5 -143.5
l-137 -53q-24 52 -79.5 87t-127.5 35q-76 0 -135.5 -40t-76.5 -95v-206q17 -55 76.5 -95t135.5 -40q73 0 128 34t73 75v47h-236z" />
    <glyph glyph-name="gbreve" unicode="&#x11f;" horiz-adv-x="648" 
d="M324 599q-83 0 -129.5 40t-48.5 102h108q2 -28 19 -47t51 -19t51 19t19 47h108q-2 -61 -48.5 -101.5t-129.5 -40.5zM453 526h124v-545q-27 -75 -98 -121t-170 -46q-95 0 -165 41.5t-97 112.5l123 40q14 -33 50 -56t91 -23q52 0 87.5 23t46.5 57v81q-64 -57 -155 -57
q-87 0 -150.5 46.5t-87.5 117.5v178q23 73 87 120t151 47q99 0 163 -64v48zM318 151q44 0 77.5 19.5t49.5 47.5v137q-16 28 -49.5 47t-77.5 19q-51 0 -87 -23.5t-47 -54.5v-114q11 -31 47 -54.5t87 -23.5z" />
    <glyph glyph-name="Gdotaccent" unicode="&#x120;" horiz-adv-x="819" 
d="M414 766q-57 0 -81 41v67q24 41 81 41q59 0 81 -41v-67q-22 -41 -81 -41zM382 271v125h377v-216q-37 -82 -128.5 -139t-213.5 -57q-127 0 -225 64.5t-131 163.5v282q33 99 131 163.5t225 64.5q123 0 214.5 -56.5t129.5 -143.5l-137 -53q-24 52 -79.5 87t-127.5 35
q-76 0 -135.5 -40t-76.5 -95v-206q17 -55 76.5 -95t135.5 -40q73 0 128 34t73 75v47h-236z" />
    <glyph glyph-name="gdotaccent" unicode="&#x121;" horiz-adv-x="648" 
d="M324 600q-57 0 -81 41v67q24 41 81 41q59 0 81 -41v-67q-22 -41 -81 -41zM453 526h124v-545q-27 -75 -98 -121t-170 -46q-95 0 -165 41.5t-97 112.5l123 40q14 -33 50 -56t91 -23q52 0 87.5 23t46.5 57v81q-64 -57 -155 -57q-87 0 -150.5 46.5t-87.5 117.5v178
q23 73 87 120t151 47q99 0 163 -64v48zM318 151q44 0 77.5 19.5t49.5 47.5v137q-16 28 -49.5 47t-77.5 19q-51 0 -87 -23.5t-47 -54.5v-114q11 -31 47 -54.5t87 -23.5z" />
    <glyph glyph-name="Gcommaaccent" unicode="&#x122;" horiz-adv-x="819" 
d="M382 271v125h377v-216q-37 -82 -128.5 -139t-213.5 -57q-127 0 -225 64.5t-131 163.5v282q33 99 131 163.5t225 64.5q123 0 214.5 -56.5t129.5 -143.5l-137 -53q-24 52 -79.5 87t-127.5 35q-76 0 -135.5 -40t-76.5 -95v-206q17 -55 76.5 -95t135.5 -40q73 0 128 34t73 75
v47h-236zM411 -53q57 0 78 -40v-60l-64 -97h-67v17l31 52q-41 8 -57 39v48q22 41 79 41z" />
    <glyph glyph-name="gcommaaccent" unicode="&#x123;" horiz-adv-x="648" 
d="M320 616q-57 0 -78 40v60l64 97h67v-17l-31 -52q41 -8 57 -39v-48q-22 -41 -79 -41zM453 526h124v-545q-27 -75 -98 -121t-170 -46q-95 0 -165 41.5t-97 112.5l123 40q14 -33 50 -56t91 -23q52 0 87.5 23t46.5 57v81q-64 -57 -155 -57q-87 0 -150.5 46.5t-87.5 117.5v178
q23 73 87 120t151 47q99 0 163 -64v48zM318 151q44 0 77.5 19.5t49.5 47.5v137q-16 28 -49.5 47t-77.5 19q-51 0 -87 -23.5t-47 -54.5v-114q11 -31 47 -54.5t87 -23.5z" />
    <glyph glyph-name="Hbar" unicode="&#x126;" horiz-adv-x="858" 
d="M802 614v-100h-62v-514h-142v290h-331v-290h-143v514h-67v100h67v92h143v-92h331v92h142v-92h62zM598 422v92h-331v-92h331z" />
    <glyph glyph-name="hbar" unicode="&#x127;" horiz-adv-x="645" 
d="M366 543q79 0 137 -44t74 -104v-395h-132v362q-11 25 -41 42.5t-74 17.5q-43 0 -73.5 -18.5t-39.5 -42.5v-361h-132v588h-61v85h61v57h132v-57h122v-85h-122v-106q59 61 149 61z" />
    <glyph glyph-name="Imacron" unicode="&#x12a;" horiz-adv-x="316" 
d="M-4 795v95h324v-95h-324zM87 0v706h142v-706h-142z" />
    <glyph glyph-name="imacron" unicode="&#x12b;" horiz-adv-x="282" 
d="M-21 619v95h324v-95h-324zM75 0v526h132v-526h-132z" />
    <glyph glyph-name="Iogonek" unicode="&#x12e;" horiz-adv-x="316" 
d="M223 -121l14 -70q-30 -16 -81 -16q-45 0 -75.5 15t-41.5 34v79q17 39 86 79h-38v706h142v-706q-85 -55 -94 -86v-22q13 -19 50 -19q21 0 38 6z" />
    <glyph glyph-name="iogonek" unicode="&#x12f;" horiz-adv-x="282" 
d="M141 749q59 0 81 -41v-67q-22 -41 -81 -41q-57 0 -81 41v67q24 41 81 41zM163 -127q21 0 38 6l14 -70q-30 -16 -81 -16q-45 0 -75.5 15t-41.5 34v79q17 39 86 79h-28v526h132v-526q-85 -55 -94 -86v-22q13 -19 50 -19z" />
    <glyph glyph-name="Idotaccent" unicode="&#x130;" horiz-adv-x="316" 
d="M158 766q-57 0 -81 41v67q24 41 81 41q59 0 81 -41v-67q-22 -41 -81 -41zM87 0v706h142v-706h-142z" />
    <glyph glyph-name="dotlessi" unicode="&#x131;" horiz-adv-x="282" 
d="M75 0v526h132v-526h-132z" />
    <glyph glyph-name="Kcommaaccent" unicode="&#x136;" horiz-adv-x="734" 
d="M442 421l271 -395v-26h-149l-222 323l-114 -110v-213h-143v706h143v-328l318 328h156v-26zM370 -53q57 0 78 -40v-60l-64 -97h-67v17l31 52q-41 8 -57 39v48q22 41 79 41z" />
    <glyph glyph-name="kcommaaccent" unicode="&#x137;" horiz-adv-x="604" 
d="M381 317l208 -291v-26h-136l-166 231l-82 -75v-156h-132v730h132v-423l228 219h143v-25zM321 -53q57 0 78 -40v-60l-64 -97h-67v17l31 52q-41 8 -57 39v48q22 41 79 41z" />
    <glyph glyph-name="Lacute" unicode="&#x139;" horiz-adv-x="622" 
d="M318 906l-101 -126h-112v13l63 138h150v-25zM228 132h357v-132h-500v706h143v-574z" />
    <glyph glyph-name="lacute" unicode="&#x13a;" horiz-adv-x="278" 
d="M84 785v13l63 138h150v-25l-101 -126h-112zM73 0v730h132v-730h-132z" />
    <glyph glyph-name="Lcommaaccent" unicode="&#x13b;" horiz-adv-x="622" 
d="M228 132h357v-132h-500v706h143v-574zM329 -53q57 0 78 -40v-60l-64 -97h-67v17l31 52q-41 8 -57 39v48q22 41 79 41z" />
    <glyph glyph-name="lcommaaccent" unicode="&#x13c;" horiz-adv-x="278" 
d="M205 730v-730h-132v730h132zM140 -53q57 0 78 -40v-60l-64 -97h-67v17l31 52q-41 8 -57 39v48q22 41 79 41z" />
    <glyph glyph-name="Lcaron" unicode="&#x13d;" horiz-adv-x="622" 
d="M228 132h357v-132h-500v706h143v-574zM453 681l-53 -198h-96l24 223h125v-25z" />
    <glyph glyph-name="lcaron" unicode="&#x13e;" horiz-adv-x="403" 
d="M73 0v730h132v-730h-132zM264 507l24 223h125v-25l-53 -198h-96z" />
    <glyph glyph-name="Lslash" unicode="&#x141;" horiz-adv-x="642" 
d="M248 132h357v-132h-500v236l-78 -42v127l78 42v343h143v-267l162 86v-126l-162 -87v-180z" />
    <glyph glyph-name="lslash" unicode="&#x142;" horiz-adv-x="396" 
d="M363 536v-124l-98 -54v-358h-132v286l-99 -54v125l99 54v319h132v-247z" />
    <glyph glyph-name="Nacute" unicode="&#x143;" horiz-adv-x="780" 
d="M546 906l-101 -126h-112v13l63 138h150v-25zM556 706h138v-706h-142l-328 501v-501h-139v706h160l311 -473v473z" />
    <glyph glyph-name="nacute" unicode="&#x144;" horiz-adv-x="632" 
d="M474 730l-101 -126h-112v13l63 138h150v-25zM354 542q79 0 137 -44t74 -103v-395h-132v361q-11 25 -41 43t-74 18q-43 0 -73.5 -19t-39.5 -43v-360h-132v526h124v-54q60 70 157 70z" />
    <glyph glyph-name="Ncommaaccent" unicode="&#x145;" horiz-adv-x="780" 
d="M556 706h138v-706h-142l-328 501v-501h-139v706h160l311 -473v473zM390 -53q57 0 78 -40v-60l-64 -97h-67v17l31 52q-41 8 -57 39v48q22 41 79 41z" />
    <glyph glyph-name="ncommaaccent" unicode="&#x146;" horiz-adv-x="632" 
d="M354 542q79 0 137 -44t74 -103v-395h-132v361q-11 25 -41 43t-74 18q-43 0 -73.5 -19t-39.5 -43v-360h-132v526h124v-54q60 70 157 70zM318 -53q57 0 78 -40v-60l-64 -97h-67v17l31 52q-41 8 -57 39v48q22 41 79 41z" />
    <glyph glyph-name="Ncaron" unicode="&#x147;" horiz-adv-x="780" 
d="M292 780l-85 137v14h106l76 -95l75 95h106v-14l-85 -137h-193zM556 706h138v-706h-142l-328 501v-501h-139v706h160l311 -473v473z" />
    <glyph glyph-name="ncaron" unicode="&#x148;" horiz-adv-x="632" 
d="M220 604l-85 137v14h106l76 -95l75 95h106v-14l-85 -137h-193zM354 542q79 0 137 -44t74 -103v-395h-132v361q-11 25 -41 43t-74 18q-43 0 -73.5 -19t-39.5 -43v-360h-132v526h124v-54q60 70 157 70z" />
    <glyph glyph-name="Eng" unicode="&#x14a;" horiz-adv-x="780" 
d="M694 706v-706h-6v-16q-27 -68 -97 -112.5t-162 -44.5q-31 0 -48 3v128h38q86 0 120 62l-315 481v-501h-139v706h160l311 -473v473h138z" />
    <glyph glyph-name="eng" unicode="&#x14b;" horiz-adv-x="632" 
d="M354 542q79 0 137 -44t74 -103v-408q-23 -65 -84.5 -110.5t-145.5 -55.5v121q37 8 63 30.5t35 46.5v342q-11 25 -41 43t-74 18q-43 0 -73.5 -19t-39.5 -43v-360h-132v526h124v-54q60 70 157 70z" />
    <glyph glyph-name="Omacron" unicode="&#x14c;" horiz-adv-x="836" 
d="M257 795v95h324v-95h-324zM419 -16q-128 0 -226.5 64.5t-131.5 163.5v282q33 99 131.5 163.5t226.5 64.5t226 -64.5t131 -163.5v-282q-33 -99 -131 -163.5t-226 -64.5zM418 115q77 0 137 40t77 95v206q-17 55 -77 95t-137 40q-76 0 -136 -40t-77 -95v-206q17 -55 77 -95
t136 -40z" />
    <glyph glyph-name="omacron" unicode="&#x14d;" horiz-adv-x="647" 
d="M161 619v95h324v-95h-324zM324 -16q-97 0 -170.5 48t-99.5 122v219q26 74 99.5 122t170.5 48t170 -48t99 -122v-219q-26 -74 -99 -122t-170 -48zM324 104q51 0 88.5 25t48.5 57v154q-11 33 -48.5 58t-88.5 25t-88.5 -25t-49.5 -58v-154q12 -32 49.5 -57t88.5 -25z" />
    <glyph glyph-name="Ohungarumlaut" unicode="&#x150;" horiz-adv-x="836" 
d="M264 780v13l63 138h131v-25l-95 -126h-99zM473 780v13l63 138h132v-25l-96 -126h-99zM419 -16q-128 0 -226.5 64.5t-131.5 163.5v282q33 99 131.5 163.5t226.5 64.5t226 -64.5t131 -163.5v-282q-33 -99 -131 -163.5t-226 -64.5zM418 115q77 0 137 40t77 95v206
q-17 55 -77 95t-137 40q-76 0 -136 -40t-77 -95v-206q17 -55 77 -95t136 -40z" />
    <glyph glyph-name="ohungarumlaut" unicode="&#x151;" horiz-adv-x="647" 
d="M168 604v13l63 138h131v-25l-95 -126h-99zM377 604v13l63 138h132v-25l-96 -126h-99zM324 -16q-97 0 -170.5 48t-99.5 122v219q26 74 99.5 122t170.5 48t170 -48t99 -122v-219q-26 -74 -99 -122t-170 -48zM324 104q51 0 88.5 25t48.5 57v154q-11 33 -48.5 58t-88.5 25
t-88.5 -25t-49.5 -58v-154q12 -32 49.5 -57t88.5 -25z" />
    <glyph glyph-name="OE" unicode="&#x152;" horiz-adv-x="1202" 
d="M1137 574h-363v-154h331v-129h-331v-159h363v-132h-505v44q-93 -60 -213 -60q-128 0 -226.5 64.5t-131.5 163.5v282q33 99 131.5 163.5t226.5 64.5q120 0 213 -60v44h505v-132zM418 115q77 0 137 40t77 95v206q-17 55 -77 95t-137 40q-76 0 -136 -40t-77 -95v-206
q17 -55 77 -95t136 -40z" />
    <glyph glyph-name="oe" unicode="&#x153;" horiz-adv-x="1037" 
d="M869 180l119 -46q-32 -70 -100 -110t-160 -40q-121 0 -200 76q-83 -76 -204 -76q-97 0 -170.5 48t-99.5 122v219q26 74 99.5 122t170.5 48q121 0 203 -75q80 75 199 75q94 0 163 -48t95 -122v-148h-391v-43q11 -33 47.5 -58t89.5 -25q101 0 139 81zM724 430
q-50 0 -84.5 -24.5t-46.5 -57.5v-30h262v30q-12 33 -46.5 57.5t-84.5 24.5zM461 186v154q-11 33 -48.5 58t-88.5 25t-88.5 -25t-49.5 -58v-154q12 -32 49.5 -57t88.5 -25t88.5 25t48.5 57z" />
    <glyph glyph-name="Racute" unicode="&#x154;" horiz-adv-x="707" 
d="M517 906l-101 -126h-112v13l63 138h150v-25zM505 275l166 -249v-26h-143l-167 254h-133v-254h-143v706h312q84 0 152 -43t90 -105v-156q-14 -39 -50 -73t-84 -54zM228 579v-203h155q40 0 71 17.5t43 44.5v78q-12 28 -43 45.5t-71 17.5h-155z" />
    <glyph glyph-name="racute" unicode="&#x155;" horiz-adv-x="410" 
d="M248 755h150v-25l-101 -126h-112v13zM197 443q46 91 143 91q27 0 45 -8v-128h-35q-63 0 -98.5 -23t-46.5 -54v-321h-132v526h124v-83z" />
    <glyph glyph-name="Rcommaaccent" unicode="&#x156;" horiz-adv-x="707" 
d="M505 275l166 -249v-26h-143l-167 254h-133v-254h-143v706h312q84 0 152 -43t90 -105v-156q-14 -39 -50 -73t-84 -54zM228 579v-203h155q40 0 71 17.5t43 44.5v78q-12 28 -43 45.5t-71 17.5h-155zM361 -53q57 0 78 -40v-60l-64 -97h-67v17l31 52q-41 8 -57 39v48
q22 41 79 41z" />
    <glyph glyph-name="rcommaaccent" unicode="&#x157;" horiz-adv-x="410" 
d="M340 534q27 0 45 -8v-128h-35q-63 0 -98.5 -23t-46.5 -54v-321h-132v526h124v-83q46 91 143 91zM139 -53q57 0 78 -40v-60l-64 -97h-67v17l31 52q-41 8 -57 39v48q22 41 79 41z" />
    <glyph glyph-name="Rcaron" unicode="&#x158;" horiz-adv-x="707" 
d="M263 780l-85 137v14h106l76 -95l75 95h106v-14l-85 -137h-193zM505 275l166 -249v-26h-143l-167 254h-133v-254h-143v706h312q84 0 152 -43t90 -105v-156q-14 -39 -50 -73t-84 -54zM228 579v-203h155q40 0 71 17.5t43 44.5v78q-12 28 -43 45.5t-71 17.5h-155z" />
    <glyph glyph-name="rcaron" unicode="&#x159;" horiz-adv-x="410" 
d="M316 755h106v-14l-85 -137h-193l-85 137v14h106l76 -95zM197 443q46 91 143 91q27 0 45 -8v-128h-35q-63 0 -98.5 -23t-46.5 -54v-321h-132v526h124v-83z" />
    <glyph glyph-name="Sacute" unicode="&#x15a;" horiz-adv-x="663" 
d="M283 780v13l63 138h150v-25l-101 -126h-112zM331 -16q-105 0 -184.5 46.5t-110.5 122.5l123 60q24 -49 69 -74.5t102 -25.5q49 0 85 17.5t51 45.5v52q-18 35 -68 51q-26 9 -89 16.5t-101 20.5q-113 39 -151 125v133q30 65 103 106.5t168 41.5q102 0 178 -45t107 -119
l-124 -61q-23 47 -65 72t-95 25q-46 0 -80.5 -17.5t-47.5 -45.5v-44q18 -37 66 -51q23 -7 87 -15.5t103 -22.5q111 -38 153 -125v-141q-31 -63 -106.5 -105.5t-172.5 -42.5z" />
    <glyph glyph-name="sacute" unicode="&#x15b;" horiz-adv-x="534" 
d="M211 604v13l63 138h150v-25l-101 -126h-112zM269 -15q-86 0 -150 36.5t-87 99.5l113 46q18 -34 51.5 -52t72.5 -18q69 0 91 38v36q-10 19 -47 30q-14 4 -65 10.5t-81 16.5q-84 28 -117 93v107q24 49 83 81.5t134 32.5q82 0 143 -35.5t84 -96.5l-112 -44q-36 64 -116 64
q-33 0 -56 -11.5t-31 -28.5v-30q7 -21 44 -30q12 -3 64 -9.5t81 -16.5q90 -30 119 -93v-112q-23 -49 -82 -81.5t-136 -32.5z" />
    <glyph glyph-name="Scedilla" unicode="&#x15e;" horiz-adv-x="663" 
d="M457 398q111 -38 153 -125v-141q-29 -59 -97.5 -100.5t-157.5 -46.5l-14 -34h2q35 0 60.5 -16t34.5 -37v-66q-29 -59 -122 -59q-63 0 -112 31l29 55q37 -22 81 -22q40 0 49 22v20q-9 19 -49 19h-64l36 88q-89 10 -155.5 55t-94.5 112l123 60q24 -49 69 -74.5t102 -25.5
q49 0 85 17.5t51 45.5v52q-18 35 -68 51q-26 9 -89 16.5t-101 20.5q-113 39 -151 125v133q30 65 103 106.5t168 41.5q102 0 178 -45t107 -119l-124 -61q-23 47 -65 72t-95 25q-46 0 -80.5 -17.5t-47.5 -45.5v-44q18 -37 66 -51q23 -7 87 -15.5t103 -22.5z" />
    <glyph glyph-name="scedilla" unicode="&#x15f;" horiz-adv-x="534" 
d="M368 304q90 -30 119 -93v-112q-21 -44 -72 -75.5t-118 -37.5l-14 -35h2q35 0 60.5 -16t34.5 -37v-66q-29 -59 -122 -59q-63 0 -112 31l29 55q37 -22 81 -22q40 0 49 22v20q-9 19 -49 19h-64l37 89q-72 8 -124.5 43.5t-72.5 90.5l113 46q18 -34 51.5 -52t72.5 -18
q69 0 91 38v36q-10 19 -47 30q-14 4 -65 10.5t-81 16.5q-84 28 -117 93v107q24 49 83 81.5t134 32.5q82 0 143 -35.5t84 -96.5l-112 -44q-36 64 -116 64q-33 0 -56 -11.5t-31 -28.5v-30q7 -21 44 -30q12 -3 64 -9.5t81 -16.5z" />
    <glyph glyph-name="Scaron" unicode="&#x160;" horiz-adv-x="663" 
d="M242 780l-85 137v14h106l76 -95l75 95h106v-14l-85 -137h-193zM457 398q111 -38 153 -125v-141q-31 -63 -106.5 -105.5t-172.5 -42.5q-105 0 -184.5 46.5t-110.5 122.5l123 60q24 -49 69 -74.5t102 -25.5q49 0 85 17.5t51 45.5v52q-18 35 -68 51q-26 9 -89 16.5
t-101 20.5q-113 39 -151 125v133q30 65 103 106.5t168 41.5q102 0 178 -45t107 -119l-124 -61q-23 47 -65 72t-95 25q-46 0 -80.5 -17.5t-47.5 -45.5v-44q18 -37 66 -51q23 -7 87 -15.5t103 -22.5z" />
    <glyph glyph-name="scaron" unicode="&#x161;" horiz-adv-x="534" 
d="M170 604l-85 137v14h106l76 -95l75 95h106v-14l-85 -137h-193zM368 304q90 -30 119 -93v-112q-23 -49 -82 -81.5t-136 -32.5q-86 0 -150 36.5t-87 99.5l113 46q18 -34 51.5 -52t72.5 -18q69 0 91 38v36q-10 19 -47 30q-14 4 -65 10.5t-81 16.5q-84 28 -117 93v107
q24 49 83 81.5t134 32.5q82 0 143 -35.5t84 -96.5l-112 -44q-36 64 -116 64q-33 0 -56 -11.5t-31 -28.5v-30q7 -21 44 -30q12 -3 64 -9.5t81 -16.5z" />
    <glyph glyph-name="uni0162" unicode="&#x162;" horiz-adv-x="672" 
d="M408 0h-36l-20 -49h2q35 0 60.5 -16t34.5 -37v-66q-29 -59 -122 -59q-63 0 -112 31l29 55q37 -22 81 -22q40 0 49 22v20q-9 19 -49 19h-64l42 102h-37v574h-236v132h612v-132h-234v-574z" />
    <glyph glyph-name="uni0163" unicode="&#x163;" horiz-adv-x="429" 
d="M325 -7q-15 0 -39 2l-18 -44h2q35 0 60.5 -16t34.5 -37v-66q-29 -59 -122 -59q-63 0 -112 31l29 55q37 -22 81 -22q40 0 49 22v20q-9 19 -49 19h-64l46 112q-67 26 -97 85v325h-103v106h57q35 0 46 26v139h132v-165h132v-106h-132v-264q17 -45 89 -45h44v-111
q-28 -7 -66 -7z" />
    <glyph glyph-name="Tcaron" unicode="&#x164;" horiz-adv-x="672" 
d="M239 780l-85 137v14h106l76 -95l75 95h106v-14l-85 -137h-193zM642 706v-132h-234v-574h-142v574h-236v132h612z" />
    <glyph glyph-name="tcaron" unicode="&#x165;" horiz-adv-x="441" 
d="M319 588l24 223h125v-25l-53 -198h-96zM325 -7q-146 0 -199 102v325h-103v106h57q35 0 46 26v139h132v-165h132v-106h-132v-264q17 -45 89 -45h44v-111q-28 -7 -66 -7z" />
    <glyph glyph-name="Tbar" unicode="&#x166;" horiz-adv-x="672" 
d="M642 574h-234v-182h138v-110h-138v-282h-142v282h-131v110h131v182h-236v132h612v-132z" />
    <glyph glyph-name="tbar" unicode="&#x167;" horiz-adv-x="429" 
d="M347 111h44v-111q-28 -7 -66 -7q-146 0 -199 102v120h-103v106h103v99h-103v106h57q35 0 46 26v139h132v-165h132v-106h-132v-99h132v-106h-132v-59q17 -45 89 -45z" />
    <glyph glyph-name="Umacron" unicode="&#x16a;" horiz-adv-x="755" 
d="M213 795v95h324v-95h-324zM378 -16q-109 0 -190 46t-109 117v559h143v-506q15 -36 55 -60.5t101 -24.5q60 0 100 24.5t56 60.5v506h142v-559q-29 -70 -109.5 -116.5t-188.5 -46.5z" />
    <glyph glyph-name="umacron" unicode="&#x16b;" horiz-adv-x="629" 
d="M476 714v-95h-324v95h324zM423 526h132v-526h-124v54q-59 -70 -154 -70q-77 0 -135 45t-74 105v392h132v-359q11 -26 39.5 -44t72.5 -18q42 0 72 19.5t39 44.5v357z" />
    <glyph glyph-name="Uring" unicode="&#x16e;" horiz-adv-x="751" 
d="M376 672q-51 0 -89 23t-52 58v92q14 35 52 58t89 23q50 0 88 -23t52 -58v-92q-14 -36 -52 -58.5t-88 -22.5zM376 737q54 0 68 31v62q-16 31 -68 31t-68 -31v-62q14 -31 68 -31zM378 -16q-109 0 -190 46t-109 117v559h143v-506q15 -36 55 -60.5t101 -24.5q60 0 100 24.5
t56 60.5v506h142v-559q-29 -70 -109.5 -116.5t-188.5 -46.5z" />
    <glyph glyph-name="uring" unicode="&#x16f;" horiz-adv-x="629" 
d="M315 585q-51 0 -89 23t-52 58v92q14 35 52 58t89 23q50 0 88 -23t52 -58v-92q-14 -36 -52 -58.5t-88 -22.5zM247 743v-62q14 -31 68 -31t68 31v62q-6 12 -24 21.5t-44 9.5t-44 -9.5t-24 -21.5zM423 526h132v-526h-124v54q-59 -70 -154 -70q-77 0 -135 45t-74 105v392h132
v-359q11 -26 39.5 -44t72.5 -18q42 0 72 19.5t39 44.5v357z" />
    <glyph glyph-name="Uhungarumlaut" unicode="&#x170;" horiz-adv-x="755" 
d="M220 780v13l63 138h131v-25l-95 -126h-99zM429 780v13l63 138h132v-25l-96 -126h-99zM378 -16q-109 0 -190 46t-109 117v559h143v-506q15 -36 55 -60.5t101 -24.5q60 0 100 24.5t56 60.5v506h142v-559q-29 -70 -109.5 -116.5t-188.5 -46.5z" />
    <glyph glyph-name="uhungarumlaut" unicode="&#x171;" horiz-adv-x="629" 
d="M353 730l-95 -126h-99v13l63 138h131v-25zM431 755h132v-25l-96 -126h-99v13zM423 169v357h132v-526h-124v54q-59 -70 -154 -70q-77 0 -135 45t-74 105v392h132v-359q11 -26 39.5 -44t72.5 -18q42 0 72 19.5t39 44.5z" />
    <glyph glyph-name="Uogonek" unicode="&#x172;" horiz-adv-x="755" 
d="M467 -207q-44 0 -74.5 14.5t-42.5 34.5v79q11 30 50 64q-4 0 -11 -0.5t-11 -0.5q-109 0 -190 46t-109 117v559h143v-506q15 -36 55 -60.5t101 -24.5q60 0 100 24.5t56 60.5v506h142v-559q-28 -72 -128 -129q-45 -25 -70.5 -54t-31.5 -49v-23q13 -19 51 -19q16 0 37 6
l14 -70q-28 -16 -81 -16z" />
    <glyph glyph-name="uogonek" unicode="&#x173;" horiz-adv-x="629" 
d="M549 -121l14 -70q-30 -16 -81 -16q-45 0 -75.5 15t-41.5 34v79q17 39 86 79h-20v54q-59 -70 -154 -70q-77 0 -135 45t-74 105v392h132v-359q11 -26 39.5 -44t72.5 -18q42 0 72 19.5t39 44.5v357h132v-526q-85 -55 -94 -86v-22q13 -19 50 -19q21 0 38 6z" />
    <glyph glyph-name="Wcircumflex" unicode="&#x174;" horiz-adv-x="1095" 
d="M549 874l-76 -94h-106v13l85 138h193l85 -138v-13h-106zM928 706h137v-26l-201 -680h-167l-149 508l-149 -508h-169l-200 679v27h142l149 -530l154 530h149l154 -532z" />
    <glyph glyph-name="wcircumflex" unicode="&#x175;" horiz-adv-x="888" 
d="M444 698l-76 -94h-106v13l85 138h193l85 -138v-13h-106zM730 526h129v-25l-164 -501h-141l-109 346l-109 -346h-142l-165 501v25h132l111 -358l113 358h121l114 -356z" />
    <glyph glyph-name="Ycircumflex" unicode="&#x176;" horiz-adv-x="686" 
d="M343 874l-76 -94h-106v13l85 138h193l85 -138v-13h-106zM666 706v-26l-251 -406v-274h-143v272l-252 407v27h148l175 -287l175 287h148z" />
    <glyph glyph-name="ycircumflex" unicode="&#x177;" horiz-adv-x="571" 
d="M284 698l-76 -94h-106v13l85 138h193l85 -138v-13h-106zM426 526h127v-25l-296 -671h-124v26l81 186l-195 459v25h131l135 -323z" />
    <glyph glyph-name="Ydieresis" unicode="&#x178;" horiz-adv-x="686" 
d="M211 766q-56 0 -80 40v67q24 42 80 42q58 0 82 -42v-67q-24 -40 -82 -40zM474 766q-56 0 -80 40v67q24 42 80 42q58 0 82 -42v-67q-24 -40 -82 -40zM666 706v-26l-251 -406v-274h-143v272l-252 407v27h148l175 -287l175 287h148z" />
    <glyph glyph-name="Zacute" unicode="&#x179;" horiz-adv-x="712" 
d="M513 906l-101 -126h-112v13l63 138h150v-25zM651 706v-127l-403 -447h403v-132h-591v127l403 447h-395v132h583z" />
    <glyph glyph-name="zacute" unicode="&#x17a;" horiz-adv-x="546" 
d="M430 730l-101 -126h-112v13l63 138h150v-25zM500 526v-112l-286 -299h286v-115h-454v114l285 299h-280v113h449z" />
    <glyph glyph-name="Zdotaccent" unicode="&#x17b;" horiz-adv-x="712" 
d="M356 766q-57 0 -81 41v67q24 41 81 41q59 0 81 -41v-67q-22 -41 -81 -41zM651 706v-127l-403 -447h403v-132h-591v127l403 447h-395v132h583z" />
    <glyph glyph-name="zdotaccent" unicode="&#x17c;" horiz-adv-x="546" 
d="M273 600q-57 0 -81 41v67q24 41 81 41q59 0 81 -41v-67q-22 -41 -81 -41zM500 526v-112l-286 -299h286v-115h-454v114l285 299h-280v113h449z" />
    <glyph glyph-name="Zcaron" unicode="&#x17d;" horiz-adv-x="712" 
d="M259 780l-85 137v14h106l76 -95l75 95h106v-14l-85 -137h-193zM651 706v-127l-403 -447h403v-132h-591v127l403 447h-395v132h583z" />
    <glyph glyph-name="zcaron" unicode="&#x17e;" horiz-adv-x="546" 
d="M176 604l-85 137v14h106l76 -95l75 95h106v-14l-85 -137h-193zM500 526v-112l-286 -299h286v-115h-454v114l285 299h-280v113h449z" />
    <glyph glyph-name="florin" unicode="&#x192;" horiz-adv-x="544" 
d="M425 608q-68 0 -87 -43v-86h123v-105h-123v-290q-52 -101 -199 -101q-39 0 -66 6v109h46q68 0 87 43v233h-115v105h115v143q52 101 199 101q39 0 66 -6v-109h-46z" />
    <glyph glyph-name="Scommaaccent" unicode="&#x218;" horiz-adv-x="663" 
d="M457 398q111 -38 153 -125v-141q-31 -63 -106.5 -105.5t-172.5 -42.5q-105 0 -184.5 46.5t-110.5 122.5l123 60q24 -49 69 -74.5t102 -25.5q49 0 85 17.5t51 45.5v52q-18 35 -68 51q-26 9 -89 16.5t-101 20.5q-113 39 -151 125v133q30 65 103 106.5t168 41.5
q102 0 178 -45t107 -119l-124 -61q-23 47 -65 72t-95 25q-46 0 -80.5 -17.5t-47.5 -45.5v-44q18 -37 66 -51q23 -7 87 -15.5t103 -22.5zM326 -53q57 0 78 -40v-60l-64 -97h-67v17l31 52q-41 8 -57 39v48q22 41 79 41z" />
    <glyph glyph-name="scommaaccent" unicode="&#x219;" horiz-adv-x="534" 
d="M368 304q90 -30 119 -93v-112q-23 -49 -82 -81.5t-136 -32.5q-86 0 -150 36.5t-87 99.5l113 46q18 -34 51.5 -52t72.5 -18q69 0 91 38v36q-10 19 -47 30q-14 4 -65 10.5t-81 16.5q-84 28 -117 93v107q24 49 83 81.5t134 32.5q82 0 143 -35.5t84 -96.5l-112 -44
q-36 64 -116 64q-33 0 -56 -11.5t-31 -28.5v-30q7 -21 44 -30q12 -3 64 -9.5t81 -16.5zM268 -53q57 0 78 -40v-60l-64 -97h-67v17l31 52q-41 8 -57 39v48q22 41 79 41z" />
    <glyph glyph-name="uni021A" unicode="&#x21a;" horiz-adv-x="672" 
d="M30 706h612v-132h-234v-574h-142v574h-236v132zM337 -53q57 0 78 -40v-60l-64 -97h-67v17l31 52q-41 8 -57 39v48q22 41 79 41z" />
    <glyph glyph-name="uni021B" unicode="&#x21b;" horiz-adv-x="429" 
d="M347 111h44v-111q-28 -7 -66 -7q-146 0 -199 102v325h-103v106h57q35 0 46 26v139h132v-165h132v-106h-132v-264q17 -45 89 -45zM253 -53q57 0 78 -40v-60l-64 -97h-67v17l31 52q-41 8 -57 39v48q22 41 79 41z" />
    <glyph glyph-name="circumflex" unicode="&#x2c6;" horiz-adv-x="480" 
d="M327 755l85 -138v-13h-106l-75 94l-76 -94h-106v13l85 138h193z" />
    <glyph glyph-name="caron" unicode="&#x2c7;" horiz-adv-x="480" 
d="M306 755h106v-14l-85 -137h-193l-85 137v14h106l76 -95z" />
    <glyph glyph-name="breve" unicode="&#x2d8;" horiz-adv-x="456" 
d="M227 599q-83 0 -129.5 40t-48.5 102h108q2 -28 19 -47t51 -19t51 19t19 47h108q-2 -61 -48.5 -101.5t-129.5 -40.5z" />
    <glyph glyph-name="dotaccent" unicode="&#x2d9;" horiz-adv-x="262" 
d="M130 600q-57 0 -81 41v67q24 41 81 41q59 0 81 -41v-67q-22 -41 -81 -41z" />
    <glyph glyph-name="ring" unicode="&#x2da;" horiz-adv-x="381" 
d="M190 585q-51 0 -89 23t-52 58v92q14 35 52 58t89 23q50 0 88 -23t52 -58v-92q-14 -36 -52 -58.5t-88 -22.5zM190 650q54 0 68 31v62q-16 31 -68 31t-68 -31v-62q14 -31 68 -31z" />
    <glyph glyph-name="ogonek" unicode="&#x2db;" horiz-adv-x="299" 
d="M166 -207q-45 0 -75.5 15t-41.5 34v79q10 25 48 54.5t90 49.5l52 -25q-85 -55 -94 -86v-22q13 -19 50 -19q21 0 38 6l14 -70q-30 -16 -81 -16z" />
    <glyph glyph-name="tilde" unicode="&#x2dc;" horiz-adv-x="498" 
d="M124 598l-75 27q8 46 38 79t79 33q37 0 85 -25t72 -25q40 0 49 50l75 -24q-24 -115 -119 -115q-33 0 -82.5 25t-73.5 25q-39 0 -48 -50z" />
    <glyph glyph-name="hungarumlaut" unicode="&#x2dd;" horiz-adv-x="509" 
d="M49 604v13l63 138h131v-25l-95 -126h-99zM258 604v13l63 138h132v-25l-96 -126h-99z" />
    <glyph glyph-name="gravecomb" unicode="&#x300;" horiz-adv-x="0" 
d="M-165 604l-101 126v25h150l63 -138v-13h-112z" />
    <glyph glyph-name="acutecomb" unicode="&#x301;" horiz-adv-x="0" 
d="M-266 604v13l63 138h150v-25l-101 -126h-112z" />
    <glyph glyph-name="uni0302" unicode="&#x302;" horiz-adv-x="0" 
d="M-138 755l85 -138v-13h-106l-75 94l-76 -94h-106v13l85 138h193z" />
    <glyph glyph-name="tildecomb" unicode="&#x303;" horiz-adv-x="0" 
d="M-375 598l-75 27q8 46 38 79t79 33q37 0 85 -25t72 -25q40 0 49 50l75 -24q-24 -115 -119 -115q-33 0 -82.5 25t-73.5 25q-39 0 -48 -50z" />
    <glyph glyph-name="uni0304" unicode="&#x304;" horiz-adv-x="0" 
d="M-377 619v95h324v-95h-324z" />
    <glyph glyph-name="uni0306" unicode="&#x306;" horiz-adv-x="0" 
d="M-231 599q-83 0 -129.5 40t-48.5 102h108q2 -28 19 -47t51 -19t51 19t19 47h108q-2 -61 -48.5 -101.5t-129.5 -40.5z" />
    <glyph glyph-name="uni0307" unicode="&#x307;" horiz-adv-x="0" 
d="M-134 600q-57 0 -81 41v67q24 41 81 41q59 0 81 -41v-67q-22 -41 -81 -41z" />
    <glyph glyph-name="uni0308" unicode="&#x308;" horiz-adv-x="0" 
d="M-371 602q-57 0 -80 40v66q24 41 80 41t80 -41v-66q-23 -40 -80 -40zM-133 602q-57 0 -80 40v66q24 41 80 41q58 0 80 -41v-66q-22 -40 -80 -40z" />
    <glyph glyph-name="uni030A" unicode="&#x30a;" horiz-adv-x="0" 
d="M-193 585q-51 0 -89 23t-52 58v92q14 35 52 58t89 23q50 0 88 -23t52 -58v-92q-14 -36 -52 -58.5t-88 -22.5zM-193 650q54 0 68 31v62q-6 12 -24 21.5t-44 9.5t-44 -9.5t-24 -21.5v-62q14 -31 68 -31z" />
    <glyph glyph-name="uni030B" unicode="&#x30b;" horiz-adv-x="0" 
d="M-456 604v13l63 138h131v-25l-95 -126h-99zM-247 604v13l63 138h132v-25l-96 -126h-99z" />
    <glyph glyph-name="uni030C" unicode="&#x30c;" horiz-adv-x="0" 
d="M-159 755h106v-14l-85 -137h-193l-85 137v14h106l76 -95z" />
    <glyph glyph-name="uni0312" unicode="&#x312;" horiz-adv-x="0" 
d="M-110 744q41 -8 57 -39v-48q-22 -41 -79 -41t-78 40v60l64 97h67v-17z" />
    <glyph glyph-name="uni0326" unicode="&#x326;" horiz-adv-x="0" 
d="M-131 -53q57 0 78 -40v-60l-64 -97h-67v17l31 52q-41 8 -57 39v48q22 41 79 41z" />
    <glyph glyph-name="uni0327" unicode="&#x327;" horiz-adv-x="0" 
d="M-148 -49q35 0 60.5 -16t34.5 -37v-66q-29 -59 -122 -59q-63 0 -112 31l29 55q37 -22 81 -22q40 0 49 22v20q-9 19 -49 19h-64l51 124l62 -17l-22 -54h2z" />
    <glyph glyph-name="uni0328" unicode="&#x328;" horiz-adv-x="0" 
d="M-134 -207q-45 0 -75.5 15t-41.5 34v79q10 25 48 54.5t90 49.5l52 -25q-85 -55 -94 -86v-22q13 -19 50 -19q21 0 38 6l14 -70q-30 -16 -81 -16z" />
    <glyph glyph-name="uni03BC" unicode="&#x3bc;" horiz-adv-x="628" 
d="M423 526h132v-526h-125v54q-52 -67 -137 -67q-53 0 -93 35v-192h-132v696h132v-359q11 -26 39.5 -44t72.5 -18q42 0 71.5 19.5t39.5 44.5v357z" />
    <glyph glyph-name="pi" unicode="&#x3c0;" horiz-adv-x="718" 
d="M694 526v-106h-102v-420h-132v420h-203v-420h-132v420h-102v106h671z" />
    <glyph glyph-name="Wgrave" unicode="&#x1e80;" horiz-adv-x="1095" 
d="M604 780h-112l-101 126v25h150l63 -138v-13zM928 706h137v-26l-201 -680h-167l-149 508l-149 -508h-169l-200 679v27h142l149 -530l154 530h149l154 -532z" />
    <glyph glyph-name="wgrave" unicode="&#x1e81;" horiz-adv-x="888" 
d="M499 604h-112l-101 126v25h150l63 -138v-13zM730 526h129v-25l-164 -501h-141l-109 346l-109 -346h-142l-165 501v25h132l111 -358l113 358h121l114 -356z" />
    <glyph glyph-name="Wacute" unicode="&#x1e82;" horiz-adv-x="1095" 
d="M706 906l-101 -126h-112v13l63 138h150v-25zM928 706h137v-26l-201 -680h-167l-149 508l-149 -508h-169l-200 679v27h142l149 -530l154 530h149l154 -532z" />
    <glyph glyph-name="wacute" unicode="&#x1e83;" horiz-adv-x="888" 
d="M601 730l-101 -126h-112v13l63 138h150v-25zM730 526h129v-25l-164 -501h-141l-109 346l-109 -346h-142l-165 501v25h132l111 -358l113 358h121l114 -356z" />
    <glyph glyph-name="Wdieresis" unicode="&#x1e84;" horiz-adv-x="1095" 
d="M417 766q-56 0 -80 40v67q24 42 80 42q58 0 82 -42v-67q-24 -40 -82 -40zM680 766q-56 0 -80 40v67q24 42 80 42q58 0 82 -42v-67q-24 -40 -82 -40zM928 706h137v-26l-201 -680h-167l-149 508l-149 -508h-169l-200 679v27h142l149 -530l154 530h149l154 -532z" />
    <glyph glyph-name="wdieresis" unicode="&#x1e85;" horiz-adv-x="888" 
d="M324 602q-57 0 -80 40v66q24 41 80 41t80 -41v-66q-23 -40 -80 -40zM562 602q-57 0 -80 40v66q24 41 80 41q58 0 80 -41v-66q-22 -40 -80 -40zM730 526h129v-25l-164 -501h-141l-109 346l-109 -346h-142l-165 501v25h132l111 -358l113 358h121l114 -356z" />
    <glyph glyph-name="Ygrave" unicode="&#x1ef2;" horiz-adv-x="686" 
d="M398 780h-112l-101 126v25h150l63 -138v-13zM666 706v-26l-251 -406v-274h-143v272l-252 407v27h148l175 -287l175 287h148z" />
    <glyph glyph-name="ygrave" unicode="&#x1ef3;" horiz-adv-x="571" 
d="M339 604h-112l-101 126v25h150l63 -138v-13zM426 526h127v-25l-296 -671h-124v26l81 186l-195 459v25h131l135 -323z" />
    <glyph glyph-name="endash" unicode="&#x2013;" horiz-adv-x="846" 
d="M56 256v117h735v-117h-735z" />
    <glyph glyph-name="emdash" unicode="&#x2014;" horiz-adv-x="1222" 
d="M60 256v117h1101v-117h-1101z" />
    <glyph glyph-name="quoteleft" unicode="&#x2018;" horiz-adv-x="272" 
d="M162 575q42 -9 57 -40v-77q-22 -43 -83 -43t-83 43v88l79 160h85v-16z" />
    <glyph glyph-name="quoteright" unicode="&#x2019;" horiz-adv-x="272" 
d="M136 715q61 0 83 -43v-88l-79 -160h-85v16l55 115q-42 9 -57 40v77q22 43 83 43z" />
    <glyph glyph-name="quotesinglbase" unicode="&#x201a;" horiz-adv-x="272" 
d="M136 152q61 0 83 -43v-88l-79 -160h-85v16l55 115q-42 9 -57 40v77q22 43 83 43z" />
    <glyph glyph-name="quotedblleft" unicode="&#x201c;" horiz-adv-x="520" 
d="M162 575q42 -9 57 -40v-77q-22 -43 -83 -43t-83 43v88l79 160h85v-16zM410 575q42 -9 57 -40v-77q-22 -43 -83 -43t-83 43v88l79 160h85v-16z" />
    <glyph glyph-name="quotedblright" unicode="&#x201d;" horiz-adv-x="519" 
d="M136 715q61 0 83 -43v-88l-79 -160h-85v16l55 115q-42 9 -57 40v77q22 43 83 43zM383 715q61 0 83 -43v-88l-79 -160h-85v16l55 115q-42 9 -57 40v77q22 43 83 43z" />
    <glyph glyph-name="quotedblbase" unicode="&#x201e;" horiz-adv-x="519" 
d="M136 152q61 0 83 -43v-88l-79 -160h-85v16l55 115q-42 9 -57 40v77q22 43 83 43zM383 152q61 0 83 -43v-88l-79 -160h-85v16l55 115q-42 9 -57 40v77q22 43 83 43z" />
    <glyph glyph-name="dagger" unicode="&#x2020;" horiz-adv-x="683" 
d="M300 -170l-30 149v335l17 76l-100 -19h-133v134h133l100 -19l-17 78v142h144v-142l-18 -78l100 19h134v-134h-134l-100 19l18 -76v-335l-31 -149h-83z" />
    <glyph glyph-name="daggerdbl" unicode="&#x2021;" horiz-adv-x="715" 
d="M316 -170l-30 149v56l18 78l-101 -19h-133v134h133l101 -19l-18 73v59l18 76l-101 -19h-133v133h133l101 -19l-18 78v116h144v-116l-18 -78l100 19h134v-133h-134l-100 19l18 -76v-59l-18 -73l100 19h134v-134h-134l-100 19l18 -78v-56l-31 -149h-83z" />
    <glyph glyph-name="bullet" unicode="&#x2022;" horiz-adv-x="470" 
d="M235 170q-54 0 -96.5 29.5t-56.5 73.5v112q14 44 56.5 73.5t96.5 29.5t96.5 -29.5t56.5 -73.5v-112q-14 -44 -56.5 -73.5t-96.5 -29.5z" />
    <glyph glyph-name="ellipsis" unicode="&#x2026;" horiz-adv-x="815" 
d="M136 -11q-61 0 -83 43v77q22 43 83 43q60 0 82 -43v-78q-23 -42 -82 -42zM408 -11q-61 0 -83 43v77q22 43 83 43q60 0 82 -43v-78q-23 -42 -82 -42zM681 -11q-61 0 -83 43v77q22 43 83 43q60 0 82 -43v-78q-23 -42 -82 -42z" />
    <glyph glyph-name="perthousand" unicode="&#x2030;" horiz-adv-x="1419" 
d="M240 366q-63 0 -114 30t-67 75v145q16 45 67 75t114 30q62 0 113 -30t68 -75v-145q-17 -45 -68 -75t-113 -30zM805 693l-523 -693h-107v13l523 693h107v-13zM239 458q61 0 83 47v78q-23 46 -83 46q-55 0 -82 -46v-78q25 -47 82 -47zM741 -13q-63 0 -114 30t-67 75v145
q16 45 67 75t114 30q62 0 113 -30t68 -75v-145q-17 -45 -68 -75t-113 -30zM1180 -13q-63 0 -114 30t-67 75v145q16 45 67 75t114 30q62 0 113 -30t68 -75v-145q-17 -45 -68 -75t-113 -30zM740 79q61 0 83 47v78q-23 46 -83 46q-55 0 -82 -46v-78q25 -47 82 -47zM1179 79
q61 0 83 47v78q-23 46 -83 46q-55 0 -82 -46v-78q25 -47 82 -47z" />
    <glyph glyph-name="guilsinglleft" unicode="&#x2039;" horiz-adv-x="424" 
d="M267 57l-197 199v72l197 199h77v-73l-163 -163l163 -162v-72h-77z" />
    <glyph glyph-name="guilsinglright" unicode="&#x203a;" horiz-adv-x="424" 
d="M157 57h-77v72l163 162l-163 163v73h77l197 -199v-72z" />
    <glyph glyph-name="fraction" unicode="&#x2044;" horiz-adv-x="255" 
d="M442 693l-523 -693h-107v13l523 693h107v-13z" />
    <glyph glyph-name="Euro" unicode="&#x20ac;" 
d="M367 111q100 0 146 78l124 -50q-31 -71 -102.5 -113t-167.5 -42q-95 0 -167.5 42t-102.5 106v124h-69v70h69v61h-69v70h69v117q30 64 102.5 106t167.5 42q96 0 167.5 -42t102.5 -113l-124 -50q-46 78 -146 78q-46 0 -81 -18t-50 -47v-73h226v-70h-226v-61h226v-70h-226
v-79q15 -29 50 -47.5t81 -18.5z" />
    <glyph glyph-name="uni20B9" unicode="&#x20b9;" 
d="M599 706v-70h-133q36 -34 51 -78v-25h82v-70h-82v-53q-21 -60 -84.5 -104t-139.5 -44h-28l231 -236v-26h-151l-251 262v117h181q35 0 62 16.5t38 41.5v26h-281v70h277q-29 49 -96 49h-181v124h505z" />
    <glyph glyph-name="uni20BA" unicode="&#x20ba;" 
d="M492 189l124 -50q-30 -70 -101.5 -112.5t-168.5 -42.5h-201v269l-96 -42v76l96 42v74l-96 -42v76l96 42v227h139v-165l166 73v-76l-166 -73v-74l166 73v-76l-166 -73v-204h62q100 0 146 78z" />
    <glyph glyph-name="uni20BD" unicode="&#x20bd;" 
d="M368 706q84 0 152 -42.5t90 -105.5v-149q-22 -63 -90 -105.5t-152 -42.5h-101v-61h197v-70h-197v-130h-138v130h-97v70h97v61h-97v116h97v329h239zM471 438v81q-12 27 -43 44.5t-71 17.5h-90v-204h90q40 0 71 17t43 44z" />
    <glyph glyph-name="uni2116" unicode="&#x2116;" horiz-adv-x="1341" 
d="M1039 718q79 0 137 -36.5t80 -94.5v-158q-22 -57 -80 -93.5t-137 -36.5t-137.5 36.5t-80.5 93.5v158q22 58 80 94.5t138 36.5zM556 233v473h138v-706h-142l-328 501v-501h-139v706h160zM1135 457v103q-8 20 -34 36t-62 16q-37 0 -63 -16t-34 -36v-103q8 -19 34 -35.5
t63 -16.5q36 0 62 16.5t34 35.5z" />
    <glyph glyph-name="uni2117" unicode="&#x2117;" horiz-adv-x="840" 
d="M420 721q127 0 228 -62t132 -157v-298q-31 -95 -132 -157t-228 -62q-126 0 -226.5 62t-132.5 157v298q32 95 132.5 157t226.5 62zM715 223v260q-22 77 -106.5 127t-188.5 50q-103 0 -187.5 -50t-106.5 -127v-260q22 -76 106.5 -126.5t187.5 -50.5t188 50.5t107 126.5z
M458 561q50 0 91 -25.5t55 -63.5v-108q-14 -37 -55 -62.5t-91 -25.5h-103v-135h-83v420h186zM516 389v59q-14 33 -60 33h-101v-125h101q46 0 60 33z" />
    <glyph glyph-name="trademark" unicode="&#x2122;" horiz-adv-x="936" 
d="M158 331v296h-128v79h343v-79h-128v-296h-87zM434 331v375h121l105 -251l104 251h121v-375h-83v269l-111 -269h-63l-111 268v-268h-83z" />
    <glyph glyph-name="oneeighth" unicode="&#x215b;" horiz-adv-x="1012" 
d="M237 304h-101v253h-96v79q95 5 120 70h77v-402zM779 706v-13l-523 -693h-107v13l523 693h107zM926 208q27 -20 41 -44v-94q-18 -34 -62.5 -57t-102.5 -23t-102.5 23t-61.5 57v94q12 24 41 44q-21 16 -34 38v86q19 35 60.5 57.5t96.5 22.5t96.5 -22.5t61.5 -57.5v-86
q-12 -20 -34 -38zM746 263q14 -21 56 -21q41 0 57 21v41q-17 21 -57 21q-41 0 -56 -21v-41zM864 102v44q-15 20 -62 20t-62 -20v-44q16 -22 62 -22t62 22z" />
    <glyph glyph-name="threeeighths" unicode="&#x215c;" horiz-adv-x="1081" 
d="M359 380q-14 -34 -60 -60t-103 -26q-63 0 -107.5 26.5t-65.5 73.5l90 41q29 -51 85 -51q44 0 60 27v30q-15 29 -62 29h-39v78h39q44 0 58 25v29q-14 24 -56 24q-55 0 -80 -46l-90 40q20 45 63.5 70.5t105.5 25.5q55 0 99.5 -25t58.5 -58v-73q-14 -31 -51 -50
q42 -22 55 -55v-75zM848 706v-13l-523 -693h-107v13l523 693h107zM995 208q27 -20 41 -44v-94q-18 -34 -62.5 -57t-102.5 -23t-102.5 23t-61.5 57v94q12 24 41 44q-21 16 -34 38v86q19 35 60.5 57.5t96.5 22.5t96.5 -22.5t61.5 -57.5v-86q-12 -20 -34 -38zM815 263
q14 -21 56 -21q41 0 57 21v41q-17 21 -57 21q-41 0 -56 -21v-41zM933 102v44q-15 20 -62 20t-62 -20v-44q16 -22 62 -22q45 0 62 22z" />
    <glyph glyph-name="fiveeighths" unicode="&#x215d;" horiz-adv-x="1082" 
d="M364 380q-14 -35 -59.5 -60.5t-102.5 -25.5q-64 0 -109 27t-65 73l90 38q27 -47 83 -47q47 0 62 27v49q-18 28 -64 28q-44 0 -70 -24l-86 26l28 215h274v-92h-194l-10 -65q35 21 80 21q51 0 90.5 -23.5t52.5 -55.5v-111zM849 706v-13l-523 -693h-107v13l523 693h107z
M996 208q27 -20 41 -44v-94q-18 -34 -62.5 -57t-102.5 -23t-102.5 23t-61.5 57v94q12 24 41 44q-21 16 -34 38v86q19 35 60.5 57.5t96.5 22.5t96.5 -22.5t61.5 -57.5v-86q-12 -20 -34 -38zM816 263q14 -21 56 -21q41 0 57 21v41q-17 21 -57 21q-41 0 -56 -21v-41zM934 102
v44q-15 20 -62 20t-62 -20v-44q16 -22 62 -22t62 22z" />
    <glyph glyph-name="seveneighths" unicode="&#x215e;" horiz-adv-x="1022" 
d="M209 540q27 44 36 68v6h-211v92h313v-105q-5 -22 -43 -92l-117 -205h-104v17zM789 706v-13l-523 -693h-107v13l523 693h107zM936 208q27 -20 41 -44v-94q-18 -34 -62.5 -57t-102.5 -23t-102.5 23t-61.5 57v94q12 24 41 44q-21 16 -34 38v86q19 35 60.5 57.5t96.5 22.5
t96.5 -22.5t61.5 -57.5v-86q-12 -20 -34 -38zM756 263q14 -21 56 -21q41 0 57 21v41q-17 21 -57 21q-41 0 -56 -21v-41zM874 102v44q-15 20 -62 20t-62 -20v-44q16 -22 62 -22t62 22z" />
    <glyph glyph-name="arrowleft" unicode="&#x2190;" horiz-adv-x="860" 
d="M830 426v-122h-622l227 -217v-87h-93l-322 322v85l322 323h93v-87l-227 -217h622z" />
    <glyph glyph-name="arrowup" unicode="&#x2191;" horiz-adv-x="790" 
d="M438 746l322 -321v-91h-87l-214 222v-556h-127v558l-215 -224h-87v91l322 321h86z" />
    <glyph glyph-name="arrowright" unicode="&#x2192;" horiz-adv-x="850" 
d="M508 730l322 -323v-85l-322 -322h-93v87l227 217h-622v122h622l-227 217v87h93z" />
    <glyph glyph-name="arrowdown" unicode="&#x2193;" horiz-adv-x="790" 
d="M673 366h87v-91l-322 -321h-86l-322 321v91h87l215 -224v558h127v-556z" />
    <glyph glyph-name="minus" unicode="&#x2212;" 
d="M45 295v119h554v-119h-554z" />
    <glyph glyph-name="approxequal" unicode="&#x2248;" 
d="M60 385v124q6 5 17 12.5t47 20.5t74 13q50 0 137.5 -25.5t130.5 -25.5q29 0 57 11t41 22l14 11v-129q-42 -34 -111 -34q-53 0 -139 25.5t-132 25.5q-35 0 -69 -13t-51 -25zM61 173v124q6 5 17 12.5t47 20.5t74 13q50 0 137.5 -25.5t130.5 -25.5q29 0 57 11t42 22l13 11
v-129q-42 -34 -111 -34q-53 0 -139 25.5t-132 25.5q-35 0 -69 -13t-50 -25z" />
    <glyph glyph-name="notequal" unicode="&#x2260;" 
d="M599 405h-189l-42 -114h231v-119h-274l-34 -95h-113v17l28 78h-161v119h204l41 114h-245v119h288l38 107h114v-18l-32 -89h146v-119z" />
    <glyph glyph-name="lessequal" unicode="&#x2264;" 
d="M596 288v-124l-554 190v119l554 190v-124l-394 -125zM45 119h554v-119h-554v119z" />
    <glyph glyph-name="greaterequal" unicode="&#x2265;" 
d="M53 664l554 -190v-119l-554 -190v124l394 126l-394 125v124zM49 0v119h554v-119h-554z" />
    <glyph glyph-name="W.ss03" horiz-adv-x="1107" 
d="M939 706h138v-26l-241 -680h-141l-142 395l-141 -395h-141l-241 680v26h142l175 -518l133 369l-56 149h259l-54 -144l133 -375z" />
    <glyph glyph-name="Wacute.ss03" horiz-adv-x="1107" 
d="M717 904l-101 -126h-112v13l63 138h150v-25zM939 706h138v-26l-241 -680h-141l-142 395l-141 -395h-141l-241 680v26h142l175 -518l133 369l-56 149h259l-54 -144l133 -375z" />
    <glyph glyph-name="Wcircumflex.ss03" horiz-adv-x="1107" 
d="M560 872l-76 -94h-106v13l85 138h193l85 -138v-13h-106zM939 706h138v-26l-241 -680h-141l-142 395l-141 -395h-141l-241 680v26h142l175 -518l133 369l-56 149h259l-54 -144l133 -375z" />
    <glyph glyph-name="Wdieresis.ss03" horiz-adv-x="1107" 
d="M428 764q-56 0 -80 40v67q24 42 80 42q58 0 82 -42v-67q-24 -40 -82 -40zM691 764q-56 0 -80 40v67q24 42 80 42q58 0 82 -42v-67q-24 -40 -82 -40zM939 706h138v-26l-241 -680h-141l-142 395l-141 -395h-141l-241 680v26h142l175 -518l133 369l-56 149h259l-54 -144
l133 -375z" />
    <glyph glyph-name="Wgrave.ss03" horiz-adv-x="1107" 
d="M615 778h-112l-101 126v25h150l63 -138v-13zM939 706h138v-26l-241 -680h-141l-142 395l-141 -395h-141l-241 680v26h142l175 -518l133 369l-56 149h259l-54 -144l133 -375z" />
    <glyph glyph-name="a.ss01" horiz-adv-x="658" 
d="M453 526h132v-526h-124v53q-63 -69 -165 -69q-87 0 -152.5 48.5t-89.5 122.5v218q24 74 89.5 122t152.5 48q93 0 157 -59v42zM453 170v186q-40 66 -131 66q-51 0 -87.5 -25t-48.5 -57v-153q12 -33 48.5 -58t87.5 -25q46 0 80 19t51 47z" />
    <glyph glyph-name="aacute.ss01" horiz-adv-x="658" 
d="M485 730l-101 -126h-112v13l63 138h150v-25zM453 526h132v-526h-124v53q-63 -69 -165 -69q-87 0 -152.5 48.5t-89.5 122.5v218q24 74 89.5 122t152.5 48q93 0 157 -59v42zM453 170v186q-40 66 -131 66q-51 0 -87.5 -25t-48.5 -57v-153q12 -33 48.5 -58t87.5 -25
q46 0 80 19t51 47z" />
    <glyph glyph-name="abreve.ss01" horiz-adv-x="658" 
d="M328 599q-83 0 -129.5 40t-48.5 102h108q2 -28 19 -47t51 -19t51 19t19 47h108q-2 -61 -48.5 -101.5t-129.5 -40.5zM453 526h132v-526h-124v53q-63 -69 -165 -69q-87 0 -152.5 48.5t-89.5 122.5v218q24 74 89.5 122t152.5 48q93 0 157 -59v42zM453 170v186
q-40 66 -131 66q-51 0 -87.5 -25t-48.5 -57v-153q12 -33 48.5 -58t87.5 -25q46 0 80 19t51 47z" />
    <glyph glyph-name="acircumflex.ss01" horiz-adv-x="658" 
d="M328 698l-76 -94h-106v13l85 138h193l85 -138v-13h-106zM453 526h132v-526h-124v53q-63 -69 -165 -69q-87 0 -152.5 48.5t-89.5 122.5v218q24 74 89.5 122t152.5 48q93 0 157 -59v42zM453 170v186q-40 66 -131 66q-51 0 -87.5 -25t-48.5 -57v-153q12 -33 48.5 -58
t87.5 -25q46 0 80 19t51 47z" />
    <glyph glyph-name="adieresis.ss01" horiz-adv-x="658" 
d="M208 602q-57 0 -80 40v66q24 41 80 41t80 -41v-66q-23 -40 -80 -40zM446 602q-57 0 -80 40v66q24 41 80 41q58 0 80 -41v-66q-22 -40 -80 -40zM453 526h132v-526h-124v53q-63 -69 -165 -69q-87 0 -152.5 48.5t-89.5 122.5v218q24 74 89.5 122t152.5 48q93 0 157 -59v42z
M453 170v186q-40 66 -131 66q-51 0 -87.5 -25t-48.5 -57v-153q12 -33 48.5 -58t87.5 -25q46 0 80 19t51 47z" />
    <glyph glyph-name="agrave.ss01" horiz-adv-x="658" 
d="M383 604h-112l-101 126v25h150l63 -138v-13zM453 526h132v-526h-124v53q-63 -69 -165 -69q-87 0 -152.5 48.5t-89.5 122.5v218q24 74 89.5 122t152.5 48q93 0 157 -59v42zM453 170v186q-40 66 -131 66q-51 0 -87.5 -25t-48.5 -57v-153q12 -33 48.5 -58t87.5 -25
q46 0 80 19t51 47z" />
    <glyph glyph-name="amacron.ss01" horiz-adv-x="658" 
d="M490 714v-95h-324v95h324zM453 526h132v-526h-124v53q-63 -69 -165 -69q-87 0 -152.5 48.5t-89.5 122.5v218q24 74 89.5 122t152.5 48q93 0 157 -59v42zM453 170v186q-40 66 -131 66q-51 0 -87.5 -25t-48.5 -57v-153q12 -33 48.5 -58t87.5 -25q46 0 80 19t51 47z" />
    <glyph glyph-name="aogonek.ss01" horiz-adv-x="658" 
d="M579 -121l14 -70q-30 -16 -81 -16q-45 0 -75.5 15t-41.5 34v79q17 39 86 79h-20v53q-63 -69 -165 -69q-87 0 -152.5 48.5t-89.5 122.5v218q24 74 89.5 122t152.5 48q93 0 157 -59v42h132v-526q-85 -55 -94 -86v-22q13 -19 50 -19q21 0 38 6zM453 170v186q-40 66 -131 66
q-51 0 -87.5 -25t-48.5 -57v-153q12 -33 48.5 -58t87.5 -25q46 0 80 19t51 47z" />
    <glyph glyph-name="aring.ss01" horiz-adv-x="658" 
d="M329 585q-51 0 -89 23t-52 58v92q14 35 52 58t89 23q50 0 88 -23t52 -58v-92q-14 -36 -52 -58.5t-88 -22.5zM261 743v-62q14 -31 68 -31t68 31v62q-6 12 -24 21.5t-44 9.5t-44 -9.5t-24 -21.5zM453 526h132v-526h-124v53q-63 -69 -165 -69q-87 0 -152.5 48.5t-89.5 122.5
v218q24 74 89.5 122t152.5 48q93 0 157 -59v42zM453 170v186q-40 66 -131 66q-51 0 -87.5 -25t-48.5 -57v-153q12 -33 48.5 -58t87.5 -25q46 0 80 19t51 47z" />
    <glyph glyph-name="atilde.ss01" horiz-adv-x="658" 
d="M252 648q-39 0 -48 -50l-75 27q8 46 38 79t79 33q37 0 85 -25t72 -25q40 0 49 50l75 -24q-24 -115 -119 -115q-33 0 -82.5 25t-73.5 25zM453 526h132v-526h-124v53q-63 -69 -165 -69q-87 0 -152.5 48.5t-89.5 122.5v218q24 74 89.5 122t152.5 48q93 0 157 -59v42z
M453 170v186q-40 66 -131 66q-51 0 -87.5 -25t-48.5 -57v-153q12 -33 48.5 -58t87.5 -25q46 0 80 19t51 47z" />
    <glyph glyph-name="i.loclTRK" horiz-adv-x="282" 
d="M141 600q-57 0 -81 41v67q24 41 81 41q59 0 81 -41v-67q-22 -41 -81 -41zM75 0v526h132v-526h-132z" />
    <glyph glyph-name="l.ss02" horiz-adv-x="289" 
d="M266 -8q-156 0 -193 103v635h132v-578q5 -17 21 -29t40 -13v-118z" />
    <glyph glyph-name="lacute.ss02" horiz-adv-x="289" 
d="M84 785v13l63 138h150v-25l-101 -126h-112zM266 -8q-156 0 -193 103v635h132v-578q5 -17 21 -29t40 -13v-118z" />
    <glyph glyph-name="lcaron.ss02" horiz-adv-x="403" 
d="M266 -8q-156 0 -193 103v635h132v-578q5 -17 21 -29t40 -13v-118zM264 507l24 223h125v-25l-53 -198h-96z" />
    <glyph glyph-name="lcommaaccent.ss02" horiz-adv-x="289" 
d="M205 152q5 -17 21 -29t40 -13v-118q-156 0 -193 103v635h132v-578zM170 -53q57 0 78 -40v-60l-64 -97h-67v17l31 52q-41 8 -57 39v48q22 41 79 41z" />
    <glyph glyph-name="lslash.ss02" horiz-adv-x="396" 
d="M363 412l-98 -54v-206q5 -17 21 -29t40 -13v-118q-156 0 -193 103v191l-99 -54v125l99 54v319h132v-247l98 53v-124z" />
    <glyph glyph-name="w.ss03" horiz-adv-x="904" 
d="M744 526h131v-26l-181 -500h-141l-101 276l-101 -276h-141l-181 500v26h132l127 -368l93 260l-41 108h225l-41 -108l94 -261z" />
    <glyph glyph-name="wacute.ss03" horiz-adv-x="904" 
d="M609 730l-101 -126h-112v13l63 138h150v-25zM744 526h131v-26l-181 -500h-141l-101 276l-101 -276h-141l-181 500v26h132l127 -368l93 260l-41 108h225l-41 -108l94 -261z" />
    <glyph glyph-name="wcircumflex.ss03" horiz-adv-x="904" 
d="M452 698l-76 -94h-106v13l85 138h193l85 -138v-13h-106zM744 526h131v-26l-181 -500h-141l-101 276l-101 -276h-141l-181 500v26h132l127 -368l93 260l-41 108h225l-41 -108l94 -261z" />
    <glyph glyph-name="wdieresis.ss03" horiz-adv-x="904" 
d="M332 602q-57 0 -80 40v66q24 41 80 41t80 -41v-66q-23 -40 -80 -40zM570 602q-57 0 -80 40v66q24 41 80 41q58 0 80 -41v-66q-22 -40 -80 -40zM744 526h131v-26l-181 -500h-141l-101 276l-101 -276h-141l-181 500v26h132l127 -368l93 260l-41 108h225l-41 -108l94 -261z
" />
    <glyph glyph-name="wgrave.ss03" horiz-adv-x="904" 
d="M507 604h-112l-101 126v25h150l63 -138v-13zM744 526h131v-26l-181 -500h-141l-101 276l-101 -276h-141l-181 500v26h132l127 -368l93 260l-41 108h225l-41 -108l94 -261z" />
    <glyph glyph-name="zero.tf" 
d="M322 -16q-93 0 -164 42.5t-100 106.5v440q29 64 100 106.5t164 42.5t164 -42.5t100 -106.5v-440q-29 -64 -100 -106.5t-164 -42.5zM322 109q44 0 78.5 19t47.5 48v354q-13 29 -47.5 48t-78.5 19t-78.5 -19t-46.5 -48v-354q12 -29 46.5 -48t78.5 -19z" />
    <glyph glyph-name="one.tf" 
d="M412 117h160v-117h-470v117h172v360h-160v107q159 6 192 122h106v-589z" />
    <glyph glyph-name="two.tf" 
d="M56 0v159q13 47 53.5 85t118.5 81l131 72q67 37 81 72v62q-13 29 -46 47.5t-76 18.5q-104 0 -150 -100l-125 56q31 78 104 123.5t172 45.5q91 0 163.5 -43.5t95.5 -104.5v-148q-15 -41 -54.5 -74.5t-104.5 -67.5l-126 -66q-87 -47 -99 -75v-16h389v-127h-527z" />
    <glyph glyph-name="three.tf" 
d="M481 361q77 -40 101 -105v-124q-24 -61 -98.5 -104.5t-168.5 -43.5q-101 0 -176 46t-106 123l125 56q47 -100 157 -100q45 0 80 18t49 47v63q-14 29 -48.5 47t-80.5 18h-66v118h67q91 0 121 60v56q-14 27 -46.5 44t-74.5 17q-105 0 -149 -94l-124 57q31 74 103 118
t170 44q90 0 162 -42t95 -101v-120q-22 -57 -92 -98z" />
    <glyph glyph-name="four.tf" 
d="M523 268h98v-123h-98v-145h-139v145h-347v138l290 423h196v-438zM166 268h218v317z" />
    <glyph glyph-name="five.tf" 
d="M341 467q89 0 157 -42.5t91 -104.5v-188q-23 -61 -97.5 -104.5t-168.5 -43.5q-102 0 -176.5 46t-105.5 123l125 56q23 -49 64 -74.5t92 -25.5q45 0 80 18t49 47v105q-14 29 -50.5 47t-83.5 18q-84 0 -133 -46l-117 35l47 373h443v-127h-335l-19 -150q56 38 138 38z" />
    <glyph glyph-name="six.tf" 
d="M349 470q86 0 152.5 -39.5t95.5 -100.5v-198q-31 -64 -103.5 -106t-166.5 -42q-95 0 -167 42t-101 106v202q6 28 38 72l207 300h140v-27l-153 -217q32 8 58 8zM458 175v114q-15 29 -50 46.5t-81 17.5t-81 -18t-49 -46v-114q14 -29 49 -47.5t81 -18.5t81 18.5t50 47.5z
" />
    <glyph glyph-name="seven.tf" horiz-adv-x="643" 
d="M136 0v26l231 413q53 94 63 125v15h-370v127h509v-157q-9 -36 -75 -156l-217 -393h-141z" />
    <glyph glyph-name="eight.tf" 
d="M507 365q58 -36 85 -88v-155q-30 -60 -102 -99t-166 -39t-166.5 39t-102.5 99v155q25 51 86 88q-50 35 -73 81v138q29 60 97.5 99t158.5 39q89 0 157.5 -39t98.5 -99v-138q-25 -46 -73 -81zM206 545v-76q13 -24 44.5 -38.5t73.5 -14.5q41 0 73 14.5t45 38.5v76
q-13 24 -45 39.5t-73 15.5q-42 0 -73.5 -15t-44.5 -40zM453 166v87q-15 24 -49.5 39t-79.5 15t-80 -15t-49 -39v-87q14 -25 49 -41t80 -16t79.5 16t49.5 41z" />
    <glyph glyph-name="nine.tf" 
d="M316 722q95 0 167 -42t102 -106v-202q-8 -30 -38 -72l-207 -300h-138v27l153 218q-30 -9 -60 -9q-86 0 -152.5 39.5t-95.5 100.5v198q30 64 102.5 106t166.5 42zM447 417v115q-15 29 -50.5 47t-80.5 18t-80.5 -18t-50.5 -47v-115q15 -28 50 -46t81 -18t81 18t50 46z" />
    <glyph glyph-name="zero.dnom" horiz-adv-x="430" 
d="M215 -13q-57 0 -101.5 24.5t-63.5 61.5v251q19 37 63.5 61.5t101.5 24.5t101 -24.5t64 -61.5v-251q-20 -37 -64 -61.5t-101 -24.5zM215 79q47 0 64 26v188q-19 25 -64 25t-64 -25v-188q5 -11 23 -18.5t41 -7.5z" />
    <glyph glyph-name="one.dnom" horiz-adv-x="337" 
d="M160 402h77v-402h-101v253h-96v79q95 5 120 70z" />
    <glyph glyph-name="two.dnom" horiz-adv-x="407" 
d="M43 0v105q14 58 106 98l70 31q31 14 42 32v29q-15 26 -58 26q-52 0 -79 -49l-90 40q20 47 64 73.5t106 26.5q56 0 100 -25.5t58 -59.5v-92q-19 -46 -98 -78l-69 -29q-46 -20 -51 -30v-5h219v-93h-320z" />
    <glyph glyph-name="three.dnom" horiz-adv-x="406" 
d="M304 206q42 -22 55 -55v-75q-14 -34 -60 -60t-103 -26q-63 0 -107.5 26.5t-65.5 73.5l90 41q29 -51 85 -51q44 0 60 27v30q-15 29 -62 29h-39v78h39q44 0 58 25v29q-14 24 -56 24q-55 0 -80 -46l-90 40q20 45 63.5 70.5t105.5 25.5q55 0 99.5 -25t58.5 -58v-73
q-14 -31 -51 -50z" />
    <glyph glyph-name="four.dnom" horiz-adv-x="439" 
d="M344 166h58v-89h-58v-77h-101v77h-199v101l157 224h143v-236zM140 166h103v146z" />
    <glyph glyph-name="five.dnom" horiz-adv-x="407" 
d="M221 266q51 0 90.5 -23.5t52.5 -55.5v-111q-14 -35 -59.5 -60.5t-102.5 -25.5q-64 0 -109 27t-65 73l90 38q27 -47 83 -47q47 0 62 27v49q-18 28 -64 28q-44 0 -70 -24l-86 26l28 215h274v-92h-194l-10 -65q35 21 80 21z" />
    <glyph glyph-name="six.dnom" horiz-adv-x="420" 
d="M229 272q51 0 89.5 -22t57.5 -57v-117q-20 -37 -64 -61.5t-101 -24.5q-58 0 -102 24.5t-63 61.5v120q5 18 24 45l117 161h105v-17l-87 -116q12 3 24 3zM275 107v56q-19 26 -64 26t-64 -26v-56q18 -25 64 -25t64 25z" />
    <glyph glyph-name="seven.dnom" horiz-adv-x="387" 
d="M83 0v17l126 219q27 44 36 68v6h-211v92h313v-105q-5 -22 -43 -92l-117 -205h-104z" />
    <glyph glyph-name="eight.dnom" horiz-adv-x="420" 
d="M334 208q27 -20 41 -44v-94q-18 -34 -62.5 -57t-102.5 -23t-102.5 23t-61.5 57v94q12 24 41 44q-21 16 -34 38v86q19 35 60.5 57.5t96.5 22.5t96.5 -22.5t61.5 -57.5v-86q-12 -20 -34 -38zM154 263q14 -21 56 -21q41 0 57 21v41q-17 21 -57 21q-41 0 -56 -21v-41z
M272 102v44q-15 20 -62 20t-62 -20v-44q16 -22 62 -22q45 0 62 22z" />
    <glyph glyph-name="nine.dnom" horiz-adv-x="420" 
d="M209 412q57 0 101 -24t64 -61v-121q-4 -14 -25 -44l-117 -162h-102v17l88 116q-15 -3 -27 -3q-51 0 -90 22t-57 57v118q20 37 63.5 61t101.5 24zM273 239v56q-19 26 -64 26t-64 -26v-56q18 -25 64 -25t64 25z" />
    <glyph glyph-name="zero.numr" horiz-adv-x="430" 
d="M215 291q-57 0 -101.5 24.5t-63.5 61.5v251q19 37 63.5 61.5t101.5 24.5t101 -24.5t64 -61.5v-251q-20 -37 -64 -61.5t-101 -24.5zM215 383q47 0 64 26v188q-19 25 -64 25t-64 -25v-188q5 -11 23 -18.5t41 -7.5z" />
    <glyph glyph-name="one.numr" horiz-adv-x="337" 
d="M160 706h77v-402h-101v253h-96v79q95 5 120 70z" />
    <glyph glyph-name="two.numr" horiz-adv-x="407" 
d="M43 304v105q14 58 106 98l70 31q31 14 42 32v29q-15 26 -58 26q-52 0 -79 -49l-90 40q20 47 64 73.5t106 26.5q56 0 100 -25.5t58 -59.5v-92q-19 -46 -98 -78l-69 -29q-46 -20 -51 -30v-5h219v-93h-320z" />
    <glyph glyph-name="three.numr" horiz-adv-x="406" 
d="M304 510q42 -22 55 -55v-75q-14 -34 -60 -60t-103 -26q-63 0 -107.5 26.5t-65.5 73.5l90 41q29 -51 85 -51q44 0 60 27v30q-15 29 -62 29h-39v78h39q44 0 58 25v29q-14 24 -56 24q-55 0 -80 -46l-90 40q20 45 63.5 70.5t105.5 25.5q55 0 99.5 -25t58.5 -58v-73
q-14 -31 -51 -50z" />
    <glyph glyph-name="four.numr" horiz-adv-x="439" 
d="M344 470h58v-89h-58v-77h-101v77h-199v101l157 224h143v-236zM140 470h103v146z" />
    <glyph glyph-name="five.numr" horiz-adv-x="407" 
d="M221 570q51 0 90.5 -23.5t52.5 -55.5v-111q-14 -35 -59.5 -60.5t-102.5 -25.5q-64 0 -109 27t-65 73l90 38q27 -47 83 -47q47 0 62 27v49q-18 28 -64 28q-44 0 -70 -24l-86 26l28 215h274v-92h-194l-10 -65q35 21 80 21z" />
    <glyph glyph-name="six.numr" horiz-adv-x="420" 
d="M229 576q51 0 89.5 -22t57.5 -57v-117q-20 -37 -64 -61.5t-101 -24.5q-58 0 -102 24.5t-63 61.5v120q5 18 24 45l117 161h105v-17l-87 -116q12 3 24 3zM275 411v56q-19 26 -64 26t-64 -26v-56q18 -25 64 -25t64 25z" />
    <glyph glyph-name="seven.numr" horiz-adv-x="387" 
d="M83 304v17l126 219q27 44 36 68v6h-211v92h313v-105q-5 -22 -43 -92l-117 -205h-104z" />
    <glyph glyph-name="eight.numr" horiz-adv-x="420" 
d="M334 512q27 -20 41 -44v-94q-18 -34 -62.5 -57t-102.5 -23t-102.5 23t-61.5 57v94q12 24 41 44q-21 16 -34 38v86q19 35 60.5 57.5t96.5 22.5t96.5 -22.5t61.5 -57.5v-86q-12 -20 -34 -38zM154 567q14 -21 56 -21q41 0 57 21v41q-17 21 -57 21q-41 0 -56 -21v-41z
M272 406v44q-15 20 -62 20t-62 -20v-44q16 -22 62 -22q45 0 62 22z" />
    <glyph glyph-name="nine.numr" horiz-adv-x="420" 
d="M209 716q57 0 101 -24t64 -61v-121q-4 -14 -25 -44l-117 -162h-102v17l88 116q-15 -3 -27 -3q-51 0 -90 22t-57 57v118q20 37 63.5 61t101.5 24zM273 543v56q-19 26 -64 26t-64 -26v-56q18 -25 64 -25t64 25z" />
    <glyph glyph-name="exclamdown.case" horiz-adv-x="319" 
d="M159 717q61 0 83 -43v-77q-22 -43 -83 -43q-60 0 -82 43v78q23 42 82 42zM210 493l21 -155v-338h-143v338l20 155h102z" />
    <glyph glyph-name="questiondown.case" horiz-adv-x="540" 
d="M287 711q61 0 83 -43v-77q-22 -43 -83 -43q-60 0 -82 43v78q23 42 82 42zM351 492v-86q-9 -26 -52 -64l-47 -40q-69 -58 -81 -86v-43q11 -27 39.5 -44.5t67.5 -17.5q42 0 76 21t51 62l119 -52q-28 -72 -94.5 -115t-156.5 -43q-89 0 -154.5 42.5t-86.5 98.5v122
q9 29 36.5 58.5t83.5 75.5l42 37q28 23 34 40v34h123z" />
    <glyph glyph-name="caroncomb.alt" horiz-adv-x="0" 
d="M-201 483l24 223h125v-25l-53 -198h-96z" />
    <glyph glyph-name="uni0308.case" horiz-adv-x="0" 
d="M-398 770q-56 0 -80 40v67q24 42 80 42q58 0 82 -42v-67q-24 -40 -82 -40zM-135 770q-56 0 -80 40v67q24 42 80 42q58 0 82 -42v-67q-24 -40 -82 -40z" />
    <glyph glyph-name="uni0307.case" horiz-adv-x="0" 
d="M-134 770q-57 0 -81 41v67q24 41 81 41q59 0 81 -41v-67q-22 -41 -81 -41z" />
    <glyph glyph-name="uni030A.case" horiz-adv-x="0" 
d="M-203 653q-55 0 -95 23.5t-56 60.5v104q16 37 56 60t95 23q54 0 94.5 -23.5t55.5 -59.5v-104q-15 -37 -55.5 -60.5t-94.5 -23.5zM-204 722q59 0 76 31v71q-16 32 -76 32q-59 0 -75 -32v-71q17 -31 75 -31z" />
    </font>
</defs>
</svg>
